<svg xmlns="http://www.w3.org/2000/svg" xmlns:xlink="http://www.w3.org/1999/xlink" viewBox="0 0 183.71 265.52"><defs><style>.cls-1{isolation:isolate;}.cls-2{fill:url(#linear-gradient);}.cls-3,.cls-6{fill:#25054d;}.cls-4{fill:#45108a;}.cls-5{fill:url(#linear-gradient-2);}.cls-6{opacity:0.2;}.cls-7{fill:url(#linear-gradient-3);}.cls-10,.cls-12,.cls-16,.cls-8{mix-blend-mode:color-dodge;}.cls-8{fill:url(#radial-gradient);}.cls-9{fill:url(#linear-gradient-4);}.cls-10{fill:url(#radial-gradient-2);}.cls-11{fill:url(#linear-gradient-5);}.cls-12{fill:url(#radial-gradient-3);}.cls-13{fill:url(#linear-gradient-6);}.cls-14{fill:url(#linear-gradient-7);}.cls-15{fill:url(#linear-gradient-8);}.cls-16{fill:url(#radial-gradient-4);}.cls-17{fill:url(#New_Gradient_Swatch_copy_7);}.cls-18{fill:url(#linear-gradient-9);}.cls-19{mix-blend-mode:screen;}.cls-20{fill:url(#linear-gradient-10);}</style><linearGradient id="linear-gradient" x1="507.71" y1="299.16" x2="709.38" y2="238.78" gradientTransform="translate(-385.14 -67.24)" gradientUnits="userSpaceOnUse"><stop offset="0" stop-color="#25054d"/><stop offset="1" stop-color="#45108a"/></linearGradient><linearGradient id="linear-gradient-2" x1="301.54" y1="323.61" x2="566.82" y2="264.15" xlink:href="#linear-gradient"/><linearGradient id="linear-gradient-3" x1="572.64" y1="74.25" x2="469.85" y2="270.13" xlink:href="#linear-gradient"/><radialGradient id="radial-gradient" cx="562.18" cy="287.51" r="0.95" gradientTransform="translate(-385.14 -67.24)" gradientUnits="userSpaceOnUse"><stop offset="0" stop-color="#fff"/><stop offset="1"/></radialGradient><linearGradient id="linear-gradient-4" x1="505.61" y1="277.76" x2="689.67" y2="222.65" gradientTransform="translate(-385.14 -67.24)" gradientUnits="userSpaceOnUse"><stop offset="0.04" stop-color="#138bbd"/><stop offset="0.23" stop-color="#169ac7"/><stop offset="0.59" stop-color="#1fc3df"/><stop offset="1" stop-color="#2af6ff"/></linearGradient><radialGradient id="radial-gradient-2" cx="539.02" cy="288.94" r="35.28" xlink:href="#radial-gradient"/><linearGradient id="linear-gradient-5" x1="315.96" y1="300.07" x2="558.03" y2="245.8" xlink:href="#linear-gradient-4"/><radialGradient id="radial-gradient-3" cx="430.23" cy="277.28" r="41.73" xlink:href="#radial-gradient"/><linearGradient id="linear-gradient-6" x1="507.53" y1="267.12" x2="709.2" y2="206.73" xlink:href="#linear-gradient"/><linearGradient id="linear-gradient-7" x1="301.37" y1="291.57" x2="566.64" y2="232.1" xlink:href="#linear-gradient"/><linearGradient id="linear-gradient-8" x1="572.46" y1="42.2" x2="469.68" y2="238.08" xlink:href="#linear-gradient"/><radialGradient id="radial-gradient-4" cx="488.74" cy="320.83" r="100.66" gradientTransform="translate(-385.14 -67.24)" gradientUnits="userSpaceOnUse"><stop offset="0" stop-color="#972a74"/><stop offset="0.04" stop-color="#8a266a"/><stop offset="0.19" stop-color="#601b4a"/><stop offset="0.35" stop-color="#3d112f"/><stop offset="0.51" stop-color="#230a1b"/><stop offset="0.67" stop-color="#0f040c"/><stop offset="0.83" stop-color="#040103"/><stop offset="1"/></radialGradient><linearGradient id="New_Gradient_Swatch_copy_7" x1="1793.82" y1="1069.03" x2="1724.3" y2="1201.53" gradientTransform="matrix(-0.5, 0.87, -0.58, -1, 1878.68, -100.68)" xlink:href="#linear-gradient-4"/><linearGradient id="linear-gradient-9" x1="529.58" y1="122.32" x2="470.69" y2="234.55" gradientTransform="translate(-147)" gradientUnits="userSpaceOnUse"><stop offset="0.14" stop-color="#4a1195"/><stop offset="0.5" stop-color="#5414a8"/><stop offset="0.87" stop-color="#25054d"/></linearGradient><linearGradient id="linear-gradient-10" x1="476.56" y1="283.77" x2="476.56" y2="90.3" gradientTransform="translate(-147)" gradientUnits="userSpaceOnUse"><stop offset="0" stop-color="#43e8e1"/><stop offset="0.09" stop-color="#36bdb7" stop-opacity="0.81"/><stop offset="0.22" stop-color="#288b87" stop-opacity="0.6"/><stop offset="0.34" stop-color="#1c605d" stop-opacity="0.42"/><stop offset="0.47" stop-color="#123e3c" stop-opacity="0.27"/><stop offset="0.6" stop-color="#0a2321" stop-opacity="0.15"/><stop offset="0.73" stop-color="#040f0f" stop-opacity="0.07"/><stop offset="0.86" stop-color="#010404" stop-opacity="0.02"/><stop offset="1" stop-opacity="0"/></linearGradient></defs><g class="cls-1"><g id="Layer_1" data-name="Layer 1"><polygon class="cls-2" points="92.07 242.59 92.07 265.52 183.71 212.07 183.71 189.15 92.07 242.59"/><polygon class="cls-3" points="94.99 244.27 180.8 194.22 180.8 210.4 94.99 260.45 94.99 244.27"/><polygon class="cls-4" points="179.83 194.78 179.83 210.07 94.99 259.56 94.99 260.45 180.8 210.4 180.8 194.22 179.83 194.78"/><polygon class="cls-5" points="92.12 242.59 92.12 265.52 0.18 211.92 0.18 189.05 92.12 242.59"/><polygon class="cls-6" points="3.09 210.25 3.09 194.12 89.21 244.27 89.21 260.45 3.09 210.25"/><polygon class="cls-4" points="4.22 209.76 4.22 194.78 3.09 194.12 3.09 210.25 89.21 260.45 89.21 259.3 4.22 209.76"/><polygon class="cls-7" points="0.18 189.05 92.12 242.59 183.71 189.15 91.67 135.54 0.18 189.05"/><line class="cls-8" x1="177.03" y1="221.04" x2="177.03" y2="218.68"/><polygon class="cls-9" points="91.89 223.67 91.89 238.65 177.03 188.99 177.03 174 91.89 223.67"/><polygon class="cls-10" points="91.89 236.29 91.89 238.65 177.03 188.99 177.03 186.63 91.89 236.29"/><polygon class="cls-11" points="91.93 223.67 91.93 238.65 6.5 188.85 6.5 173.92 91.93 223.67"/><polygon class="cls-12" points="91.93 236.29 91.93 238.65 6.5 188.85 6.5 186.54 91.93 236.29"/><polygon class="cls-13" points="91.89 210.55 91.89 233.47 183.53 180.03 183.53 157.1 91.89 210.55"/><polygon class="cls-3" points="94.81 212.22 180.62 162.17 180.62 178.35 94.81 228.4 94.81 212.22"/><polygon class="cls-4" points="179.65 162.74 179.65 178.03 94.81 227.51 94.81 228.4 180.62 178.35 180.62 162.17 179.65 162.74"/><polygon class="cls-14" points="91.94 210.55 91.94 233.47 0 179.87 0 157 91.94 210.55"/><polygon class="cls-6" points="2.91 178.2 2.91 162.07 89.03 212.22 89.03 228.4 2.91 178.2"/><polygon class="cls-4" points="4.05 177.72 4.05 162.73 2.91 162.07 2.91 178.2 89.03 228.4 89.03 227.26 4.05 177.72"/><polygon class="cls-15" points="0 157 91.94 210.55 183.53 157.1 91.49 103.5 0 157"/><polygon class="cls-16" points="91.89 210.55 91.94 265.48 0 211.88 0 157 91.89 210.55"/><ellipse class="cls-17" cx="329.69" cy="223.36" rx="25.26" ry="43.75" transform="translate(-133.61 484.59) rotate(-89.69)"/><path class="cls-18" d="M298.65,215c17-9.84,44.74-9.79,61.87.11,6.48,3.74,10.52,8.35,12.12,13.17,2.66-8-1.38-16.56-12.12-22.76-17.13-9.9-44.84-9.95-61.87-.11-10.59,6.11-14.55,14.61-11.92,22.55C288.32,223.24,292.29,218.71,298.65,215Z" transform="translate(-238.14 -67.24)"/><g class="cls-19"><path class="cls-20" d="M373.2,222.11V67.24H285.93V221.77c-.68,7,3.56,14.06,12.8,19.4,17.13,9.89,44.84,9.94,61.87.11C369.7,236,373.86,229,373.2,222.11Z" transform="translate(-238.14 -67.24)"/></g></g></g></svg>