<svg id="Layer_1" data-name="Layer 1" xmlns="http://www.w3.org/2000/svg" viewBox="0 0 633.97 924.39"><defs><style>.cls-1{fill:#00e5ff;}</style></defs><path class="cls-1" d="M80.16,727.34s48,96.06,180.91,159c0,0,89.45,51.47,109.51,34.74S419,838.14,482.13,803.38s114.48-84.19,144.43-87.51c0,0,26.26-6.49-20.1-31.42s-64.78-46.94-79.61-76.37L512.09,649.7l-30,69.49-36.48,66.19-51.67,43-21.7,3.22-78-28.17L161.43,758.82,80.16,727.34Z" transform="translate(0 0)"/><path class="cls-1" d="M513,504s3.49-6.19,7.1-8.5l-.4-7.17s-7.39,2.75-12.17,12.48L513,504Z" transform="translate(0 0)"/><path class="cls-1" d="M549.33,518.58s7.18-11.7,12.33-11.5c0,0-4.86,20.37-12.24,26.7Z" transform="translate(0 0)"/><path class="cls-1" d="M521,486.12s13.72-13.86,17.38-32.76c.46-2.25-.35-6-3.47-10.65s-12.17-16.82-12.17-16.82,15.57-19.46,22.25-22.66c0,0,5.49-3.69,6.47,3.11s10.2,43.63,12.7,48.13c0,0-1.53,2.13-2.66,1.95,0,0,1.82,1.61,6.73-2.29a7.12,7.12,0,0,0,2.35-5.06c.28-3.48,7.33-49-5.79-59.59,0,0-8.49-6.43-28.41,10.54-2.48,2.11-22.77,20.12-27.83,38.39-.84,3.18.73,4.51,3,8.44S521.17,463,521.17,463Z" transform="translate(0 0)"/><path class="cls-1" d="M382.06,810.06a23.07,23.07,0,0,1,5.51,2.26,22,22,0,0,0,6.16,2.93s-5.18,8.19-5.18,11.71l-6.93-.16S377.6,817.8,382.06,810.06Z" transform="translate(0 0)"/><path class="cls-1" d="M95.81,330.43s8.72,11.47,21.25,1.53c0,0-7.31,16.66-17,25.39,0,0,13.38,49,79.52,41.3,0,0,2.7-5.06,7.47-2.8s12.1,5.77,12.1,5.77,4.05,2.34,3.65,5.87-.32,7.21-.32,7.21-.49,1.29,2.62,7.1,12.28,20.47,12.28,20.47-21-3-16.61,42.06c0,0-11.26-5.58-16-4.7l-2.42-5.1s.51-3.33,5.13-2.72v-3.32s-5.86-.94-9.13,2c0,0-8.79,6.63-13.51-2.39,0,0,17.51.44,17.51-11,0,0-1.87-9.76-15-10.53-8.29-.42-14.11,5.7-20.77,4.85,0,0-10.21-2.22-13.64-5.06a14,14,0,0,0-7.21-.81s3,3.4,3.18,4.21c0,0-2.46,3.69-6.16,2.76,0,0-2.14,5.79-.25,10.87,0,0-7.23.52-10-3.9,0,0-2.63,5.18-3.82,7.69l-7.1-6.64L94,459.9a22.66,22.66,0,0,1,6.77-9.73l-1.54-4.37-1.19,3s-9.48-4.25-11-13.73A28.13,28.13,0,0,1,97,439.3s6.24,1.46,9.13-.08,5.44-4.12,5.44-9.73a18.52,18.52,0,0,0-8.41,3.32s-5.71,5.36-11-1.29-9-20-10.09-28.74-3.12-11.6-3.12-15.39.28-26.93.28-26.93,7.86-3.11,9.24-11.8S90.47,331.74,95.81,330.43Z" transform="translate(0 0)"/><path class="cls-1" d="M256.9,406.39s-8.57-8.38-23.44-6.45c0,0-4.58,3.21-5.34,6.45s0,.76,0,.76,12.52,13.63,19.91,21.12,23.37,22.46,36.27,25.3c0,0,9.14,6.49,19.81-3.4,0,0,3.81-2.07,9.37.56s15.27,6.12,23.5-.76,12-13.74,16-11.64,2.85,8.57,1.5,9.93c0,0,9.6.21,12.6-4.37L386.59,460s-.68-13.25,17.2-10.39c0,0-5.43-3.6-15.82-5.54,0,0-9-.25-7.62-10.66l28.42-1.14s-8-11.38-28-23.35l-24.54-14.71s-7.57-4.79-15.76-1.82S311.2,402,311.2,402s-13,4.38-17-.16c0,0-5.66-2.14-10.84-.23s-6.49,3.44-9.74,0c0,0-4.06-4.19-11.06.77Z" transform="translate(0 0)"/><path class="cls-1" d="M187.38,147.9s4.24,17.3,5.13,23.23c0,0-12.58-7.43-15-12.22,0,0-5.14-12,9.86-11Z" transform="translate(0 0)"/><path class="cls-1" d="M239.71,149.43l.16,10.46s9.23,5.76,11.18,12.21l4.33-21.65S249.48,146.07,239.71,149.43Z" transform="translate(0 0)"/><path class="cls-1" d="M272.79,138a34.79,34.79,0,0,1,5.22,5.81c1.7,2.7,2.8,5.23,4.69,7.2l-.43,6.74s-9.77-.54-12.32-6.49Z" transform="translate(0 0)"/><path class="cls-1" d="M245.79,50,228.15,77.9s-9.44-4.51-6-11.19,13.22-17.65,13.22-17.65Z" transform="translate(0 0)"/><path class="cls-1" d="M323.52,63.75S314.38,74.24,309.29,77c0,0-5.91-5.79-.3-13s20.13-20.64,30.95-25.66c0,0,8.38-4.83,20.36,7.28,0,0,6.92-3.53,10.32-.56a19,19,0,0,1-.25,6.58c-.72,3.75,1,7,4.43,9.56V80s-7.24-11.45-14.34-15.17-21.14-7.73-19-17.35c0,0-7.73,31-11.05,38.26,0,0-8.93-7.13-5.25-12.6,0,0,4-2.52,1.43-6.17Z" transform="translate(0 0)"/><path class="cls-1" d="M361.54,69.1s3.62,10.16-2.3,16.86c0,0-2.84-2.63-2.3-9.93C356.94,76,359,71.44,361.54,69.1Z" transform="translate(0 0)"/><path class="cls-1" d="M447.16,136.05l7.16.09a18.9,18.9,0,0,0,6,6.37c4,2.55,14.27,9.12,15.12,11.84,0,0-4.87,5.78-9.94,5.66A12.31,12.31,0,0,0,458.42,150c-6.7-3.11-14.52-5.37-13.13-8.42A22.64,22.64,0,0,0,447.16,136.05Z" transform="translate(0 0)"/><path class="cls-1" d="M511.07,271.17l7.42-.09.56,2.26a46.59,46.59,0,0,0,3.65-7h6.88s-2.54,5.44,1.87,8.23,9.64,5.44,10.51,8.76c0,0-8.85-2-12.47-4s-9.85-2.83-13,.66l-3.2,2.3S510.59,274.19,511.07,271.17Z" transform="translate(0 0)"/><path class="cls-1" d="M511,288.87l-.14,9,6.64.21s1.22-4.86,4.17-1.58,9.58,6.73,11.93,8.15a30.41,30.41,0,0,0-5.82-7.3c-3.31-2.8-7.56-5.39-8.29-6s-3.94-2.59-5.53-2.59S511,288.87,511,288.87Z" transform="translate(0 0)"/><path class="cls-1" d="M613.91,310S592,311.11,586.1,285.91c0,0-5.3-25.61-9.53-30.15,0,0,5-.85,1.65-5.69s-14.28-18.15-15.75-24.23l.57-45.07s-1.1-32.63-28.74-53.8c-4.81-3.71-30.63-25.12-36.68-30.3s-36-34.71-39.08-40S452,45.91,452,45.91a131.62,131.62,0,0,0-23.2-9.27s-12.68-4.42-14.5-7.9c0,0-3.64,4.21-5.23,5.06a154.83,154.83,0,0,0-22.16-13.94c-12.13-6.18-45-21-67.7-19.79-5.44.29-19.47,2.39-33.1,5.83,0,0-42,11.6-49.1,12.09,0,0-37.21-.37-43.37-.58s-27.4,4.67-45.24,17.24c-5.36,3.79-27.15,17.8-28.54,32.75,0,0-19.73,20-38.92,33.56-5.45,3.85-19.12,18.69-15.75,25.49l3.12.85S60,139.41,52.81,146.84,25.53,175.59,29,194.11l11.17,28.81s-4.86.6-3.36,5.52l8.79,25.32s-4.33,35.08-15.12,51c0,0-2.81,3.11-5.22,1.61s-7.78-5.43-7.91-3.81c-.07,1.36,5.31,12.7,2.43,18.13h-.4c-.41-.12-1,.37-1.69.77,0,0,3.11,3,2.67,6.93a11.88,11.88,0,0,1-7.63,12.73l5,3.62-3.66,1s-9.16-8.84-14-2c0,0,7.86,12.81,9.12,21,0,0,1.41,12.74,11.61,15.72a8.06,8.06,0,0,1,4.59-5.91s3.21,16.1,24.29,25.58c0,0-15.34,12.09,5,10.44,0,0,8.8,34.84,24,49.54l-.28-15.77L73,432.94l1-72.78s8.23-6.5,7.21-20a159.12,159.12,0,0,0-.93-18.81h0c-.66-4.74-1.7-9.77-3.48-12.83,0,0-7.82-12.68-7.44-36,0,0-4.27-14.91,24.72-58.12a67.67,67.67,0,0,1,23.76-23.15l5.47,7.14s-3.65,4.5-2.5,4.82,7,4.58,6.5,11.92c0,0,8.4-6.93,8.58-.45,0,0-1.19,5.64-4.12,2.88l-4.46-2.43s-1.83,6.33-13.08,6v9s7.17-1.14,15.24,7.65c0,0,5.46,8.8,14.67,8.36s35.83-2,49.77-15.57c3.28-3.2,18.07-19.69,27-19.25,0,0,7.55-1.06,18,18.81,0,0,2.43,7.78,9,9.23l27.61,6.08s29.58,7,69-20.45l-7.95-9.21s-2-3.44-1.87-5.36c0,0-9.33,3.41-15.36-6.92h17.06s4.81,5.18,10.14,5.06,12.68-3.24,15.19-16.36c0,0,4.79-16.14,19.34-8.65l23.27,12.61s-4.82,4.33-9.28,5.05l21.28,12.1.73-3.73a12,12,0,0,0,7.44,6.49c5.65,1.7,7.15,5.39,11.44,14.35,0,0,4.83,16.7,8.27,20.33l-.6,18.67s-4.91,6.14-7.22,17.17c0,0-3.27,18.69-11,22.73L425,320.7h0l-.74,36.16s1.38,5.39,3.17,7.86a60.89,60.89,0,0,1,5.46,10.95s18.89,5.91,31.38,34.82c0,0,12.13,20.44,14.91,23.88,0,0-4.09,2.59-1.33,5.06s9.51,7.9,9.51,7.9l4.6-3s-2.31-24.72,11.58-33.1l-2.59-.29s-.57-9.73,5.36-16.74l8.38.89s-1.21-3.69,4.7-10,18.44-15.4,37.3-22.22c0,0,9.14-4.48,16.33,9.21,0,0,8.75,17.11,11,22.86,0,0,12.36-16.37,21.07-19.37v-7.22s-4.54-.13-4.54-2.95,4.42-2.84,4.42-2.84v-7s-6.56,1.49-9.06-3.49c0,0,9.39-8.52,1.75-8.83,0,0,14.81-17.12,15.54-19.35a12,12,0,0,0,.37-1.8h.14A51.37,51.37,0,0,0,613.91,310Z" transform="translate(0 0)"/><path class="cls-1" d="M537.14,618.78c-5.06-9.35-16.57-29.58-16.57-29.58s-7.56-8.11,9.81-19.74l-.29-6.77s-13.59,8.18-17.2,8.07c0,0-5.26.92-17.22-12.09l-.08,34.83s-2.71,27-12,33.59l-.74,37.14s1.8,9.69,2.8,13.29,5.89,15.76-13.72,40.61c-2.12,2.68-56.88,56.26-99.19,53.14l.43-5.06a15.4,15.4,0,0,1,8.16.19l.64-3.52,3.41-5.58s2.2-2.33-.56-3-13.21-2.6-13.21-2.6,28.15-19.12,36.82-29.47c0,0,31.83-32.33,36.62-35l-.12-7s-7.14,6.2-13,9.31-22.17,10.87-26.71,14.35L393.57,695s2.5-4-5.95-12.15a51.53,51.53,0,0,0-2.76-16.13c-3-9.23-8-25.25-7.39-36.24l3.26-33.86s1.17-4.93-2.32-7.64a4.39,4.39,0,0,1,.68-5.15c2.15-2.75,4.23-4.17,1.38-6.12,0,0-22.46-17.72-59.58-39-3.45-1.95-13.34-9.29-22.06-6.7l.14,6.7s6.61,5.82,15.84,13.21S349.55,580.6,358.68,593c0,0,4.81,6.83,2.3,11.72,0,0-.94,3.9-9.6,2.88,0,0-7.95-.8-18,7.74a119.22,119.22,0,0,0-9.82,7.77c-2.63,2.54-7.53,4.76-14.46,5.15s-38-2.18-52.91,2.32c0,0-7.9,1.58-13.77-3.6a4.16,4.16,0,0,0,1.82-3.74s3.12,0,7.78-2.59,6.77-4.8,9.89-3.52c0,0-7.69-12.25,3.49-18.32a187.24,187.24,0,0,1,24.25-10.62,12.5,12.5,0,0,1,6.63-10.5v-7.22l-16.74-.37s-6.61-.81-20.9,9.81c0,0-15.71,14.48-29.55,13.3,0,0-15.74-.65-31.05-17.3,0,0-14.44-12.7-21.69-5,0,0-.41,1.82,2.6,5.31s11.3,14.35,11.3,14.35a7.94,7.94,0,0,1-1.44,9.81s-2.73,3.61-.18,5.44l2.64,2.19s-5.44,5.19-7,8.68a32.6,32.6,0,0,1-11.67-5,151.85,151.85,0,0,0-16.48-10.37l.42-27.77s18.13-29.1,26-35.17v-7l-6.62.24S147,557.3,120,573.19c0,0-4.89,3.36-10.07-5.56s-16.11-30.51-21.41-64L85,528.16S101,579,103.87,588.31,119,635.25,119,635.25s9.85,34.49,11.27,38.79c0,0,4.43,9.44-6.19,18.23,0,0-39.73,27.4-44.81,32.71,0,0,47.11,37.12,61.17,45.27,0,0,57.12,35.19,83.86,40.7a146,146,0,0,0,30.2,2.76c10.14-.16,26.16,2.93,38.64,5.64s55.82,15.35,71.2,20.1c0,0,9.18,3.11,15.5-.58s18.14-10.77,24.31-11.82,34.29-10.62,53.39-29.44a348,348,0,0,0,24.77-27.1c5.7-7.23,24.3-36.78,28-46.26,0,0-16.9-3.85-8.33-16.45,0,0,33.69-41.92,39.55-46.37l.49-28.5S542.2,628.12,537.14,618.78ZM142,644s-4.33-4.25-5.63-6.86a9,9,0,0,0-8.15-5.46s-.11-14.27,1.15-20.39a6.38,6.38,0,0,0-3.08,5.66s-5.28,1.69-6.73-2.71.4-17,.4-17a24.36,24.36,0,0,0,4,5.66c2.22,2.11,9.81,8.56,9.81,8.56s3.53,3.4,3,5.91.89,4.46,2.12,7,5.75,9.44,5.75,9.44S142.67,637.3,142,644ZM314.38,751.61c-17.64,4.38-25.1,2.59-25.1,2.59s-29.65-8.41-32.75-9.44-7.38-2.71-9.48-.12-6.25,1.79-6.25,1.79-7.78-3.24-13.13-5.52-6.33-.19-6.33-.19c-12.56,10.12-28.15-17.32-31.5-24.41s-6.81-13.82-9.23-18.48-6.24-4.29-6.24-4.29c.63-8-9.34-19.38-9.34-19.38,1.82-1.95,2.72-6.7,2.72-6.7s-3.11-.93-3-2.22,2.71-1.14,2.71-1.14v-3.53c-9.45-6.07,10.5-16,10.5-16,13.25-7.46,33.77,45,33.77,45l47.74,1.39.31-4.5s-4-.89-6.68-1.82-10.23-3.86-15.49-5.39,4.63-11,4.63-11l27.35-.15c.41-6.05-5.39-7-5.39-7l-45.07-.37c-.64-3.09-4.17-3.61-4.17-3.61l.39-8.54s24.42-5.13,42.17-7.47,32.07-4.81,42.36-3.9,10.37,5.16,10.37,5.16c16.74-16.26,32.66-3.34,36.72.77s31.15,35.7,31.15,35.7L378,709.05C362.43,739.58,332.05,747.23,314.38,751.61Z" transform="translate(0 0)"/></svg>