<svg id="Layer_1" data-name="Layer 1" xmlns="http://www.w3.org/2000/svg" viewBox="0 0 236.53 230.62"><defs><style>.cls-1{fill:#00e5ff;}</style></defs><path class="cls-1" d="M236.53,118.45A118.27,118.27,0,1,0,79.78,230.3c2.83-2,6.09-4.56,6.09-8.8,0-6.51-.14-23.24-.14-23.24a82.36,82.36,0,0,1-12.46.87c-18.46,0-24.3-11.71-27.07-18.27a32,32,0,0,0-13.29-15.75c-3.06-2-3.76-4.29-.22-5C49,157.1,53.21,178.58,64.12,182c7.79,2.44,17.8,1.39,22.78-1.82.66-6.56,5.42-12.24,9.38-15.23-27.76-2.65-44.21-12.24-52.74-27.65l-.92-1.72-2.14-4.9-.64-1.75C37.17,121.12,36,112.16,36,102.15c0-17.76,5.56-24.46,13-33.94-5.72-20.25,2-34.09,2-34.09s12-2.48,34.72,13.7c12.31-5.25,45.13-5.69,60.66-1.17,9.52-6.27,26.95-15.15,34-12.66,1.9,3,6,11.93,2.49,31.46,2.38,4.28,14.79,13.4,14.84,39.19a101.28,101.28,0,0,1-3,24.33l-1,3.48s-.58,1.64-1.22,3.2l-.75,1.72c-8.23,18-25.12,24.7-52.42,27.49,8.85,5.54,11.38,12.49,11.38,31.28s-.25,21.32-.19,25.65c.05,3.82,3.11,6.57,5.86,8.65A118.32,118.32,0,0,0,236.53,118.45Z"/></svg>