<svg id="Layer_1" data-name="Layer 1" xmlns="http://www.w3.org/2000/svg" viewBox="0 0 236.53 230.62"><defs><style>.cls-1{fill:#e44d26;}.cls-2{fill:#f16529;}.cls-3{fill:#ebebeb;}.cls-4{fill:#fff;}</style></defs><polygon class="cls-1" points="51.45 212.09 36.57 45.32 199.96 45.32 185.07 212.07 118.17 230.62 51.45 212.09"/><polygon class="cls-2" points="118.27 216.43 172.33 201.45 185.05 58.96 118.27 58.96 118.27 216.43"/><polygon class="cls-3" points="118.27 120.81 91.2 120.81 89.33 99.86 118.27 99.86 118.27 79.41 118.19 79.41 66.98 79.41 67.47 84.9 72.49 141.27 118.27 141.27 118.27 120.81"/><polygon class="cls-3" points="118.27 173.93 118.17 173.95 95.39 167.81 93.94 151.49 82.87 151.49 73.4 151.49 76.27 183.61 118.17 195.24 118.27 195.21 118.27 173.93"/><path class="cls-4" d="M51.78,0H62.22V10.27h9.46V0h10.4V31.1H71.68V20.68H62.22V31.1H51.78Z"/><path class="cls-4" d="M95.75,10.31H86.59V0H115.3V10.31h-9.16V31.1H95.75Z"/><path class="cls-4" d="M119.85,0h10.84l6.66,11L144,0h10.85V31.1H144.51V15.68l-7.16,11.06h-.18L130,15.68V31.1H119.85Z"/><path class="cls-4" d="M160,0h10.39V20.82h14.62V31.1H160Z"/><polygon class="cls-4" points="118.19 120.81 118.19 141.27 143.38 141.27 141.01 167.8 118.19 173.95 118.19 195.23 160.13 183.61 160.44 180.15 165.24 126.3 165.74 120.81 160.23 120.81 118.19 120.81"/><polygon class="cls-4" points="118.19 79.41 118.19 92.11 118.19 99.81 118.19 99.86 167.54 99.86 167.54 99.86 167.6 99.86 168.01 95.27 168.94 84.9 169.43 79.41 118.19 79.41"/></svg>