<svg id="Layer_1" data-name="Layer 1" xmlns="http://www.w3.org/2000/svg" viewBox="0 0 236.53 230.62"><defs><style>.cls-1{fill:#00e5ff;}</style></defs><path class="cls-1" d="M118.26,21c30.72,0,34.35.12,46.48.67,11.22.52,17.31,2.39,21.36,4a35.53,35.53,0,0,1,13.23,8.6,35.74,35.74,0,0,1,8.6,13.22c1.57,4.06,3.45,10.15,4,21.36.55,12.13.67,15.77.67,46.48s-.12,34.35-.67,46.48c-.51,11.21-2.39,17.3-4,21.36A38,38,0,0,1,186.1,205c-4,1.58-10.14,3.45-21.36,4-12.12.55-15.76.67-46.48.67s-34.35-.12-46.47-.67c-11.22-.52-17.31-2.39-21.36-4A38,38,0,0,1,28.6,183.15c-1.57-4.06-3.45-10.15-4-21.36C24.09,149.66,24,146,24,115.31s.12-34.35.67-46.48c.51-11.21,2.39-17.3,4-21.36a35.74,35.74,0,0,1,8.6-13.22,35.53,35.53,0,0,1,13.23-8.6c4-1.58,10.14-3.45,21.36-4,12.13-.55,15.76-.67,46.47-.67m0-20.72C87,.29,83.11.42,70.84,1S50.24,3.49,42.92,6.33A56.31,56.31,0,0,0,22.55,19.6,56.36,56.36,0,0,0,9.28,40C6.44,47.28,4.5,55.64,3.94,67.89s-.7,16.18-.7,47.42.14,35.15.7,47.42,2.5,20.61,5.34,27.92A56.48,56.48,0,0,0,22.55,211a56.41,56.41,0,0,0,20.37,13.26c7.32,2.85,15.68,4.79,27.92,5.35s16.19.69,47.42.69,35.16-.13,47.43-.69,20.6-2.5,27.92-5.35a58.79,58.79,0,0,0,33.64-33.64c2.84-7.31,4.78-15.67,5.34-27.92s.69-16.18.69-47.42-.13-35.15-.69-47.42-2.5-20.61-5.34-27.92A56.36,56.36,0,0,0,214,19.6,56.31,56.31,0,0,0,193.61,6.33C186.29,3.49,177.93,1.54,165.69,1S149.5.29,118.26.29Zm0,56a59.06,59.06,0,1,0,59.07,59.06A59.06,59.06,0,0,0,118.26,56.25Zm0,97.4a38.34,38.34,0,1,1,38.35-38.34A38.35,38.35,0,0,1,118.26,153.65Zm75.21-99.74a13.81,13.81,0,1,1-13.81-13.8A13.8,13.8,0,0,1,193.47,53.91Z"/></svg>