<svg id="Layer_1" data-name="Layer 1" xmlns="http://www.w3.org/2000/svg" xmlns:xlink="http://www.w3.org/1999/xlink" viewBox="0 0 542.12 621.64"><defs><style>.cls-1{fill:none;}.cls-2{isolation:isolate;}.cls-3{clip-path:url(#clip-path);}.cls-4{fill:#00e5ff;}.cls-5{clip-path:url(#clip-path-2);}.cls-6{clip-path:url(#clip-path-3);}.cls-7{clip-path:url(#clip-path-4);}.cls-8{clip-path:url(#clip-path-5);}.cls-9{clip-path:url(#clip-path-6);}.cls-10{clip-path:url(#clip-path-7);}.cls-11{clip-path:url(#clip-path-8);}.cls-12{clip-path:url(#clip-path-9);}.cls-13{clip-path:url(#clip-path-10);}.cls-14{clip-path:url(#clip-path-11);}.cls-15{clip-path:url(#clip-path-12);}.cls-16{clip-path:url(#clip-path-13);}.cls-17{clip-path:url(#clip-path-14);}.cls-18{clip-path:url(#clip-path-15);}.cls-19{clip-path:url(#clip-path-16);}.cls-20{clip-path:url(#clip-path-17);}.cls-21{clip-path:url(#clip-path-18);}.cls-22{clip-path:url(#clip-path-19);}.cls-23{clip-path:url(#clip-path-20);}.cls-24{clip-path:url(#clip-path-21);}.cls-25{clip-path:url(#clip-path-22);}.cls-26{clip-path:url(#clip-path-23);}.cls-27{clip-path:url(#clip-path-24);}.cls-28{clip-path:url(#clip-path-25);}.cls-29{clip-path:url(#clip-path-26);}.cls-30{clip-path:url(#clip-path-27);}</style><clipPath id="clip-path" transform="translate(0 -5.91)"><polygon class="cls-1" points="95.1 213.04 180.12 163.63 265.7 213.04 180.68 262.45 95.1 213.04"/></clipPath><clipPath id="clip-path-2" transform="translate(0 -5.91)"><polygon class="cls-1" points="185.82 160.48 270.84 111.07 356.42 160.48 271.4 209.89 185.82 160.48"/></clipPath><clipPath id="clip-path-3" transform="translate(0 -5.91)"><polygon class="cls-1" points="276.29 108.12 361.32 58.71 446.9 108.12 361.88 157.53 276.29 108.12"/></clipPath><clipPath id="clip-path-4" transform="translate(0 -5.91)"><polygon class="cls-1" points="185.13 265.72 270.16 216.31 355.74 265.72 270.72 315.13 185.13 265.72"/></clipPath><clipPath id="clip-path-5" transform="translate(0 -5.91)"><polygon class="cls-1" points="275.85 213.16 360.88 163.75 446.46 213.16 361.44 262.57 275.85 213.16"/></clipPath><clipPath id="clip-path-6" transform="translate(0 -5.91)"><polygon class="cls-1" points="366.33 160.8 451.37 111.39 536.95 160.8 451.91 210.21 366.33 160.8"/></clipPath><clipPath id="clip-path-7" transform="translate(0 -5.91)"><polygon class="cls-1" points="5.18 160.24 90.2 110.83 175.78 160.24 90.76 209.65 5.18 160.24"/></clipPath><clipPath id="clip-path-8" transform="translate(0 -5.91)"><polygon class="cls-1" points="95.9 107.68 180.92 58.27 266.5 107.68 181.48 157.09 95.9 107.68"/></clipPath><clipPath id="clip-path-9" transform="translate(0 -5.91)"><polygon class="cls-1" points="186.37 55.32 271.4 5.91 356.99 55.32 271.96 104.73 186.37 55.32"/></clipPath><clipPath id="clip-path-10" transform="translate(0 -5.91)"><polygon class="cls-1" points="274.59 523.27 359.89 474.35 359.89 375.53 274.59 424.46 274.59 523.27"/></clipPath><clipPath id="clip-path-11" transform="translate(0 -5.91)"><polygon class="cls-1" points="365.47 470.99 450.77 422.06 450.77 323.24 365.47 372.17 365.47 470.99"/></clipPath><clipPath id="clip-path-12" transform="translate(0 -5.91)"><polygon class="cls-1" points="456.05 418.81 541.36 369.88 541.36 271.06 456.05 319.99 456.05 418.81"/></clipPath><clipPath id="clip-path-13" transform="translate(0 -5.91)"><polygon class="cls-1" points="273.98 418.96 359.29 370.03 359.29 271.2 273.98 320.14 273.98 418.96"/></clipPath><clipPath id="clip-path-14" transform="translate(0 -5.91)"><polygon class="cls-1" points="364.86 366.68 450.17 317.75 450.17 218.92 364.86 267.85 364.86 366.68"/></clipPath><clipPath id="clip-path-15" transform="translate(0 -5.91)"><polygon class="cls-1" points="455.45 314.49 540.75 265.56 540.75 166.74 455.45 215.67 455.45 314.49"/></clipPath><clipPath id="clip-path-16" transform="translate(0 -5.91)"><polygon class="cls-1" points="275.35 627.55 360.66 578.62 360.66 479.8 275.35 528.73 275.35 627.55"/></clipPath><clipPath id="clip-path-17" transform="translate(0 -5.91)"><polygon class="cls-1" points="366.23 575.26 451.54 526.33 451.54 427.51 366.23 476.44 366.23 575.26"/></clipPath><clipPath id="clip-path-18" transform="translate(0 -5.91)"><polygon class="cls-1" points="456.82 523.08 542.12 474.16 542.12 375.33 456.82 424.26 456.82 523.08"/></clipPath><clipPath id="clip-path-19" transform="translate(0 -5.91)"><polygon class="cls-1" points="267.53 523.27 182.22 474.35 182.22 375.53 267.53 424.46 267.53 523.27"/></clipPath><clipPath id="clip-path-20" transform="translate(0 -5.91)"><polygon class="cls-1" points="176.65 470.99 91.35 422.06 91.35 323.24 176.65 372.17 176.65 470.99"/></clipPath><clipPath id="clip-path-21" transform="translate(0 -5.91)"><polygon class="cls-1" points="86.07 418.81 0.76 369.88 0.76 271.06 86.07 320 86.07 418.81"/></clipPath><clipPath id="clip-path-22" transform="translate(0 -5.91)"><polygon class="cls-1" points="268.13 418.96 182.82 370.03 182.82 271.2 268.13 320.14 268.13 418.96"/></clipPath><clipPath id="clip-path-23" transform="translate(0 -5.91)"><polygon class="cls-1" points="177.26 366.68 91.95 317.75 91.95 218.92 177.26 267.85 177.26 366.68"/></clipPath><clipPath id="clip-path-24" transform="translate(0 -5.91)"><polygon class="cls-1" points="86.67 314.5 1.37 265.57 1.37 166.74 86.67 215.67 86.67 314.5"/></clipPath><clipPath id="clip-path-25" transform="translate(0 -5.91)"><polygon class="cls-1" points="266.76 627.55 181.46 578.62 181.46 479.8 266.76 528.73 266.76 627.55"/></clipPath><clipPath id="clip-path-26" transform="translate(0 -5.91)"><polygon class="cls-1" points="175.89 575.26 90.58 526.33 90.58 427.51 175.89 476.44 175.89 575.26"/></clipPath><clipPath id="clip-path-27" transform="translate(0 -5.91)"><polygon class="cls-1" points="85.3 523.08 0 474.16 0 375.34 85.3 424.26 85.3 523.08"/></clipPath></defs><g class="cls-2"><g class="cls-3"><path class="cls-4" d="M109.24,213l70.93-41.22L251.56,213l-70.93,41.22L109.24,213m156.46,0-85.58-49.41L95.1,213l85.58,49.41,85-49.41" transform="translate(0 -5.91)"/></g></g><g class="cls-2"><g class="cls-5"><path class="cls-4" d="M200,160.48l70.93-41.22,71.39,41.22L271.35,201.7,200,160.48m156.46,0-85.58-49.41-85,49.41,85.58,49.41,85-49.41" transform="translate(0 -5.91)"/></g></g><g class="cls-2"><g class="cls-6"><path class="cls-4" d="M290.43,108.12,361.36,66.9l71.4,41.22-70.93,41.22-71.4-41.22m156.47,0L361.32,58.71l-85,49.41,85.59,49.41,85-49.41" transform="translate(0 -5.91)"/></g></g><g class="cls-2"><g class="cls-7"><path class="cls-4" d="M199.28,265.72l70.93-41.22,71.39,41.22-70.93,41.22-71.39-41.22m156.46,0-85.58-49.41-85,49.41,85.59,49.41,85-49.41" transform="translate(0 -5.91)"/></g></g><g class="cls-2"><g class="cls-8"><path class="cls-4" d="M290,213.16l70.93-41.22,71.39,41.22-70.93,41.22L290,213.16m156.46,0-85.58-49.41-85,49.41,85.59,49.41,85-49.41" transform="translate(0 -5.91)"/></g></g><g class="cls-2"><g class="cls-9"><path class="cls-4" d="M380.48,160.8l70.93-41.22L522.8,160.8,451.87,202,380.48,160.8m156.46,0-85.58-49.41-85,49.41,85.58,49.41,85-49.41" transform="translate(0 -5.91)"/></g></g><g class="cls-2"><g class="cls-10"><path class="cls-4" d="M19.32,160.24,90.25,119l71.39,41.22L90.71,201.46,19.32,160.24m156.46,0L90.2,110.83l-85,49.41,85.58,49.41,85-49.41" transform="translate(0 -5.91)"/></g></g><g class="cls-2"><g class="cls-11"><path class="cls-4" d="M110,107.68,181,66.46l71.39,41.22L181.43,148.9,110,107.68m156.46,0L180.92,58.27l-85,49.41,85.58,49.41,85-49.41" transform="translate(0 -5.91)"/></g></g><g class="cls-2"><g class="cls-12"><path class="cls-4" d="M200.51,55.32,271.45,14.1l71.4,41.22L271.91,96.54l-71.4-41.22m156.48,0L271.4,5.91l-85,49.41L272,104.73l85-49.41" transform="translate(0 -5.91)"/></g></g><g class="cls-2"><g class="cls-13"><path class="cls-4" d="M281.66,511V428.59l71.16-40.82v82.44L281.66,511m78.23-135.5-85.3,48.93v98.82l85.3-48.93V375.53" transform="translate(0 -5.91)"/></g></g><g class="cls-2"><g class="cls-14"><path class="cls-4" d="M372.54,458.74V376.31l71.16-40.82v82.44l-71.16,40.81m78.23-135.5-85.3,48.93V471l85.3-48.93V323.24" transform="translate(0 -5.91)"/></g></g><g class="cls-2"><g class="cls-15"><path class="cls-4" d="M463.12,406.57V324.12l71.17-40.82v82.45l-71.17,40.82m78.24-135.51L456.05,320v98.82l85.31-48.93V271.06" transform="translate(0 -5.91)"/></g></g><g class="cls-2"><g class="cls-16"><path class="cls-4" d="M281.05,406.72V324.27l71.17-40.82V365.9l-71.17,40.82M359.29,271.2,274,320.14V419L359.29,370V271.2" transform="translate(0 -5.91)"/></g></g><g class="cls-2"><g class="cls-17"><path class="cls-4" d="M371.93,354.43V272l71.17-40.83v82.45l-71.17,40.82m78.24-135.51-85.31,48.93v98.83l85.31-48.93V218.92" transform="translate(0 -5.91)"/></g></g><g class="cls-2"><g class="cls-18"><path class="cls-4" d="M462.52,302.24V219.81L533.68,179v82.44l-71.16,40.81m78.23-135.5-85.3,48.93v98.82l85.3-48.93V166.74" transform="translate(0 -5.91)"/></g></g><g class="cls-2"><g class="cls-19"><path class="cls-4" d="M282.42,615.3V532.86L353.59,492v82.44L282.42,615.3m78.24-135.5-85.31,48.93v98.82l85.31-48.93V479.8" transform="translate(0 -5.91)"/></g></g><g class="cls-2"><g class="cls-20"><path class="cls-4" d="M373.3,563V480.58l71.17-40.82V522.2L373.3,563m78.24-135.51-85.31,48.93v98.82l85.31-48.93V427.51" transform="translate(0 -5.91)"/></g></g><g class="cls-2"><g class="cls-21"><path class="cls-4" d="M463.89,510.84V428.4l71.16-40.82V470l-71.16,40.82m78.23-135.51-85.3,48.93v98.82l85.3-48.92V375.33" transform="translate(0 -5.91)"/></g></g><g class="cls-2"><g class="cls-22"><path class="cls-4" d="M260.46,511,189.3,470.21V387.77l71.16,40.82V511m-78.23-135.5v98.82l85.3,48.92V424.46l-85.3-48.93" transform="translate(0 -5.91)"/></g></g><g class="cls-2"><g class="cls-23"><path class="cls-4" d="M169.58,458.74,98.42,417.93V335.49l71.16,40.82v82.43M91.35,323.24v98.82L176.65,471V372.17l-85.3-48.93" transform="translate(0 -5.91)"/></g></g><g class="cls-2"><g class="cls-24"><path class="cls-4" d="M79,406.57,7.83,365.75V283.31L79,324.13v82.44M.76,271.06v98.82l85.31,48.93V320L.76,271.06" transform="translate(0 -5.91)"/></g></g><g class="cls-2"><g class="cls-25"><path class="cls-4" d="M261.06,406.72,189.9,365.9V283.46l71.16,40.82v82.44M182.83,271.2V370L268.13,419V320.14l-85.3-48.94" transform="translate(0 -5.91)"/></g></g><g class="cls-2"><g class="cls-26"><path class="cls-4" d="M170.19,354.43,99,313.61V231.17L170.19,272v82.44M92,218.92v98.83l85.31,48.93V267.85L92,218.92" transform="translate(0 -5.91)"/></g></g><g class="cls-2"><g class="cls-27"><path class="cls-4" d="M79.6,302.24,8.44,261.43V179L79.6,219.81v82.43M1.37,166.74v98.83l85.3,48.93V215.67L1.37,166.74" transform="translate(0 -5.91)"/></g></g><g class="cls-2"><g class="cls-28"><path class="cls-4" d="M259.7,615.3l-71.17-40.82V492l71.17,40.82V615.3M181.46,479.8v98.82l85.31,48.93V528.73L181.46,479.8" transform="translate(0 -5.91)"/></g></g><g class="cls-2"><g class="cls-29"><path class="cls-4" d="M168.82,563,97.65,522.2V439.76l71.17,40.82V563M90.58,427.51v98.82l85.31,48.93V476.44L90.58,427.51" transform="translate(0 -5.91)"/></g></g><g class="cls-2"><g class="cls-30"><path class="cls-4" d="M78.23,510.84,7.07,470V387.58L78.23,428.4v82.44M0,375.34v98.82l85.3,48.92V424.26L0,375.34" transform="translate(0 -5.91)"/></g></g></svg>