<svg id="Layer_1" data-name="Layer 1" xmlns="http://www.w3.org/2000/svg" viewBox="0 0 837.4 925.45"><defs><style>.cls-1{fill:#00e5ff;}</style></defs><path class="cls-1" d="M614.12,274.57c-77.88-97.81-187.73-94.33-191.86-94.16-4.13-.17-114-3.65-191.86,94.16-79.38,99.69-36.92,212.3-36.92,212.3s16.61,40.61,38.76,70.15,55.39,99.69,64.62,156.92,42.46,55.38,42.46,55.38H505.2s33.23,1.85,42.46-55.38S590.12,586.56,612.27,557,651,486.87,651,486.87,693.5,374.26,614.12,274.57ZM575.35,553.33c-25.84,38.77-57.7,119.35-62.77,142.15-7.38,33.23-18.46,31.38-18.46,31.38V540.41S568,503.48,568,414.87,492.28,293,492.28,293V400.1c0,25.85-28.62,34.15-28.62,34.15H380.85s-28.61-8.3-28.61-34.15V293s-75.69,33.23-75.69,121.84,73.84,125.54,73.84,125.54V726.86s-11.07,1.85-18.46-31.38c-5.06-22.8-36.92-103.38-62.76-142.15S178.71,416.72,252.55,306c0,0,46.15-83.07,169.84-86.77C546.08,222.88,592,306,592,306,665.81,416.72,601.2,514.56,575.35,553.33Z" transform="translate(0 1.06)"/><path class="cls-1" d="M493.6,787.78h-148a4,4,0,0,0-3.49,2L331,803.31a4,4,0,0,0,0,4l11.21,13.51a4,4,0,0,0,3.49,2h148a4,4,0,0,0,3.48-2l11.21-13.51a4,4,0,0,0,0-4L497.08,789.8A4,4,0,0,0,493.6,787.78Z" transform="translate(0 1.06)"/><path class="cls-1" d="M483.15,836.41H356.09a3.46,3.46,0,0,0-3,1.73l-9.63,11.6a3.45,3.45,0,0,0,0,3.46l9.63,11.6a3.46,3.46,0,0,0,3,1.73H483.15a3.46,3.46,0,0,0,3-1.73l9.62-11.6a3.45,3.45,0,0,0,0-3.46l-9.62-11.6A3.46,3.46,0,0,0,483.15,836.41Z" transform="translate(0 1.06)"/><path class="cls-1" d="M419.62,883.78h65.54c0,22.28-29.59,40.61-65.54,40.61s-65.53-18.33-65.53-40.61v-.19Z" transform="translate(0 1.06)"/><path class="cls-1" d="M439,119V12.9A6,6,0,0,0,436.42,8L424.87,0a6,6,0,0,0-6.8,0L406.52,8a6,6,0,0,0-2.59,4.94V119a6,6,0,0,0,2.59,4.93l11.55,8a6,6,0,0,0,6.8,0l11.55-8A6,6,0,0,0,439,119Z" transform="translate(0 1.06)"/><path class="cls-1" d="M120.08,403.79H14A6,6,0,0,0,9,406.38l-8,11.55a6,6,0,0,0,0,6.8l8,11.55A6,6,0,0,0,14,438.87H120.08a6,6,0,0,0,4.93-2.59l8-11.55a6,6,0,0,0,0-6.8l-8-11.55A6,6,0,0,0,120.08,403.79Z" transform="translate(0 1.06)"/><path class="cls-1" d="M823.44,403.79H717.32a6,6,0,0,0-4.93,2.59l-8,11.55a6,6,0,0,0,0,6.8l8,11.55a6,6,0,0,0,4.93,2.59H823.44a6,6,0,0,0,4.94-2.59l8-11.55a6,6,0,0,0,0-6.8l-8-11.55A6,6,0,0,0,823.44,403.79Z" transform="translate(0 1.06)"/><path class="cls-1" d="M716.92,692l-75-75a6,6,0,0,0-5.32-1.66l-13.79,2.54a6,6,0,0,0-4.82,4.81l-2.53,13.79a6,6,0,0,0,1.66,5.32l75,75a6,6,0,0,0,5.32,1.66l13.79-2.53a6,6,0,0,0,4.82-4.81l2.53-13.8A6,6,0,0,0,716.92,692Z" transform="translate(0 1.06)"/><path class="cls-1" d="M692.12,120.34l-75,75a6,6,0,0,0-1.66,5.32L618,214.5a6,6,0,0,0,4.82,4.81l13.79,2.53a6,6,0,0,0,5.32-1.66l75-75a6,6,0,0,0,1.66-5.32L716.05,126a6,6,0,0,0-4.82-4.81l-13.79-2.54A6,6,0,0,0,692.12,120.34Z" transform="translate(0 1.06)"/><path class="cls-1" d="M220.32,195.38l-75-75a6,6,0,0,0-5.32-1.66l-13.79,2.54a6,6,0,0,0-4.82,4.81l-2.53,13.79a6,6,0,0,0,1.66,5.32l75,75a6,6,0,0,0,5.32,1.66l13.79-2.53a6,6,0,0,0,4.82-4.81L222,200.7A6,6,0,0,0,220.32,195.38Z" transform="translate(0 1.06)"/><path class="cls-1" d="M195.52,616.94l-75,75a6,6,0,0,0-1.66,5.32l2.53,13.8a6,6,0,0,0,4.82,4.81L140,718.44a6,6,0,0,0,5.32-1.66l75-75a6,6,0,0,0,1.66-5.32l-2.53-13.79a6,6,0,0,0-4.82-4.81l-13.79-2.54A6,6,0,0,0,195.52,616.94Z" transform="translate(0 1.06)"/></svg>