<svg id="Layer_1" data-name="Layer 1" xmlns="http://www.w3.org/2000/svg" xmlns:xlink="http://www.w3.org/1999/xlink" viewBox="0 0 236.53 230.62"><defs><style>.cls-1{fill:url(#linear-gradient);}.cls-2{fill:url(#linear-gradient-2);}.cls-3{fill:url(#linear-gradient-3);}.cls-4{fill:url(#linear-gradient-4);}.cls-5{fill:url(#linear-gradient-5);}.cls-6{fill:#fff;}</style><linearGradient id="linear-gradient" x1="-1667.37" y1="7.68" x2="-1666.14" y2="7.68" gradientTransform="translate(185496.35 -807.6) scale(111.2 116.8)" gradientUnits="userSpaceOnUse"><stop offset="0" stop-color="#21d789"/><stop offset="1" stop-color="#07c3f2"/></linearGradient><linearGradient id="linear-gradient-2" x1="-1672.38" y1="5.09" x2="-1670.7" y2="4.07" gradientTransform="translate(279545.15 -848.01) scale(167.2 204.8)" gradientUnits="userSpaceOnUse"><stop offset="0.01" stop-color="#fcf84a"/><stop offset="0.11" stop-color="#a7eb62"/><stop offset="0.21" stop-color="#5fe077"/><stop offset="0.27" stop-color="#32da84"/><stop offset="0.31" stop-color="#21d789"/><stop offset="0.58" stop-color="#21d789"/><stop offset="0.6" stop-color="#21d789"/><stop offset="0.69" stop-color="#20d68c"/><stop offset="0.76" stop-color="#1ed497"/><stop offset="0.83" stop-color="#19d1a9"/><stop offset="0.9" stop-color="#13ccc2"/><stop offset="0.97" stop-color="#0bc6e1"/><stop offset="1" stop-color="#07c3f2"/></linearGradient><linearGradient id="linear-gradient-3" x1="-1666.54" y1="5.84" x2="-1666.12" y2="4.99" gradientTransform="translate(185353.15 -767.2) scale(111.2 175.2)" gradientUnits="userSpaceOnUse"><stop offset="0" stop-color="#21d789"/><stop offset="0.16" stop-color="#24d788"/><stop offset="0.3" stop-color="#2fd886"/><stop offset="0.44" stop-color="#41da82"/><stop offset="0.56" stop-color="#5adc7d"/><stop offset="0.69" stop-color="#7ae077"/><stop offset="0.81" stop-color="#a1e36e"/><stop offset="0.93" stop-color="#cfe865"/><stop offset="1" stop-color="#f1eb5e"/></linearGradient><linearGradient id="linear-gradient-4" x1="-1663.2" y1="13.93" x2="-1662.05" y2="11.96" gradientTransform="translate(147788.37 -848) scale(88.8 70)" gradientUnits="userSpaceOnUse"><stop offset="0" stop-color="#21d789"/><stop offset="0.06" stop-color="#24d788"/><stop offset="0.11" stop-color="#2fd886"/><stop offset="0.16" stop-color="#41da82"/><stop offset="0.21" stop-color="#5add7d"/><stop offset="0.25" stop-color="#79e077"/><stop offset="0.26" stop-color="#7ce076"/><stop offset="0.5" stop-color="#8ce173"/><stop offset="0.92" stop-color="#b2e56b"/></linearGradient><linearGradient id="linear-gradient-5" x1="-1671.76" y1="4.85" x2="-1672.89" y2="4.84" gradientTransform="translate(304512.77 -784) scale(182 191.6)" gradientUnits="userSpaceOnUse"><stop offset="0.39" stop-color="#fcf84a"/><stop offset="0.54" stop-color="#ecf451"/><stop offset="0.83" stop-color="#c2e964"/><stop offset="0.92" stop-color="#b2e56b"/></linearGradient></defs><polygon class="cls-1" points="164.63 36.59 231.84 92.31 207.41 141.55 167.15 130.41 131.93 130.41 164.63 36.59"/><polygon class="cls-2" points="96.69 72.9 83.75 141.55 82.69 165.27 49.62 179.29 3.25 184.32 17.27 35.52 101.73 0.29 153.5 34.44 96.69 72.9"/><polygon class="cls-3" points="96.69 72.9 103.17 205.53 81.97 230.33 3.25 184.32 67.94 87.63 96.69 72.9"/><polygon class="cls-4" points="183.69 63.19 103.89 63.19 174.34 0.29 183.69 63.19"/><polygon class="cls-5" points="233.28 205.89 163.19 229.97 69.75 203.73 96.69 72.9 107.48 63.19 164.63 57.8 159.25 114.95 204.53 97.34 233.28 205.89"/><rect x="46.38" y="43.42" width="143.78" height="143.77"/><path class="cls-6" d="M60,160.29h54v9H60Zm-.36-98.13H84.13c14.38,0,22.64,8.27,22.64,20.49,0,13.66-10.78,20.85-24.08,20.85H72.63v18H59.69V62.11ZM93.47,83.29c0-5.75-4-9-10.78-9H72.63V92.67H83C90.11,92.67,93.47,88.35,93.47,83.29Zm18.34,9a30.25,30.25,0,0,1,29.6-30.9h1.31c11.14,0,18,3.6,23.36,9.35l-8.27,9.7c-4.67-4.31-9.34-6.82-15.09-6.82-10.07,0-17.26,8.26-17.26,18.69,0,10.06,7.19,18.69,17.26,18.69,6.83,0,11.14-2.88,15.81-6.83l8.27,8.26c-6.11,6.47-12.94,10.79-24.44,10.79A30.57,30.57,0,0,1,111.8,92.65C111.8,92.53,111.8,92.41,111.81,92.29Z"/></svg>