<svg id="Layer_1" data-name="Layer 1" xmlns="http://www.w3.org/2000/svg" xmlns:xlink="http://www.w3.org/1999/xlink" viewBox="0 0 744.12 621.64"><defs><style>.cls-1,.cls-34{fill:none;}.cls-2{isolation:isolate;}.cls-3{clip-path:url(#clip-path);}.cls-4{fill:#00e5ff;}.cls-5{clip-path:url(#clip-path-2);}.cls-6{clip-path:url(#clip-path-3);}.cls-7{clip-path:url(#clip-path-4);}.cls-8{clip-path:url(#clip-path-5);}.cls-9{clip-path:url(#clip-path-6);}.cls-10{clip-path:url(#clip-path-7);}.cls-11{clip-path:url(#clip-path-8);}.cls-12{clip-path:url(#clip-path-9);}.cls-13{clip-path:url(#clip-path-10);}.cls-14,.cls-35{fill:#fff;}.cls-15{clip-path:url(#clip-path-11);}.cls-16{clip-path:url(#clip-path-12);}.cls-17{clip-path:url(#clip-path-13);}.cls-18{clip-path:url(#clip-path-14);}.cls-19{clip-path:url(#clip-path-15);}.cls-20{clip-path:url(#clip-path-16);}.cls-21{clip-path:url(#clip-path-17);}.cls-22{clip-path:url(#clip-path-18);}.cls-23{clip-path:url(#clip-path-19);}.cls-24{fill:#ff003d;}.cls-25{clip-path:url(#clip-path-20);}.cls-26{clip-path:url(#clip-path-21);}.cls-27{clip-path:url(#clip-path-22);}.cls-28{clip-path:url(#clip-path-23);}.cls-29{clip-path:url(#clip-path-24);}.cls-30{clip-path:url(#clip-path-25);}.cls-31{clip-path:url(#clip-path-26);}.cls-32{clip-path:url(#clip-path-27);}.cls-33{opacity:0.7;}.cls-34{stroke:#fff;stroke-miterlimit:10;stroke-width:8px;}.cls-35{font-size:85px;font-family:Montserrat-Light, Montserrat;font-weight:300;letter-spacing:0.49em;}.cls-36{letter-spacing:0.48em;}.cls-37{letter-spacing:0.5em;}</style><clipPath id="clip-path" transform="translate(-135.64 -192.13)"><polygon class="cls-1" points="324.04 399.27 409.06 349.86 494.64 399.27 409.62 448.68 324.04 399.27"/></clipPath><clipPath id="clip-path-2" transform="translate(-135.64 -192.13)"><polygon class="cls-1" points="414.76 346.71 499.78 297.3 585.36 346.71 500.34 396.12 414.76 346.71"/></clipPath><clipPath id="clip-path-3" transform="translate(-135.64 -192.13)"><polygon class="cls-1" points="505.23 294.34 590.26 244.93 675.85 294.35 590.82 343.76 505.23 294.34"/></clipPath><clipPath id="clip-path-4" transform="translate(-135.64 -192.13)"><polygon class="cls-1" points="414.07 451.94 499.1 402.53 584.68 451.94 499.66 501.36 414.07 451.94"/></clipPath><clipPath id="clip-path-5" transform="translate(-135.64 -192.13)"><polygon class="cls-1" points="504.79 399.38 589.82 349.97 675.4 399.38 590.38 448.8 504.79 399.38"/></clipPath><clipPath id="clip-path-6" transform="translate(-135.64 -192.13)"><polygon class="cls-1" points="595.27 347.03 680.3 297.62 765.88 347.02 680.86 396.44 595.27 347.03"/></clipPath><clipPath id="clip-path-7" transform="translate(-135.64 -192.13)"><polygon class="cls-1" points="234.12 346.46 319.14 297.05 404.72 346.46 319.7 395.87 234.12 346.46"/></clipPath><clipPath id="clip-path-8" transform="translate(-135.64 -192.13)"><polygon class="cls-1" points="324.84 293.9 409.86 244.49 495.44 293.9 410.42 343.31 324.84 293.9"/></clipPath><clipPath id="clip-path-9" transform="translate(-135.64 -192.13)"><polygon class="cls-1" points="415.31 241.55 500.34 192.13 585.93 241.55 500.9 290.96 415.31 241.55"/></clipPath><clipPath id="clip-path-10" transform="translate(-135.64 -192.13)"><polygon class="cls-1" points="503.53 709.5 588.83 660.57 588.83 561.75 503.53 610.68 503.53 709.5"/></clipPath><clipPath id="clip-path-11" transform="translate(-135.64 -192.13)"><polygon class="cls-1" points="594.41 657.22 679.71 608.29 679.71 509.47 594.41 558.4 594.41 657.22"/></clipPath><clipPath id="clip-path-12" transform="translate(-135.64 -192.13)"><polygon class="cls-1" points="684.99 605.04 770.3 556.11 770.3 457.28 684.99 506.21 684.99 605.04"/></clipPath><clipPath id="clip-path-13" transform="translate(-135.64 -192.13)"><polygon class="cls-1" points="502.92 605.19 588.23 556.26 588.23 457.43 502.92 506.36 502.92 605.19"/></clipPath><clipPath id="clip-path-14" transform="translate(-135.64 -192.13)"><polygon class="cls-1" points="593.8 552.9 679.11 503.97 679.11 405.14 593.8 454.08 593.8 552.9"/></clipPath><clipPath id="clip-path-15" transform="translate(-135.64 -192.13)"><polygon class="cls-1" points="684.39 500.72 769.69 451.79 769.69 352.97 684.39 401.9 684.39 500.72"/></clipPath><clipPath id="clip-path-16" transform="translate(-135.64 -192.13)"><polygon class="cls-1" points="504.29 813.77 589.6 764.84 589.6 666.02 504.29 714.96 504.29 813.77"/></clipPath><clipPath id="clip-path-17" transform="translate(-135.64 -192.13)"><polygon class="cls-1" points="595.17 761.49 680.48 712.56 680.48 613.74 595.17 662.67 595.17 761.49"/></clipPath><clipPath id="clip-path-18" transform="translate(-135.64 -192.13)"><polygon class="cls-1" points="685.76 709.31 771.06 660.38 771.06 561.56 685.76 610.48 685.76 709.31"/></clipPath><clipPath id="clip-path-19" transform="translate(-135.64 -192.13)"><polygon class="cls-1" points="496.47 709.5 411.17 660.57 411.17 561.75 496.47 610.68 496.47 709.5"/></clipPath><clipPath id="clip-path-20" transform="translate(-135.64 -192.13)"><polygon class="cls-1" points="405.59 657.22 320.29 608.29 320.29 509.47 405.59 558.4 405.59 657.22"/></clipPath><clipPath id="clip-path-21" transform="translate(-135.64 -192.13)"><polygon class="cls-1" points="315.01 605.04 229.7 556.11 229.7 457.29 315.01 506.22 315.01 605.04"/></clipPath><clipPath id="clip-path-22" transform="translate(-135.64 -192.13)"><polygon class="cls-1" points="497.07 605.19 411.77 556.26 411.77 457.43 497.07 506.36 497.07 605.19"/></clipPath><clipPath id="clip-path-23" transform="translate(-135.64 -192.13)"><polygon class="cls-1" points="406.2 552.9 320.89 503.97 320.89 405.14 406.2 454.08 406.2 552.9"/></clipPath><clipPath id="clip-path-24" transform="translate(-135.64 -192.13)"><polygon class="cls-1" points="315.61 500.72 230.31 451.8 230.31 352.97 315.61 401.9 315.61 500.72"/></clipPath><clipPath id="clip-path-25" transform="translate(-135.64 -192.13)"><polygon class="cls-1" points="495.71 813.77 410.4 764.84 410.4 666.02 495.71 714.96 495.71 813.77"/></clipPath><clipPath id="clip-path-26" transform="translate(-135.64 -192.13)"><polygon class="cls-1" points="404.83 761.49 319.52 712.56 319.52 613.74 404.83 662.67 404.83 761.49"/></clipPath><clipPath id="clip-path-27" transform="translate(-135.64 -192.13)"><polygon class="cls-1" points="314.24 709.31 228.94 660.38 228.94 561.56 314.24 610.49 314.24 709.31"/></clipPath></defs><g class="cls-2"><g class="cls-3"><path class="cls-4" d="M338.18,399.27l70.93-41.22,71.39,41.22-70.93,41.22-71.39-41.22m156.46,0-85.58-49.41-85,49.41,85.58,49.41,85-49.41" transform="translate(-135.64 -192.13)"/></g></g><g class="cls-2"><g class="cls-5"><path class="cls-4" d="M428.9,346.71l70.93-41.22,71.39,41.22-70.93,41.22L428.9,346.71m156.46,0L499.78,297.3l-85,49.41,85.58,49.41,85-49.41" transform="translate(-135.64 -192.13)"/></g></g><g class="cls-2"><g class="cls-6"><path class="cls-4" d="M519.38,294.34l70.92-41.22,71.4,41.23-70.93,41.22-71.39-41.23m156.46,0-85.58-49.42-85,49.41,85.59,49.42,85-49.41" transform="translate(-135.64 -192.13)"/></g></g><g class="cls-2"><g class="cls-7"><path class="cls-4" d="M428.22,452l70.93-41.22L570.54,452l-70.93,41.22L428.22,452m156.46,0L499.1,402.53l-85,49.41,85.59,49.42,85-49.41" transform="translate(-135.64 -192.13)"/></g></g><g class="cls-2"><g class="cls-8"><path class="cls-4" d="M518.94,399.39l70.93-41.22,71.39,41.22-70.93,41.22-71.39-41.22m156.46,0L589.82,350l-85,49.41,85.59,49.42,85-49.41" transform="translate(-135.64 -192.13)"/></g></g><g class="cls-2"><g class="cls-9"><path class="cls-4" d="M609.42,347l70.93-41.22L751.74,347l-70.93,41.23L609.42,347m156.46,0-85.57-49.41-85,49.42,85.58,49.41,85-49.42" transform="translate(-135.64 -192.13)"/></g></g><g class="cls-2"><g class="cls-10"><path class="cls-4" d="M248.26,346.46l70.93-41.22,71.39,41.22-70.93,41.22-71.39-41.22m156.46,0-85.58-49.41-85,49.41,85.58,49.41,85-49.41" transform="translate(-135.64 -192.13)"/></g></g><g class="cls-2"><g class="cls-11"><path class="cls-4" d="M339,293.9l70.93-41.22L481.3,293.9l-70.93,41.22L339,293.9m156.46,0-85.58-49.41-85,49.41,85.58,49.41,85-49.41" transform="translate(-135.64 -192.13)"/></g></g><g class="cls-2"><g class="cls-12"><path class="cls-4" d="M429.45,241.55l70.94-41.23,71.4,41.23-70.94,41.22-71.4-41.22m156.48,0-85.59-49.42-85,49.42L500.9,291l85-49.41" transform="translate(-135.64 -192.13)"/></g></g><g class="cls-2"><g class="cls-13"><path class="cls-14" d="M510.6,697.25V614.82L581.76,574v82.44L510.6,697.25m78.23-135.5-85.3,48.93V709.5l85.3-48.93V561.75" transform="translate(-135.64 -192.13)"/></g></g><g class="cls-2"><g class="cls-15"><path class="cls-14" d="M601.48,645V562.53l71.16-40.82v82.44L601.48,645m78.23-135.5-85.3,48.93v98.82l85.3-48.93V509.47" transform="translate(-135.64 -192.13)"/></g></g><g class="cls-2"><g class="cls-16"><path class="cls-14" d="M692.06,592.79V510.35l71.17-40.82V552l-71.17,40.82M770.3,457.28,685,506.21V605l85.31-48.93V457.28" transform="translate(-135.64 -192.13)"/></g></g><g class="cls-2"><g class="cls-17"><path class="cls-14" d="M510,592.94V510.5l71.17-40.82v82.44L510,592.94m78.24-135.51-85.31,48.93v98.83l85.31-48.93V457.43" transform="translate(-135.64 -192.13)"/></g></g><g class="cls-2"><g class="cls-18"><path class="cls-14" d="M600.87,540.66V458.21L672,417.39v82.45l-71.17,40.82m78.24-135.52L593.8,454.08V552.9L679.11,504V405.14" transform="translate(-135.64 -192.13)"/></g></g><g class="cls-2"><g class="cls-19"><path class="cls-14" d="M691.46,488.47V406l71.16-40.81v82.43l-71.16,40.82M769.69,353l-85.3,48.93v98.82l85.3-48.93V353" transform="translate(-135.64 -192.13)"/></g></g><g class="cls-2"><g class="cls-20"><path class="cls-14" d="M511.36,801.53V719.09l71.17-40.82v82.44l-71.17,40.82M589.6,666,504.29,715v98.82l85.31-48.93V666" transform="translate(-135.64 -192.13)"/></g></g><g class="cls-2"><g class="cls-21"><path class="cls-14" d="M602.24,749.24V666.8L673.41,626v82.44l-71.17,40.82m78.24-135.5-85.31,48.93v98.82l85.31-48.93V613.74" transform="translate(-135.64 -192.13)"/></g></g><g class="cls-2"><g class="cls-22"><path class="cls-14" d="M692.83,697.06V614.63L764,573.81v82.44l-71.16,40.81m78.23-135.5-85.3,48.92v98.83l85.3-48.93V561.56" transform="translate(-135.64 -192.13)"/></g></g><g class="cls-2"><g class="cls-23"><path class="cls-24" d="M489.4,697.25l-71.16-40.81V574l71.16,40.82v82.43m-78.23-135.5v98.82l85.3,48.93V610.68l-85.3-48.93" transform="translate(-135.64 -192.13)"/></g></g><g class="cls-2"><g class="cls-25"><path class="cls-24" d="M398.52,645l-71.16-40.82V521.71l71.16,40.82V645m-78.23-135.5v98.82l85.3,48.93V558.4l-85.3-48.93" transform="translate(-135.64 -192.13)"/></g></g><g class="cls-2"><g class="cls-26"><path class="cls-24" d="M307.94,592.79,236.77,552V469.54l71.17,40.82v82.43M229.7,457.29v98.82L315,605V506.22L229.7,457.29" transform="translate(-135.64 -192.13)"/></g></g><g class="cls-2"><g class="cls-27"><path class="cls-24" d="M490,592.94l-71.16-40.82V469.68L490,510.5v82.44M411.77,457.43v98.83l85.3,48.93V506.36l-85.3-48.93" transform="translate(-135.64 -192.13)"/></g></g><g class="cls-2"><g class="cls-28"><path class="cls-24" d="M399.13,540.66,328,499.84V417.4l71.17,40.82v82.44M320.89,405.14V504L406.2,552.9V454.08l-85.31-48.94" transform="translate(-135.64 -192.13)"/></g></g><g class="cls-2"><g class="cls-29"><path class="cls-24" d="M308.54,488.47l-71.16-40.82V365.22L308.54,406v82.44M230.31,353V451.8l85.3,48.92V401.9L230.31,353" transform="translate(-135.64 -192.13)"/></g></g><g class="cls-2"><g class="cls-30"><path class="cls-24" d="M488.64,801.53l-71.17-40.82V678.27l71.17,40.82v82.44M410.4,666v98.82l85.31,48.93V715L410.4,666" transform="translate(-135.64 -192.13)"/></g></g><g class="cls-2"><g class="cls-31"><path class="cls-24" d="M397.76,749.24l-71.17-40.82V626l71.17,40.82v82.44m-78.24-135.5v98.82l85.31,48.93V662.67l-85.31-48.93" transform="translate(-135.64 -192.13)"/></g></g><g class="cls-2"><g class="cls-32"><path class="cls-24" d="M307.17,697.06,236,656.25V573.81l71.16,40.82v82.43m-78.23-135.5v98.82l85.3,48.93V610.49l-85.3-48.93" transform="translate(-135.64 -192.13)"/></g></g><rect class="cls-33" x="4" y="245.89" width="720.72" height="123.95"/><rect class="cls-34" x="4" y="245.89" width="720.72" height="123.95"/><text class="cls-35" transform="translate(20.6 332.9)">R<tspan class="cls-36" x="102.85" y="0">Y</tspan><tspan class="cls-37" x="197.03" y="0">NDOLF</tspan></text></svg>