<svg id="Layer_1" data-name="Layer 1" xmlns="http://www.w3.org/2000/svg" viewBox="0 0 236.53 230.62"><defs><style>.cls-1{fill:#00e5ff;}</style></defs><path class="cls-1" d="M118.26,0A115.31,115.31,0,1,0,233.57,115.31,115.31,115.31,0,0,0,118.26,0Zm55,75c-.33,4.67-3,21-5.66,38.66-4,25-8.33,52.33-8.33,52.33s-.67,7.66-6.34,9-15-4.66-16.66-6c-1.33-1-25-16-33.66-23.33-2.33-2-5-6,.33-10.67,12-11,26.33-24.66,35-33.32,4-4,8-13.33-8.67-2-23.66,16.33-47,31.66-47,31.66s-5.33,3.33-15.33.33-21.66-7-21.66-7-8-5,5.67-10.33c0,0,57.65-23.66,77.65-32,7.66-3.34,33.66-14,33.66-14S174.25,63.65,173.25,75Z"/></svg>