<svg id="Layer_1" data-name="Layer 1" xmlns="http://www.w3.org/2000/svg" viewBox="0 0 236.53 230.62"><defs><style>.cls-1{fill:#264de4;}.cls-2{fill:#2965f1;}.cls-3{fill:#ebebeb;}.cls-4{fill:#fff;}</style></defs><path class="cls-1" d="M118.15,230.62,51.42,212.1,36.55,45.32H200L185.05,212.07l-66.9,18.55Z"/><path class="cls-2" d="M172.31,201.45,185,59H118.24V216.44l54.07-15Z"/><path class="cls-3" d="M70.64,120.81l1.83,20.46h45.77V120.81ZM67,79.41l1.85,20.46h49.43V79.41Zm51.28,94.52h-.08l-22.8-6.12-1.46-16.32H73.39l2.86,32.12,41.9,11.63h.09Z"/><path class="cls-4" d="M75,0h24.8V10.36H85.36V20.72H99.78V31.08H75Zm29.73,0h24.78V9h-14.4v1.8h14.42V31.53H104.73V22.07h14.42v-1.8H104.73V0Zm29.73,0h24.77V9H144.82v1.8h14.41V31.53H134.46V22.07h14.41v-1.8H134.46V0Z"/><path class="cls-4" d="M165.72,120.81l3.69-41.4H118.17V99.87H147l-1.86,20.94h-27v20.46h25.19L141,167.79,118.17,174v21.28l41.94-11.62.3-3.46,4.81-53.84.5-5.5Z"/></svg>