<?xml version="1.0" encoding="utf-8"?>
<!-- Generator: Adobe Illustrator 24.3.0, SVG Export Plug-In . SVG Version: 6.00 Build 0)  -->
<svg version="1.0" id="Layer_1" xmlns="http://www.w3.org/2000/svg" xmlns:xlink="http://www.w3.org/1999/xlink" x="0px" y="0px"
	 viewBox="0 0 1913.5 825.5" style="enable-background:new 0 0 1913.5 825.5;" xml:space="preserve">
<style type="text/css">
	.st0{fill:#00E5FF;}
	.st1{fill:#FFFFFF;stroke:#FFFFFF;stroke-width:4;stroke-miterlimit:10;}
	.st2{fill:#00E5FF;stroke:#00E5FF;stroke-width:4;stroke-miterlimit:10;}
	.st3{fill:#FF003D;stroke:#FF003D;stroke-width:3;stroke-miterlimit:10;}
</style>
<g>
	<ellipse class="st0" cx="-0.7" cy="0.8" rx="5.9" ry="7.1"/>
	<ellipse class="st0" cx="159.4" cy="0.8" rx="5.9" ry="7.1"/>
	<ellipse class="st0" cx="319.4" cy="0.8" rx="5.9" ry="7.1"/>
	<ellipse class="st0" cx="479.5" cy="0.8" rx="5.9" ry="7.1"/>
	<ellipse class="st0" cx="636.6" cy="0.8" rx="5.9" ry="7.1"/>
	<ellipse class="st0" cx="795.8" cy="0.8" rx="5.9" ry="7.1"/>
	<ellipse class="st0" cx="955" cy="0.8" rx="5.9" ry="7.1"/>
	<ellipse class="st0" cx="1114.2" cy="0.8" rx="5.9" ry="7.1"/>
	<ellipse class="st0" cx="1273.4" cy="0.8" rx="5.9" ry="7.1"/>
	<ellipse class="st0" cx="1432.6" cy="0.8" rx="5.9" ry="7.1"/>
	<ellipse class="st0" cx="1591.8" cy="0.8" rx="5.9" ry="7.1"/>
	<ellipse class="st0" cx="1750.9" cy="0.8" rx="5.9" ry="7.1"/>
	<ellipse class="st0" cx="1910.1" cy="0.8" rx="5.9" ry="7.1"/>
</g>
<g>
	<ellipse class="st0" cx="-0.7" cy="275.4" rx="5.9" ry="7.1"/>
	<ellipse class="st0" cx="159.4" cy="275.4" rx="5.9" ry="7.1"/>
	<ellipse class="st0" cx="319.4" cy="275.4" rx="5.9" ry="7.1"/>
	<ellipse class="st0" cx="479.5" cy="275.4" rx="5.9" ry="7.1"/>
	<ellipse class="st0" cx="636.6" cy="275.4" rx="5.9" ry="7.1"/>
	<ellipse class="st0" cx="795.8" cy="275.4" rx="5.9" ry="7.1"/>
	<ellipse class="st0" cx="955" cy="275.4" rx="5.9" ry="7.1"/>
	<ellipse class="st0" cx="1114.2" cy="275.4" rx="5.9" ry="7.1"/>
	<ellipse class="st0" cx="1273.4" cy="275.4" rx="5.9" ry="7.1"/>
	<ellipse class="st0" cx="1432.6" cy="275.4" rx="5.9" ry="7.1"/>
	<ellipse class="st0" cx="1591.8" cy="275.4" rx="5.9" ry="7.1"/>
	<ellipse class="st0" cx="1750.9" cy="275.4" rx="5.9" ry="7.1"/>
	<ellipse class="st0" cx="1910.1" cy="275.4" rx="5.9" ry="7.1"/>
</g>
<g>
	<ellipse class="st0" cx="-0.7" cy="550" rx="5.9" ry="7.1"/>
	<ellipse class="st0" cx="159.4" cy="550" rx="5.9" ry="7.1"/>
	<ellipse class="st0" cx="319.4" cy="550" rx="5.9" ry="7.1"/>
	<ellipse class="st0" cx="479.5" cy="550" rx="5.9" ry="7.1"/>
	<ellipse class="st0" cx="636.6" cy="550" rx="5.9" ry="7.1"/>
	<ellipse class="st0" cx="795.8" cy="550" rx="5.9" ry="7.1"/>
	<ellipse class="st0" cx="955" cy="550" rx="5.9" ry="7.1"/>
	<ellipse class="st0" cx="1114.2" cy="550" rx="5.9" ry="7.1"/>
	<ellipse class="st0" cx="1273.4" cy="550" rx="5.9" ry="7.1"/>
	<ellipse class="st0" cx="1432.6" cy="550" rx="5.9" ry="7.1"/>
	<ellipse class="st0" cx="1591.8" cy="550" rx="5.9" ry="7.1"/>
	<ellipse class="st0" cx="1750.9" cy="550" rx="5.9" ry="7.1"/>
	<ellipse class="st0" cx="1910.1" cy="550" rx="5.9" ry="7.1"/>
</g>
<g>
	<ellipse class="st0" cx="-76.5" cy="689.3" rx="5.9" ry="7.1"/>
	<ellipse class="st0" cx="83.5" cy="689.3" rx="5.9" ry="7.1"/>
	<ellipse class="st0" cx="243.6" cy="689.3" rx="5.9" ry="7.1"/>
	<ellipse class="st0" cx="403.7" cy="689.3" rx="5.9" ry="7.1"/>
	<ellipse class="st0" cx="560.8" cy="689.3" rx="5.9" ry="7.1"/>
	<ellipse class="st0" cx="720" cy="689.3" rx="5.9" ry="7.1"/>
	<ellipse class="st0" cx="879.2" cy="689.3" rx="5.9" ry="7.1"/>
	<ellipse class="st0" cx="1038.4" cy="689.3" rx="5.9" ry="7.1"/>
	<ellipse class="st0" cx="1197.6" cy="689.3" rx="5.9" ry="7.1"/>
	<ellipse class="st0" cx="1356.7" cy="689.3" rx="5.9" ry="7.1"/>
	<ellipse class="st0" cx="1515.9" cy="689.3" rx="5.9" ry="7.1"/>
	<ellipse class="st0" cx="1675.1" cy="689.3" rx="5.9" ry="7.1"/>
	<ellipse class="st0" cx="1834.3" cy="689.3" rx="5.9" ry="7.1"/>
</g>
<g>
	<ellipse class="st0" cx="-76.5" cy="415.5" rx="5.9" ry="7.1"/>
	<ellipse class="st0" cx="83.5" cy="415.5" rx="5.9" ry="7.1"/>
	<ellipse class="st0" cx="243.6" cy="415.5" rx="5.9" ry="7.1"/>
	<ellipse class="st0" cx="403.7" cy="415.5" rx="5.9" ry="7.1"/>
	<ellipse class="st0" cx="560.8" cy="415.5" rx="5.9" ry="7.1"/>
	<ellipse class="st0" cx="720" cy="415.5" rx="5.9" ry="7.1"/>
	<ellipse class="st0" cx="879.2" cy="415.5" rx="5.9" ry="7.1"/>
	<ellipse class="st0" cx="1038.4" cy="415.5" rx="5.9" ry="7.1"/>
	<ellipse class="st0" cx="1197.6" cy="415.5" rx="5.9" ry="7.1"/>
	<ellipse class="st0" cx="1356.7" cy="415.5" rx="5.9" ry="7.1"/>
	<ellipse class="st0" cx="1515.9" cy="415.5" rx="5.9" ry="7.1"/>
	<ellipse class="st0" cx="1675.1" cy="415.5" rx="5.9" ry="7.1"/>
	<ellipse class="st0" cx="1834.3" cy="415.5" rx="5.9" ry="7.1"/>
</g>
<g>
	<ellipse class="st0" cx="-76.5" cy="141.7" rx="5.9" ry="7.1"/>
	<ellipse class="st0" cx="83.5" cy="141.7" rx="5.9" ry="7.1"/>
	<ellipse class="st0" cx="243.6" cy="141.7" rx="5.9" ry="7.1"/>
	<ellipse class="st0" cx="403.7" cy="141.7" rx="5.9" ry="7.1"/>
	<ellipse class="st0" cx="560.8" cy="141.7" rx="5.9" ry="7.1"/>
	<ellipse class="st0" cx="720" cy="141.7" rx="5.9" ry="7.1"/>
	<ellipse class="st0" cx="879.2" cy="141.7" rx="5.9" ry="7.1"/>
	<ellipse class="st0" cx="1038.4" cy="141.7" rx="5.9" ry="7.1"/>
	<ellipse class="st0" cx="1197.6" cy="141.7" rx="5.9" ry="7.1"/>
	<ellipse class="st0" cx="1356.7" cy="141.7" rx="5.9" ry="7.1"/>
	<ellipse class="st0" cx="1515.9" cy="141.7" rx="5.9" ry="7.1"/>
	<ellipse class="st0" cx="1675.1" cy="141.7" rx="5.9" ry="7.1"/>
	<ellipse class="st0" cx="1834.3" cy="141.7" rx="5.9" ry="7.1"/>
</g>
<g id="White">
	<path class="st1" d="M84.9,128.5V47.8l69.6-39.9v80.6L84.9,128.5 M157.9,1.9L81.4,45.8v88.7L158,90.6V1.9"/>
	<path class="st1" d="M244.3,128.5V47.8l69.6-39.9v80.6L244.3,128.5 M317.4,1.9l-76.6,43.9v88.7l76.6-43.9V1.9"/>
	<path class="st1" d="M403.8,128.5V47.8l69.6-39.9v80.6L403.8,128.5 M476.9,1.9l-76.6,43.9v88.7l76.6-43.9V1.9"/>
	<path class="st1" d="M563.2,128.5V47.8l69.6-39.9v80.6L563.2,128.5 M636.3,1.9l-76.5,43.9v88.7l76.6-43.9L636.3,1.9"/>
	<path class="st1" d="M722.7,128.5V47.8l69.6-39.9v80.6L722.7,128.5 M795.8,1.9l-76.6,43.9v88.7l76.6-43.9V1.9"/>
	<path class="st1" d="M882.2,128.5V47.8l69.6-39.9v80.6L882.2,128.5 M955.3,1.9l-76.6,43.9v88.7l76.6-43.9V1.9"/>
	<path class="st1" d="M1041.6,128.5V47.8l69.6-39.9v80.6L1041.6,128.5 M1114.7,1.9l-76.6,43.9v88.7l76.6-43.9V1.9"/>
	<path class="st1" d="M1201.1,128.5V47.8l69.6-39.9v80.6L1201.1,128.5 M1274.2,1.9l-76.6,43.9v88.7l76.6-43.9V1.9"/>
	<path class="st1" d="M1360.6,128.5V47.8l69.6-39.9v80.6L1360.6,128.5 M1433.6,1.9L1357,45.8v88.7l76.6-43.9V1.9"/>
	<path class="st1" d="M1520,128.5V47.8l69.6-39.9v80.6L1520,128.5 M1593.1,1.9l-76.6,43.9v88.7l76.6-43.9V1.9"/>
	<path class="st1" d="M1679.5,128.5V47.8l69.6-39.9v80.6L1679.5,128.5 M1752.6,1.9L1676,45.8v88.7l76.6-43.9V1.9"/>
	<path class="st1" d="M1838.9,128.5V47.8l69.6-39.9v80.6L1838.9,128.5 M1912,1.9l-76.6,43.9v88.7l76.6-43.9V1.9"/>
	<path class="st1" d="M84.9,404.4v-80.6l69.6-39.9v80.6L84.9,404.4 M157.9,277.9l-76.6,43.9v88.7l76.6-43.9V277.9"/>
	<path class="st1" d="M244.3,404.4v-80.6l69.6-39.9v80.6L244.3,404.4 M317.4,277.9l-76.6,43.9v88.7l76.6-43.9V277.9"/>
	<path class="st1" d="M403.8,404.4v-80.6l69.6-39.9v80.6L403.8,404.4 M476.9,277.9l-76.6,43.9v88.7l76.6-43.9V277.9"/>
	<path class="st1" d="M563.2,404.4v-80.6l69.6-39.9v80.6L563.2,404.4 M636.3,277.9l-76.5,43.9v88.7l76.6-43.9L636.3,277.9"/>
	<path class="st1" d="M722.7,404.4v-80.6l69.6-39.9v80.6L722.7,404.4 M795.8,277.9l-76.6,43.9v88.7l76.6-43.9V277.9"/>
	<path class="st1" d="M882.2,404.4v-80.6l69.6-39.9v80.6L882.2,404.4 M955.3,277.9l-76.6,43.9v88.7l76.6-43.9V277.9"/>
	<path class="st1" d="M1041.6,404.4v-80.6l69.6-39.9v80.6L1041.6,404.4 M1114.7,277.9l-76.6,43.9v88.7l76.6-43.9V277.9"/>
	<path class="st1" d="M1201.1,404.4v-80.6l69.6-39.9v80.6L1201.1,404.4 M1274.2,277.9l-76.6,43.9v88.7l76.6-43.9V277.9"/>
	<path class="st1" d="M1360.6,404.4v-80.6l69.6-39.9v80.6L1360.6,404.4 M1433.6,277.9l-76.6,43.9v88.7l76.6-43.9V277.9"/>
	<path class="st1" d="M1520,404.4v-80.6l69.6-39.9v80.6L1520,404.4 M1593.1,277.9l-76.6,43.9v88.7l76.6-43.9V277.9"/>
	<path class="st1" d="M1679.5,404.4v-80.6l69.6-39.9v80.6L1679.5,404.4 M1752.6,277.9l-76.6,43.9v88.7l76.6-43.9V277.9"/>
	<path class="st1" d="M1838.9,404.4v-80.6l69.6-39.9v80.6L1838.9,404.4 M1912,277.9l-76.6,43.9v88.7l76.6-43.9V277.9"/>
	<path class="st1" d="M84.9,680.4v-80.6l69.6-39.9v80.6L84.9,680.4 M157.9,553.9l-76.6,43.9v88.7l76.6-43.9V553.9"/>
	<path class="st1" d="M244.3,680.4v-80.6l69.6-39.9v80.6L244.3,680.4 M317.4,553.9l-76.6,43.9v88.7l76.6-43.9V553.9"/>
	<path class="st1" d="M403.8,680.4v-80.6l69.6-39.9v80.6L403.8,680.4 M476.9,553.9l-76.6,43.9v88.7l76.6-43.9V553.9"/>
	<path class="st1" d="M563.2,680.4v-80.6l69.6-39.9v80.6L563.2,680.4 M636.3,553.9l-76.5,43.9v88.7l76.6-43.9L636.3,553.9"/>
	<path class="st1" d="M722.7,680.4v-80.6l69.6-39.9v80.6L722.7,680.4 M795.8,553.9l-76.6,43.9v88.7l76.6-43.9V553.9"/>
	<path class="st1" d="M882.2,680.4v-80.6l69.6-39.9v80.6L882.2,680.4 M955.3,553.9l-76.6,43.9v88.7l76.6-43.9V553.9"/>
	<path class="st1" d="M1041.6,680.4v-80.6l69.6-39.9v80.6L1041.6,680.4 M1114.7,553.9l-76.6,43.9v88.7l76.6-43.9V553.9"/>
	<path class="st1" d="M1201.1,680.4v-80.6l69.6-39.9v80.6L1201.1,680.4 M1274.2,553.9l-76.6,43.9v88.7l76.6-43.9V553.9"/>
	<path class="st1" d="M1360.6,680.4v-80.6l69.6-39.9v80.6L1360.6,680.4 M1433.6,553.9l-76.6,43.9v88.7l76.6-43.9V553.9"/>
	<path class="st1" d="M1520,680.4v-80.6l69.6-39.9v80.6L1520,680.4 M1593.1,553.9l-76.6,43.9v88.7l76.6-43.9V553.9"/>
	<path class="st1" d="M1679.5,680.4v-80.6l69.6-39.9v80.6L1679.5,680.4 M1752.6,553.9l-76.6,43.9v88.7l76.6-43.9V553.9"/>
	<path class="st1" d="M1838.9,680.4v-80.6l69.6-39.9v80.6L1838.9,680.4 M1912,553.9l-76.6,43.9v88.7l76.6-43.9V553.9"/>
	<path class="st1" d="M4.9,266.9v-80.6l69.6-39.9V227L4.9,266.9 M77.9,140.3L1.4,184.2v88.7L78,229L77.9,140.3"/>
	<path class="st1" d="M164.3,266.9v-80.6l69.6-39.9V227L164.3,266.9 M237.4,140.3l-76.6,43.9v88.7l76.6-43.9V140.3"/>
	<path class="st1" d="M323.8,266.9v-80.6l69.6-39.9V227L323.8,266.9 M396.9,140.3l-76.6,43.9v88.7l76.6-43.9V140.3"/>
	<path class="st1" d="M483.3,266.9v-80.6l69.6-39.9V227L483.3,266.9 M556.3,140.3l-76.5,43.9v88.7l76.6-43.9L556.3,140.3"/>
	<path class="st1" d="M642.7,266.9v-80.6l69.6-39.9V227L642.7,266.9 M715.8,140.3l-76.6,43.9v88.7l76.6-43.9V140.3"/>
	<path class="st1" d="M802.2,266.9v-80.6l69.6-39.9V227L802.2,266.9 M875.3,140.3l-76.6,43.9v88.7l76.6-43.9V140.3"/>
	<path class="st1" d="M961.6,266.9v-80.6l69.6-39.9V227L961.6,266.9 M1034.7,140.3l-76.6,43.9v88.7l76.6-43.9V140.3"/>
	<path class="st1" d="M1121.1,266.9v-80.6l69.6-39.9V227L1121.1,266.9 M1194.2,140.3l-76.6,43.9v88.7l76.6-43.9V140.3"/>
	<path class="st1" d="M1280.6,266.9v-80.6l69.6-39.9V227L1280.6,266.9 M1353.6,140.3l-76.6,43.9v88.7l76.6-43.9V140.3"/>
	<path class="st1" d="M1440,266.9v-80.6l69.6-39.9V227L1440,266.9 M1513.1,140.3l-76.6,43.9v88.7l76.6-43.9V140.3"/>
	<path class="st1" d="M1599.5,266.9v-80.6l69.6-39.9V227L1599.5,266.9 M1672.6,140.3l-76.6,43.9v88.7l76.6-43.9V140.3"/>
	<path class="st1" d="M1758.9,266.9v-80.6l69.6-39.9V227L1758.9,266.9 M1832,140.3l-76.6,43.9v88.7L1832,229V140.3"/>
	<path class="st1" d="M4.9,542.9v-80.6l69.6-39.9V503L4.9,542.9 M77.9,416.3L1.4,460.2v88.7L78,505L77.9,416.3"/>
	<path class="st1" d="M164.3,542.9v-80.6l69.6-39.9V503L164.3,542.9 M237.4,416.3l-76.6,43.9v88.7l76.6-43.9V416.3"/>
	<path class="st1" d="M323.8,542.9v-80.6l69.6-39.9V503L323.8,542.9 M396.9,416.3l-76.6,43.9v88.7l76.6-43.9V416.3"/>
	<path class="st1" d="M483.3,542.9v-80.6l69.5-39.9V503L483.3,542.9 M556.3,416.3l-76.5,43.9v88.7l76.6-43.9L556.3,416.3"/>
	<path class="st1" d="M642.7,542.9v-80.6l69.6-39.9V503L642.7,542.9 M715.8,416.3l-76.6,43.9v88.7l76.6-43.9V416.3"/>
	<path class="st1" d="M802.2,542.9v-80.6l69.6-39.9V503L802.2,542.9 M875.3,416.3l-76.6,43.9v88.7l76.6-43.9V416.3"/>
	<path class="st1" d="M961.6,542.9v-80.6l69.6-39.9V503L961.6,542.9 M1034.7,416.3l-76.6,43.9v88.7l76.6-43.9V416.3"/>
	<path class="st1" d="M1121.1,542.9v-80.6l69.6-39.9V503L1121.1,542.9 M1194.2,416.3l-76.6,43.9v88.7l76.6-43.9V416.3"/>
	<path class="st1" d="M1280.6,542.9v-80.6l69.6-39.9V503L1280.6,542.9 M1353.6,416.3l-76.6,43.9v88.7l76.6-43.9V416.3"/>
	<path class="st1" d="M1440,542.9v-80.6l69.6-39.9V503L1440,542.9 M1513.1,416.3l-76.6,43.9v88.7l76.6-43.9V416.3"/>
	<path class="st1" d="M1599.5,542.9v-80.6l69.6-39.9V503L1599.5,542.9 M1672.6,416.3l-76.6,43.9v88.7l76.6-43.9V416.3"/>
	<path class="st1" d="M1758.9,542.9v-80.6l69.6-39.9V503L1758.9,542.9 M1832,416.3l-76.6,43.9v88.7L1832,505V416.3"/>
	<path class="st1" d="M4.9,818.9v-80.6l69.6-39.9V779L4.9,818.9 M77.9,692.3L1.4,736.2v88.7L78,781L77.9,692.3"/>
	<path class="st1" d="M164.3,818.9v-80.6l69.6-39.9V779L164.3,818.9 M237.4,692.3l-76.6,43.9v88.7l76.6-43.9V692.3"/>
	<path class="st1" d="M323.8,818.9v-80.6l69.6-39.9V779L323.8,818.9 M396.9,692.3l-76.6,43.9v88.7l76.6-43.9V692.3"/>
	<path class="st1" d="M483.3,818.9v-80.6l69.6-39.9V779L483.3,818.9 M556.3,692.3l-76.5,43.9v88.7l76.6-43.9L556.3,692.3"/>
	<path class="st1" d="M642.7,818.9v-80.6l69.6-39.9V779L642.7,818.9 M715.8,692.3l-76.6,43.9v88.7l76.6-43.9V692.3"/>
	<path class="st1" d="M802.2,818.9v-80.6l69.6-39.9V779L802.2,818.9 M875.3,692.3l-76.6,43.9v88.7l76.6-43.9V692.3"/>
	<path class="st1" d="M961.6,818.9v-80.6l69.6-39.9V779L961.6,818.9 M1034.7,692.3l-76.6,43.9v88.7l76.6-43.9V692.3"/>
	<path class="st1" d="M1121.1,818.9v-80.6l69.6-39.9V779L1121.1,818.9 M1194.2,692.3l-76.6,43.9v88.7l76.6-43.9V692.3"/>
	<path class="st1" d="M1280.6,818.9v-80.6l69.6-39.9V779L1280.6,818.9 M1353.6,692.3l-76.6,43.9v88.7l76.6-43.9V692.3"/>
	<path class="st1" d="M1440,818.9v-80.6l69.6-39.9V779L1440,818.9 M1513.1,692.3l-76.6,43.9v88.7l76.6-43.9V692.3"/>
	<path class="st1" d="M1599.5,818.9v-80.6l69.6-39.9V779L1599.5,818.9 M1672.6,692.3l-76.6,43.9v88.7l76.6-43.9V692.3"/>
	<path class="st1" d="M1758.9,818.9v-80.6l69.6-39.9V779L1758.9,818.9 M1832,692.3l-76.6,43.9v88.7L1832,781V692.3"/>
</g>
<g id="Blue">
	<path class="st2" d="M74.7,128.5l-69.6-40V7.9l69.6,39.9V128.5 M1.6,1.9v88.7l76.6,43.9V45.8L1.6,1.9"/>
	<path class="st2" d="M234.2,128.5l-69.6-39.9V7.9l69.6,39.9L234.2,128.5 M161.1,1.9v88.7l76.6,43.9V45.8L161.1,1.9"/>
	<path class="st2" d="M393.7,128.5l-69.6-39.9V7.9l69.6,39.9V128.5 M320.6,1.9v88.7l76.6,43.9V45.8L320.6,1.9"/>
	<path class="st2" d="M553.1,128.5l-69.6-39.9V7.9l69.6,39.9V128.5 M480,1.9v88.7l76.6,43.9V45.8L480,1.9"/>
	<path class="st2" d="M712.6,128.5L643,88.6V7.9l69.6,39.9V128.5 M639.5,1.9v88.7l76.6,43.9V45.8L639.5,1.9"/>
	<path class="st2" d="M872,128.5l-69.6-39.9V7.9L872,47.8V128.5 M799,1.9v88.7l76.6,43.9V45.8L799,1.9"/>
	<path class="st2" d="M1031.5,128.5l-69.6-39.9V7.9l69.6,39.9V128.5 M958.4,1.9v88.7l76.6,43.9V45.8L958.4,1.9"/>
	<path class="st2" d="M1191,128.5l-69.6-39.9V7.9l69.6,39.9V128.5 M1117.9,1.9v88.7l76.6,43.9V45.8L1117.9,1.9"/>
	<path class="st2" d="M1350.4,128.5l-69.6-40V7.9l69.6,39.9V128.5 M1277.4,1.9v88.7l76.6,43.9V45.8L1277.4,1.9"/>
	<path class="st2" d="M1509.9,128.5l-69.6-39.9V7.9l69.6,39.9V128.5 M1436.8,1.9v88.7l76.6,43.9V45.8L1436.8,1.9"/>
	<path class="st2" d="M1669.4,128.5l-69.6-40V7.9l69.6,39.9V128.5 M1596.3,1.9v88.7l76.6,43.9V45.8L1596.3,1.9"/>
	<path class="st2" d="M1828.8,128.5l-69.6-39.9V7.9l69.6,39.9V128.5 M1755.7,1.9v88.7l76.6,43.9V45.8L1755.7,1.9"/>
	<path class="st2" d="M74.7,404.4L5.1,364.5v-80.6l69.6,39.9V404.4 M1.6,277.9v88.7l76.6,43.9v-88.7L1.6,277.9"/>
	<path class="st2" d="M234.2,404.4l-69.6-39.9v-80.6l69.6,39.9L234.2,404.4 M161.1,277.9v88.7l76.6,43.9v-88.7L161.1,277.9"/>
	<path class="st2" d="M393.7,404.4l-69.6-39.9v-80.6l69.6,39.9V404.4 M320.6,277.9v88.7l76.6,43.9v-88.7L320.6,277.9"/>
	<path class="st2" d="M553.1,404.4l-69.6-39.9v-80.6l69.6,39.9V404.4 M480,277.9v88.7l76.6,43.9v-88.7L480,277.9"/>
	<path class="st2" d="M712.6,404.4L643,364.5v-80.6l69.6,39.9V404.4 M639.5,277.9v88.7l76.6,43.9v-88.7L639.5,277.9"/>
	<path class="st2" d="M872,404.4l-69.6-39.9v-80.6l69.6,39.9V404.4 M799,277.9v88.7l76.6,43.9v-88.7L799,277.9"/>
	<path class="st2" d="M1031.5,404.4l-69.6-39.9v-80.6l69.6,39.9V404.4 M958.4,277.9v88.7l76.6,43.9v-88.7L958.4,277.9"/>
	<path class="st2" d="M1191,404.4l-69.6-39.9v-80.6l69.6,39.9V404.4 M1117.9,277.9v88.7l76.6,43.9v-88.7L1117.9,277.9"/>
	<path class="st2" d="M1350.4,404.4l-69.6-39.9v-80.6l69.6,39.9V404.4 M1277.4,277.9v88.7l76.6,43.9v-88.7L1277.4,277.9"/>
	<path class="st2" d="M1509.9,404.4l-69.6-39.9v-80.6l69.6,39.9V404.4 M1436.8,277.9v88.7l76.6,43.9v-88.7L1436.8,277.9"/>
	<path class="st2" d="M1669.4,404.4l-69.6-39.9v-80.6l69.6,39.9V404.4 M1596.3,277.9v88.7l76.6,43.9v-88.7L1596.3,277.9"/>
	<path class="st2" d="M1828.8,404.4l-69.6-39.9v-80.6l69.6,39.9V404.4 M1755.7,277.9v88.7l76.6,43.9v-88.7L1755.7,277.9"/>
	<path class="st2" d="M74.7,680.4L5.1,640.5v-80.6l69.6,39.9V680.4 M1.6,553.9v88.7l76.6,43.9v-88.7L1.6,553.9"/>
	<path class="st2" d="M234.2,680.4l-69.6-39.9v-80.6l69.6,39.9L234.2,680.4 M161.1,553.9v88.7l76.6,43.9v-88.7L161.1,553.9"/>
	<path class="st2" d="M393.7,680.4l-69.6-39.9v-80.6l69.6,39.9V680.4 M320.6,553.9v88.7l76.6,43.9v-88.7L320.6,553.9"/>
	<path class="st2" d="M553.1,680.4l-69.6-39.9v-80.6l69.6,39.9V680.4 M480,553.9v88.7l76.6,43.9v-88.7L480,553.9"/>
	<path class="st2" d="M712.6,680.4L643,640.5v-80.6l69.6,39.9V680.4 M639.5,553.9v88.7l76.6,43.9v-88.7L639.5,553.9"/>
	<path class="st2" d="M872,680.4l-69.6-39.9v-80.6l69.6,39.9V680.4 M799,553.9v88.7l76.6,43.9v-88.7L799,553.9"/>
	<path class="st2" d="M1031.5,680.4l-69.6-39.9v-80.6l69.6,39.9V680.4 M958.4,553.9v88.7l76.6,43.9v-88.7L958.4,553.9"/>
	<path class="st2" d="M1191,680.4l-69.6-39.9v-80.6l69.6,39.9V680.4 M1117.9,553.9v88.7l76.6,43.9v-88.7L1117.9,553.9"/>
	<path class="st2" d="M1350.4,680.4l-69.6-39.9v-80.6l69.6,39.9V680.4 M1277.4,553.9v88.7l76.6,43.9v-88.7L1277.4,553.9"/>
	<path class="st2" d="M1509.9,680.4l-69.6-39.9v-80.6l69.6,39.9V680.4 M1436.8,553.9v88.7l76.6,43.9v-88.7L1436.8,553.9"/>
	<path class="st2" d="M1669.4,680.4l-69.6-39.9v-80.6l69.6,39.9V680.4 M1596.3,553.9v88.7l76.6,43.9v-88.7L1596.3,553.9"/>
	<path class="st2" d="M1828.8,680.4l-69.6-39.9v-80.6l69.6,39.9V680.4 M1755.7,553.9v88.7l76.6,43.9v-88.7L1755.7,553.9"/>
	<path class="st2" d="M1908.6,266.1l-69.6-39.9v-80.6l69.6,39.9V266.1 M1835.5,139.5v88.7l76.6,43.9v-88.7L1835.5,139.5"/>
	<path class="st2" d="M153.9,266.1l-69.6-39.9v-80.6l69.6,39.9V266.1 M80.8,139.5v88.7l76.6,43.9v-88.7L80.8,139.5"/>
	<path class="st2" d="M313.3,266.1l-69.6-39.9v-80.6l69.6,39.9V266.1 M240.2,139.5v88.7l76.6,43.9v-88.7L240.2,139.5"/>
	<path class="st2" d="M472.8,266.1l-69.6-39.9v-80.6l69.6,39.8V266.1 M399.7,139.5v88.7l76.6,43.9v-88.7L399.7,139.5"/>
	<path class="st2" d="M632.2,266.1l-69.6-39.9v-80.6l69.6,39.9V266.1 M559.2,139.5v88.7l76.6,43.9v-88.7L559.2,139.5"/>
	<path class="st2" d="M791.7,266.1l-69.6-39.9v-80.6l69.6,39.9V266.1 M718.6,139.5v88.7l76.6,43.9v-88.7L718.6,139.5"/>
	<path class="st2" d="M951.2,266.1l-69.6-39.9v-80.6l69.6,39.9V266.1 M878.1,139.5v88.7l76.6,43.9v-88.7L878.1,139.5"/>
	<path class="st2" d="M1110.6,266.1l-69.6-39.9v-80.6l69.6,39.9V266.1 M1037.6,139.5v88.7l76.6,43.9v-88.7L1037.6,139.5"/>
	<path class="st2" d="M1270.1,266.1l-69.6-39.9v-80.6l69.6,39.9V266.1 M1197,139.5v88.7l76.6,43.9v-88.7L1197,139.5"/>
	<path class="st2" d="M1429.6,266.1l-69.6-39.9v-80.6l69.6,39.9V266.1 M1356.5,139.5v88.7l76.6,43.9v-88.7L1356.5,139.5"/>
	<path class="st2" d="M1589,266.1l-69.6-39.9v-80.6l69.6,39.9V266.1 M1515.9,139.5v88.7l76.6,43.9v-88.7L1515.9,139.5"/>
	<path class="st2" d="M1748.5,266.1l-69.6-39.9v-80.6l69.6,39.9V266.1 M1675.4,139.5v88.7l76.6,43.9v-88.7L1675.4,139.5"/>
	<path class="st2" d="M1908.6,542.1l-69.6-39.9v-80.6l69.6,39.9V542.1 M1835.5,415.5v88.7l76.6,43.9v-88.7L1835.5,415.5"/>
	<path class="st2" d="M153.9,542.1l-69.6-39.9v-80.6l69.6,39.9V542.1 M80.8,415.5v88.7l76.6,43.9v-88.7L80.8,415.5"/>
	<path class="st2" d="M313.3,542.1l-69.6-39.9v-80.6l69.6,39.9V542.1 M240.2,415.5v88.7l76.6,43.9v-88.7L240.2,415.5"/>
	<path class="st2" d="M472.8,542.1l-69.6-39.9v-80.6l69.6,39.8V542.1 M399.7,415.5v88.7l76.6,43.9v-88.7L399.7,415.5"/>
	<path class="st2" d="M632.2,542.1l-69.6-39.9v-80.6l69.6,39.9V542.1 M559.2,415.5v88.7l76.6,43.9v-88.7L559.2,415.5"/>
	<path class="st2" d="M791.7,542.1l-69.6-39.9v-80.6l69.6,39.9V542.1 M718.6,415.5v88.7l76.6,43.9v-88.7L718.6,415.5"/>
	<path class="st2" d="M951.2,542.1l-69.6-39.9v-80.6l69.6,39.9V542.1 M878.1,415.5v88.7l76.6,43.9v-88.7L878.1,415.5"/>
	<path class="st2" d="M1110.6,542.1l-69.6-39.9v-80.6l69.6,39.9V542.1 M1037.6,415.5v88.7l76.6,43.9v-88.7L1037.6,415.5"/>
	<path class="st2" d="M1270.1,542.1l-69.6-39.9v-80.6l69.6,39.9V542.1 M1197,415.5v88.7l76.6,43.9v-88.7L1197,415.5"/>
	<path class="st2" d="M1429.6,542.1l-69.6-39.9v-80.6l69.6,39.9V542.1 M1356.5,415.5v88.7l76.6,43.9v-88.7L1356.5,415.5"/>
	<path class="st2" d="M1589,542.1l-69.6-39.9v-80.6l69.6,39.9V542.1 M1515.9,415.5v88.7l76.6,43.9v-88.7L1515.9,415.5"/>
	<path class="st2" d="M1748.5,542.1l-69.6-39.9v-80.6l69.6,39.9V542.1 M1675.4,415.5v88.7l76.6,43.9v-88.7L1675.4,415.5"/>
	<path class="st2" d="M1908.6,818.1l-69.6-39.9v-80.6l69.6,39.9V818.1 M1835.5,691.5v88.7l76.6,43.9v-88.7L1835.5,691.5"/>
	<path class="st2" d="M153.9,818.1l-69.6-39.9v-80.6l69.6,39.9V818.1 M80.8,691.5v88.7l76.6,43.9v-88.7L80.8,691.5"/>
	<path class="st2" d="M313.3,818.1l-69.6-39.9v-80.6l69.6,39.9V818.1 M240.2,691.5v88.7l76.6,43.9v-88.7L240.2,691.5"/>
	<path class="st2" d="M472.8,818.1l-69.6-39.9v-80.6l69.6,39.8V818.1 M399.7,691.5v88.7l76.6,43.9v-88.7L399.7,691.5"/>
	<path class="st2" d="M632.2,818.1l-69.6-39.9v-80.6l69.6,39.9V818.1 M559.2,691.5v88.7l76.6,43.9v-88.7L559.2,691.5"/>
	<path class="st2" d="M791.7,818.1l-69.6-39.9v-80.6l69.6,39.9V818.1 M718.6,691.5v88.7l76.6,43.9v-88.7L718.6,691.5"/>
	<path class="st2" d="M951.2,818.1l-69.6-39.9v-80.6l69.6,39.9V818.1 M878.1,691.5v88.7l76.6,43.9v-88.7L878.1,691.5"/>
	<path class="st2" d="M1110.6,818.1l-69.6-39.9v-80.6l69.6,39.9V818.1 M1037.6,691.5v88.7l76.6,43.9v-88.7L1037.6,691.5"/>
	<path class="st2" d="M1270.1,818.1l-69.6-39.9v-80.6l69.6,39.9V818.1 M1197,691.5v88.7l76.6,43.9v-88.7L1197,691.5"/>
	<path class="st2" d="M1429.6,818.1l-69.6-39.9v-80.6l69.6,39.9V818.1 M1356.5,691.5v88.7l76.6,43.9v-88.7L1356.5,691.5"/>
	<path class="st2" d="M1589,818.1l-69.6-39.9v-80.6l69.6,39.9V818.1 M1515.9,691.5v88.7l76.6,43.9v-88.7L1515.9,691.5"/>
	<path class="st2" d="M1748.5,818.1l-69.6-39.9v-80.6l69.6,39.9V818.1 M1675.4,691.5v88.7l76.6,43.9v-88.7L1675.4,691.5"/>
</g>
<g id="Red">
	<path class="st3" d="M-69.8,137.3L-0.4,97l69.8,40.3L0,177.6L-69.8,137.3 M76.4,137.3L-0.5,92.9l-76.3,44.4L0,181.7L76.4,137.3"/>
	<path class="st3" d="M89.7,137.3L159.1,97l69.8,40.3l-69.4,40.3L89.7,137.3 M235.8,137.3L159,92.9l-76.3,44.4l76.8,44.4
		L235.8,137.3"/>
	<path class="st3" d="M249.1,137.3L318.5,97l69.8,40.3l-69.4,40.3L249.1,137.3 M395.3,137.3l-76.8-44.4l-76.3,44.4l76.8,44.4
		L395.3,137.3"/>
	<path class="st3" d="M408.6,137.3L478,97l69.8,40.3l-69.4,40.3L408.6,137.3 M554.7,137.3l-76.8-44.4l-76.3,44.4l76.8,44.4
		L554.7,137.3"/>
	<path class="st3" d="M568,137.3L637.4,97l69.8,40.3l-69.4,40.3L568,137.3 M714.2,137.3l-76.8-44.4l-76.3,44.4l76.8,44.4
		L714.2,137.3"/>
	<path class="st3" d="M727.5,137.3L796.9,97l69.8,40.3l-69.4,40.3L727.5,137.3 M873.7,137.3l-76.8-44.4l-76.3,44.4l76.8,44.4
		L873.7,137.3"/>
	<path class="st3" d="M887,137.3L956.4,97l69.8,40.3l-69.4,40.3L887,137.3 M1033.1,137.3l-76.8-44.4L880,137.3l76.8,44.4
		L1033.1,137.3"/>
	<path class="st3" d="M1046.4,137.3l69.4-40.3l69.8,40.3l-69.4,40.3L1046.4,137.3 M1192.6,137.3l-76.8-44.4l-76.3,44.4l76.8,44.4
		L1192.6,137.3"/>
	<path class="st3" d="M1205.9,137.3l69.4-40.3l69.8,40.3l-69.4,40.3L1205.9,137.3 M1352.1,137.3l-76.8-44.4l-76.3,44.4l76.8,44.4
		L1352.1,137.3"/>
	<path class="st3" d="M1365.4,137.3l69.4-40.3l69.8,40.3l-69.4,40.3L1365.4,137.3 M1511.5,137.3l-76.8-44.4l-76.3,44.4l76.8,44.4
		L1511.5,137.3"/>
	<path class="st3" d="M1524.8,137.3l69.4-40.3l69.8,40.3l-69.4,40.3L1524.8,137.3 M1671,137.3l-76.8-44.4l-76.3,44.4l76.8,44.4
		L1671,137.3"/>
	<path class="st3" d="M1684.3,137.3l69.4-40.3l69.8,40.3l-69.4,40.3L1684.3,137.3 M1830.4,137.3l-76.8-44.4l-76.3,44.4l76.8,44.4
		L1830.4,137.3"/>
	<path class="st3" d="M1843.7,137.3l69.4-40.3l69.8,40.3l-69.4,40.3L1843.7,137.3 M1989.9,137.3l-76.8-44.4l-76.3,44.4l76.8,44.4
		L1989.9,137.3"/>
	<path class="st3" d="M-69.8,413.3L-0.4,373l69.8,40.3L0,453.6L-69.8,413.3 M76.4,413.3L-0.4,369l-76.3,44.3l76.8,44.3L76.4,413.3"
		/>
	<path class="st3" d="M89.7,413.3l69.4-40.3l69.8,40.3l-69.4,40.3L89.7,413.3 M235.8,413.3L159,369l-76.3,44.3l76.8,44.3
		L235.8,413.3"/>
	<path class="st3" d="M249.1,413.3l69.4-40.3l69.8,40.3l-69.4,40.3L249.1,413.3 M395.3,413.3L318.5,369l-76.3,44.3l76.8,44.3
		L395.3,413.3"/>
	<path class="st3" d="M408.6,413.3L478,373l69.8,40.3l-69.4,40.3L408.6,413.3 M554.7,413.3L477.9,369l-76.3,44.3l76.8,44.3
		L554.7,413.3"/>
	<path class="st3" d="M568,413.3l69.4-40.3l69.8,40.3l-69.4,40.3L568,413.3 M714.2,413.3L637.4,369l-76.3,44.3l76.8,44.3
		L714.2,413.3"/>
	<path class="st3" d="M727.5,413.3l69.4-40.3l69.8,40.3l-69.4,40.3L727.5,413.3 M873.7,413.3L796.9,369l-76.3,44.3l76.8,44.3
		L873.7,413.3"/>
	<path class="st3" d="M887,413.3l69.4-40.3l69.8,40.3l-69.4,40.3L887,413.3 M1033.1,413.3L956.3,369L880,413.3l76.8,44.3
		L1033.1,413.3"/>
	<path class="st3" d="M1046.4,413.3l69.4-40.3l69.8,40.3l-69.4,40.3L1046.4,413.3 M1192.6,413.3l-76.8-44.3l-76.3,44.3l76.8,44.3
		L1192.6,413.3"/>
	<path class="st3" d="M1205.9,413.3l69.4-40.3l69.8,40.3l-69.4,40.3L1205.9,413.3 M1352.1,413.3l-76.8-44.3l-76.3,44.3l76.8,44.3
		L1352.1,413.3"/>
	<path class="st3" d="M1365.4,413.3l69.4-40.3l69.8,40.3l-69.4,40.3L1365.4,413.3 M1511.5,413.3l-76.8-44.3l-76.3,44.3l76.8,44.3
		L1511.5,413.3"/>
	<path class="st3" d="M1524.8,413.3l69.4-40.3l69.8,40.3l-69.4,40.3L1524.8,413.3 M1671,413.3l-76.8-44.3l-76.3,44.3l76.8,44.3
		L1671,413.3"/>
	<path class="st3" d="M1684.3,413.3l69.4-40.3l69.8,40.3l-69.4,40.3L1684.3,413.3 M1830.4,413.3l-76.8-44.3l-76.3,44.3l76.8,44.3
		L1830.4,413.3"/>
	<path class="st3" d="M1843.7,413.3l69.4-40.3l69.8,40.3l-69.4,40.3L1843.7,413.3 M1989.9,413.3l-76.8-44.3l-76.3,44.3l76.8,44.3
		L1989.9,413.3"/>
	<path class="st3" d="M-69.8,689.3L-0.4,649l69.8,40.3L0,729.6L-69.8,689.3 M76.4,689.3L-0.4,645l-76.3,44.3l76.8,44.3L76.4,689.3"
		/>
	<path class="st3" d="M89.7,689.3l69.4-40.3l69.8,40.3l-69.4,40.3L89.7,689.3 M235.8,689.3L159,645l-76.3,44.3l76.8,44.3
		L235.8,689.3"/>
	<path class="st3" d="M249.1,689.3l69.4-40.3l69.8,40.3l-69.4,40.3L249.1,689.3 M395.3,689.3L318.5,645l-76.3,44.3l76.8,44.3
		L395.3,689.3"/>
	<path class="st3" d="M408.6,689.3L478,649l69.8,40.3l-69.4,40.3L408.6,689.3 M554.7,689.3L477.9,645l-76.3,44.3l76.8,44.3
		L554.7,689.3"/>
	<path class="st3" d="M568,689.3l69.4-40.3l69.8,40.3l-69.4,40.3L568,689.3 M714.2,689.3L637.4,645l-76.3,44.3l76.8,44.3
		L714.2,689.3"/>
	<path class="st3" d="M727.5,689.3l69.4-40.3l69.8,40.3l-69.4,40.3L727.5,689.3 M873.7,689.3L796.9,645l-76.3,44.3l76.8,44.3
		L873.7,689.3"/>
	<path class="st3" d="M887,689.3l69.4-40.3l69.8,40.3l-69.4,40.3L887,689.3 M1033.1,689.3L956.3,645L880,689.3l76.8,44.3
		L1033.1,689.3"/>
	<path class="st3" d="M1046.4,689.3l69.4-40.3l69.8,40.3l-69.4,40.3L1046.4,689.3 M1192.6,689.3l-76.8-44.3l-76.3,44.3l76.8,44.3
		L1192.6,689.3"/>
	<path class="st3" d="M1205.9,689.3l69.4-40.3l69.8,40.3l-69.4,40.3L1205.9,689.3 M1352.1,689.3l-76.8-44.3l-76.3,44.3l76.8,44.3
		L1352.1,689.3"/>
	<path class="st3" d="M1365.4,689.3l69.4-40.3l69.8,40.3l-69.4,40.3L1365.4,689.3 M1511.5,689.3l-76.8-44.3l-76.3,44.3l76.8,44.3
		L1511.5,689.3"/>
	<path class="st3" d="M1524.8,689.3l69.4-40.3l69.8,40.3l-69.4,40.3L1524.8,689.3 M1671,689.3l-76.8-44.3l-76.3,44.3l76.8,44.3
		L1671,689.3"/>
	<path class="st3" d="M1684.3,689.3l69.4-40.3l69.8,40.3l-69.4,40.3L1684.3,689.3 M1830.4,689.3l-76.8-44.3l-76.3,44.3l76.8,44.3
		L1830.4,689.3"/>
	<path class="st3" d="M1843.7,689.3l69.4-40.3l69.8,40.3l-69.4,40.3L1843.7,689.3 M1989.9,689.3l-76.8-44.3l-76.3,44.3l76.8,44.3
		L1989.9,689.3"/>
	<path class="st3" d="M10-0.6l69.4,2l69.8-2L79.8,39.7L10-0.6 M156.2-0.6l-76.8-2l-76.3,2l76.8,44.3L156.2-0.6"/>
	<path class="st3" d="M169.5-0.6l69.3,2l69.8-2l-69.4,40.3L169.5-0.6 M315.6-0.6l-76.8-2l-76.3,2l76.8,44.3L315.6-0.6"/>
	<path class="st3" d="M328.9-0.6l69.4,2l69.8-2l-69.3,40.3L328.9-0.6 M475.1-0.6l-76.8-2l-76.3,2l76.8,44.3L475.1-0.6"/>
	<path class="st3" d="M488.4-0.6l69.4,2l69.8-2l-69.4,40.3L488.4-0.6 M634.6-0.6l-76.8-2l-76.3,2l76.8,44.3L634.6-0.6"/>
	<path class="st3" d="M647.8-0.6l69.4,2l69.8-2l-69.4,40.3L647.8-0.6 M794-0.6l-76.8-2l-76.3,2l76.8,44.3L794-0.6"/>
	<path class="st3" d="M807.3-0.6l69.4,2l69.8-2l-69.4,40.3L807.3-0.6 M953.5-0.6l-76.8-2l-76.3,2l76.8,44.3L953.5-0.6"/>
	<path class="st3" d="M966.8-0.6l69.4,2l69.8-2l-69.4,40.3L966.8-0.6 M1112.9-0.6l-76.8-2l-76.3,2l76.8,44.3L1112.9-0.6"/>
	<path class="st3" d="M1126.2-0.6l69.4,2l69.8-2L1196,39.7L1126.2-0.6 M1272.4-0.6l-76.8-2l-76.3,2l76.8,44.3L1272.4-0.6"/>
	<path class="st3" d="M1285.7-0.6l69.4,2l69.8-2l-69.4,40.3L1285.7-0.6 M1431.9-0.6l-76.8-2l-76.3,2l76.8,44.3L1431.9-0.6"/>
	<path class="st3" d="M1445.2-0.6l69.4,2l69.8-2L1515,39.7L1445.2-0.6 M1591.3-0.6l-76.8-2l-76.3,2l76.8,44.3L1591.3-0.6"/>
	<path class="st3" d="M1604.6-0.6l69.4,2l69.8-2l-69.4,40.3L1604.6-0.6 M1750.8-0.6l-76.8-2l-76.3,2l76.8,44.3L1750.8-0.6"/>
	<path class="st3" d="M1764.1-0.6l69.4,2l69.8-2l-69.4,40.3L1764.1-0.6 M1910.3-0.6l-76.8-2l-76.3,2l76.8,44.3L1910.3-0.6"/>
	<path class="st3" d="M10,275.4l69.4-40.3l69.8,40.3l-69.4,40.3L10,275.4 M156.2,275.4l-76.8-44.3L3,275.4l76.8,44.4L156.2,275.4"/>
	<path class="st3" d="M169.5,275.4l69.4-40.3l69.8,40.3l-69.4,40.3L169.5,275.4 M315.6,275.4l-76.8-44.3l-76.3,44.3l76.8,44.4
		L315.6,275.4"/>
	<path class="st3" d="M328.9,275.4l69.4-40.3l69.8,40.3l-69.3,40.3L328.9,275.4 M475.1,275.4l-76.8-44.3L322,275.4l76.8,44.4
		L475.1,275.4"/>
	<path class="st3" d="M488.4,275.4l69.4-40.3l69.8,40.3l-69.4,40.3L488.4,275.4 M634.6,275.4l-76.8-44.3l-76.4,44.3l76.8,44.4
		L634.6,275.4"/>
	<path class="st3" d="M647.8,275.4l69.4-40.3l69.8,40.3l-69.4,40.3L647.8,275.4 M794,275.4l-76.8-44.3l-76.3,44.3l76.8,44.4
		L794,275.4"/>
	<path class="st3" d="M807.3,275.4l69.4-40.3l69.8,40.3l-69.4,40.3L807.3,275.4 M953.5,275.4l-76.8-44.3l-76.3,44.3l76.8,44.4
		L953.5,275.4"/>
	<path class="st3" d="M966.8,275.4l69.4-40.3l69.8,40.3l-69.4,40.3L966.8,275.4 M1112.9,275.4l-76.8-44.3l-76.3,44.3l76.8,44.4
		L1112.9,275.4"/>
	<path class="st3" d="M1126.2,275.4l69.4-40.3l69.8,40.3l-69.4,40.3L1126.2,275.4 M1272.4,275.4l-76.8-44.3l-76.3,44.3l76.8,44.4
		L1272.4,275.4"/>
	<path class="st3" d="M1285.7,275.4l69.4-40.3l69.8,40.3l-69.4,40.3L1285.7,275.4 M1431.9,275.4l-76.8-44.3l-76.3,44.3l76.8,44.4
		L1431.9,275.4"/>
	<path class="st3" d="M1445.2,275.4l69.4-40.3l69.8,40.3l-69.4,40.3L1445.2,275.4 M1591.3,275.4l-76.8-44.3l-76.3,44.3l76.8,44.4
		L1591.3,275.4"/>
	<path class="st3" d="M1604.6,275.4l69.4-40.3l69.8,40.3l-69.4,40.3L1604.6,275.4 M1750.8,275.4l-76.8-44.3l-76.3,44.3l76.8,44.4
		L1750.8,275.4"/>
	<path class="st3" d="M1764.1,275.4l69.4-40.3l69.8,40.3l-69.4,40.3L1764.1,275.4 M1910.3,275.4l-76.8-44.3l-76.3,44.3l76.8,44.4
		L1910.3,275.4"/>
	<path class="st3" d="M10,551.4l69.4-40.3l69.8,40.3l-69.4,40.3L10,551.4 M156.2,551.4l-76.8-44.3L3,551.4l76.8,44.3L156.2,551.4"/>
	<path class="st3" d="M169.5,551.4l69.4-40.3l69.8,40.3l-69.4,40.3L169.5,551.4 M315.6,551.4l-76.8-44.3l-76.3,44.3l76.8,44.3
		L315.6,551.4"/>
	<path class="st3" d="M328.9,551.4l69.4-40.3l69.8,40.3l-69.3,40.3L328.9,551.4 M475.1,551.4l-76.8-44.3L322,551.4l76.8,44.3
		L475.1,551.4"/>
	<path class="st3" d="M488.4,551.4l69.4-40.3l69.8,40.3l-69.4,40.3L488.4,551.4 M634.6,551.4l-76.8-44.3l-76.4,44.3l76.8,44.3
		L634.6,551.4"/>
	<path class="st3" d="M647.8,551.4l69.4-40.3l69.8,40.3l-69.4,40.3L647.8,551.4 M794,551.4l-76.8-44.3l-76.3,44.3l76.8,44.3
		L794,551.4"/>
	<path class="st3" d="M807.3,551.4l69.4-40.3l69.8,40.3l-69.4,40.3L807.3,551.4 M953.5,551.4l-76.8-44.3l-76.3,44.3l76.8,44.3
		L953.5,551.4"/>
	<path class="st3" d="M966.8,551.4l69.4-40.3l69.8,40.3l-69.4,40.3L966.8,551.4 M1112.9,551.4l-76.8-44.3l-76.3,44.3l76.8,44.3
		L1112.9,551.4"/>
	<path class="st3" d="M1126.2,551.4l69.4-40.3l69.8,40.3l-69.4,40.3L1126.2,551.4 M1272.4,551.4l-76.8-44.3l-76.3,44.3l76.8,44.3
		L1272.4,551.4"/>
	<path class="st3" d="M1285.7,551.4l69.4-40.3l69.8,40.3l-69.4,40.3L1285.7,551.4 M1431.9,551.4l-76.8-44.3l-76.3,44.3l76.8,44.3
		L1431.9,551.4"/>
	<path class="st3" d="M1445.2,551.4l69.4-40.3l69.8,40.3l-69.4,40.3L1445.2,551.4 M1591.3,551.4l-76.8-44.3l-76.3,44.3l76.8,44.3
		L1591.3,551.4"/>
	<path class="st3" d="M1604.6,551.4l69.4-40.3l69.8,40.3l-69.4,40.3L1604.6,551.4 M1750.8,551.4l-76.8-44.3l-76.3,44.3l76.8,44.3
		L1750.8,551.4"/>
	<path class="st3" d="M1764.1,551.4l69.4-40.3l69.8,40.3l-69.4,40.3L1764.1,551.4 M1910.3,551.4l-76.8-44.3l-76.3,44.3l76.8,44.3
		L1910.3,551.4"/>
</g>
</svg>
