<svg xmlns="http://www.w3.org/2000/svg" xmlns:xlink="http://www.w3.org/1999/xlink" viewBox="0 0 323.06 340.8"><defs><style>.cls-1{isolation:isolate;}.cls-2{fill:url(#linear-gradient);}.cls-3{fill:url(#linear-gradient-2);}.cls-4,.cls-74{opacity:0.82;}.cls-102,.cls-103,.cls-105,.cls-4,.cls-48,.cls-56,.cls-8,.cls-89{mix-blend-mode:multiply;}.cls-4{fill:url(#linear-gradient-3);}.cls-10,.cls-5{opacity:0.6;}.cls-10,.cls-104,.cls-107,.cls-109,.cls-11,.cls-110,.cls-111,.cls-16,.cls-20,.cls-25,.cls-29,.cls-33,.cls-37,.cls-5{mix-blend-mode:screen;}.cls-5{fill:url(#radial-gradient);}.cls-6{fill:url(#linear-gradient-4);}.cls-7{fill:url(#linear-gradient-5);}.cls-8{fill:#bcbec0;}.cls-9{fill:url(#linear-gradient-6);}.cls-10{fill:url(#radial-gradient-2);}.cls-11{fill:url(#linear-gradient-7);}.cls-12{opacity:0.9;}.cls-13{fill:url(#linear-gradient-8);}.cls-14{fill:url(#linear-gradient-9);}.cls-15{fill:url(#linear-gradient-10);}.cls-16{fill:url(#linear-gradient-11);}.cls-17{fill:url(#linear-gradient-12);}.cls-18{fill:url(#linear-gradient-13);}.cls-19{fill:url(#linear-gradient-14);}.cls-20{fill:url(#linear-gradient-15);}.cls-21{fill:url(#linear-gradient-16);}.cls-22{fill:url(#linear-gradient-17);}.cls-23{fill:url(#linear-gradient-18);}.cls-24{fill:#fff;}.cls-25{fill:url(#linear-gradient-19);}.cls-26{fill:url(#linear-gradient-20);}.cls-27{fill:url(#linear-gradient-21);}.cls-28{fill:url(#linear-gradient-22);}.cls-29{fill:url(#linear-gradient-23);}.cls-30{fill:url(#linear-gradient-24);}.cls-31{fill:url(#linear-gradient-25);}.cls-32{fill:url(#linear-gradient-26);}.cls-33{fill:url(#linear-gradient-27);}.cls-34{fill:url(#linear-gradient-28);}.cls-35{fill:url(#linear-gradient-29);}.cls-36{fill:url(#linear-gradient-30);}.cls-37{fill:url(#linear-gradient-31);}.cls-38{fill:url(#linear-gradient-32);}.cls-39{fill:url(#linear-gradient-33);}.cls-40{fill:url(#linear-gradient-34);}.cls-41{fill:url(#linear-gradient-35);}.cls-42{fill:#138bbd;}.cls-43{fill:#18a0ca;}.cls-44{fill:#1cb6d7;}.cls-45{fill:#21cbe5;}.cls-46{fill:#25e1f2;}.cls-47{fill:#2af6ff;}.cls-48{fill:url(#linear-gradient-36);}.cls-49{fill:url(#linear-gradient-37);}.cls-50{fill:#9f19ab;}.cls-51{fill:#b228b2;}.cls-52{fill:#c537b9;}.cls-53{fill:#d945c0;}.cls-54{fill:#ec54c7;}.cls-55{fill:#ff63ce;}.cls-56{fill:url(#linear-gradient-38);}.cls-57{fill:url(#linear-gradient-39);}.cls-58{fill:#ffba78;}.cls-59{fill:#ffc281;}.cls-60{fill:#ffcb8b;}.cls-61{fill:#ffd394;}.cls-62{fill:#ffdc9e;}.cls-63{fill:#ffe4a7;}.cls-102,.cls-110,.cls-64{opacity:0.2;}.cls-65{opacity:0;}.cls-66{opacity:0.09;}.cls-67{opacity:0.18;}.cls-68{opacity:0.27;}.cls-69{opacity:0.36;}.cls-70{opacity:0.45;}.cls-71{opacity:0.55;}.cls-72{opacity:0.64;}.cls-73{opacity:0.73;}.cls-75{opacity:0.91;}.cls-76{fill:url(#linear-gradient-40);}.cls-77{fill:url(#linear-gradient-41);}.cls-101,.cls-108,.cls-78,.cls-81,.cls-85,.cls-86,.cls-87,.cls-92{mix-blend-mode:color-dodge;}.cls-78{fill:url(#radial-gradient-3);}.cls-79{fill:#1f0d3d;}.cls-80{fill:url(#linear-gradient-42);}.cls-81{fill:url(#radial-gradient-4);}.cls-82{fill:#25054d;}.cls-83{fill:url(#linear-gradient-43);}.cls-84{fill:url(#linear-gradient-44);}.cls-85{fill:url(#radial-gradient-5);}.cls-86{fill:url(#radial-gradient-6);}.cls-87{fill:url(#radial-gradient-7);}.cls-88{fill:url(#linear-gradient-45);}.cls-89{fill:#e6e7e8;}.cls-90{fill:url(#linear-gradient-46);}.cls-91{fill:url(#linear-gradient-47);}.cls-92{fill:url(#radial-gradient-8);}.cls-93{fill:url(#linear-gradient-48);}.cls-94{fill:url(#linear-gradient-49);}.cls-95{fill:url(#radial-gradient-9);}.cls-96{fill:url(#linear-gradient-50);}.cls-97{fill:url(#linear-gradient-51);}.cls-98{fill:url(#linear-gradient-52);}.cls-99{fill:url(#linear-gradient-53);}.cls-100{fill:url(#linear-gradient-54);}.cls-101{fill:url(#radial-gradient-10);}.cls-102{fill:url(#radial-gradient-11);}.cls-103{opacity:0.3;fill:url(#radial-gradient-12);}.cls-104{fill:url(#radial-gradient-13);}.cls-105{fill:#939598;}.cls-106{fill:url(#linear-gradient-55);}.cls-107{fill:#58595b;}.cls-108{fill:url(#radial-gradient-14);}.cls-109{opacity:0.5;fill:url(#radial-gradient-15);}.cls-110{fill:url(#radial-gradient-16);}.cls-111{fill:url(#linear-gradient-56);}.cls-112{fill:url(#linear-gradient-57);}.cls-113{fill:url(#linear-gradient-58);}.cls-114{fill:url(#linear-gradient-59);}</style><linearGradient id="linear-gradient" x1="137.44" y1="253.74" x2="281.23" y2="253.74" gradientUnits="userSpaceOnUse"><stop offset="0.06" stop-color="#200041"/><stop offset="0.26" stop-color="#210243"/><stop offset="0.36" stop-color="#25084b"/><stop offset="0.43" stop-color="#2c1358"/><stop offset="0.47" stop-color="#311b61"/><stop offset="0.48" stop-color="#351f65"/><stop offset="0.5" stop-color="#422c73"/><stop offset="0.51" stop-color="#584188"/><stop offset="0.52" stop-color="#765fa7"/><stop offset="0.53" stop-color="#8770b8"/><stop offset="0.54" stop-color="#7e67ae"/><stop offset="0.56" stop-color="#5c468d"/><stop offset="0.59" stop-color="#442e75"/><stop offset="0.61" stop-color="#362066"/><stop offset="0.63" stop-color="#311b61"/><stop offset="0.67" stop-color="#2a1155"/><stop offset="0.75" stop-color="#230446"/><stop offset="0.81" stop-color="#200041"/><stop offset="1" stop-color="#200041"/></linearGradient><linearGradient id="linear-gradient-2" x1="175.92" y1="262.98" x2="241.1" y2="226.92" gradientUnits="userSpaceOnUse"><stop offset="0" stop-color="#311b61"/><stop offset="0.2" stop-color="#290f52"/><stop offset="0.49" stop-color="#200041"/><stop offset="1" stop-color="#0f001f"/></linearGradient><linearGradient id="linear-gradient-3" x1="210.49" y1="245.94" x2="223.28" y2="224.48" gradientUnits="userSpaceOnUse"><stop offset="0" stop-color="#fff"/><stop offset="1"/></linearGradient><radialGradient id="radial-gradient" cx="210.91" cy="275.09" r="51.16" gradientUnits="userSpaceOnUse"><stop offset="0" stop-color="#af8afc"/><stop offset="1" stop-color="#10054d"/></radialGradient><linearGradient id="linear-gradient-4" x1="316.01" y1="288.31" x2="95.96" y2="-16.19" xlink:href="#linear-gradient-2"/><linearGradient id="linear-gradient-5" x1="125.72" y1="14.14" x2="312.94" y2="295.66" gradientUnits="userSpaceOnUse"><stop offset="0.01" stop-color="#9f19ab"/><stop offset="0.43" stop-color="#5f27bd"/><stop offset="0.9" stop-color="#3d065f"/></linearGradient><linearGradient id="linear-gradient-6" x1="362.76" y1="294.92" x2="189.56" y2="18.17" xlink:href="#linear-gradient"/><radialGradient id="radial-gradient-2" cx="313.63" cy="137.32" r="29.48" xlink:href="#radial-gradient"/><linearGradient id="linear-gradient-7" x1="110.29" y1="177.3" x2="139.49" y2="157.6" gradientUnits="userSpaceOnUse"><stop offset="0" stop-color="#fdd65b"/><stop offset="0.01" stop-color="#f7d159"/><stop offset="0.13" stop-color="#bea144"/><stop offset="0.25" stop-color="#8b7632"/><stop offset="0.37" stop-color="#605223"/><stop offset="0.49" stop-color="#3e3416"/><stop offset="0.62" stop-color="#231d0c"/><stop offset="0.74" stop-color="#0f0d05"/><stop offset="0.87" stop-color="#040301"/><stop offset="1"/></linearGradient><linearGradient id="linear-gradient-8" x1="121.02" y1="180.89" x2="151.31" y2="171.82" gradientUnits="userSpaceOnUse"><stop offset="0.04" stop-color="#ffa98c"/><stop offset="0.32" stop-color="#ffb892"/><stop offset="0.86" stop-color="#fee1a3"/><stop offset="1" stop-color="#feeca8"/></linearGradient><linearGradient id="linear-gradient-9" x1="74.88" y1="184.66" x2="144.28" y2="169.11" xlink:href="#linear-gradient-8"/><linearGradient id="linear-gradient-10" x1="123.44" y1="144.24" x2="112.58" y2="164.94" xlink:href="#linear-gradient-8"/><linearGradient id="linear-gradient-11" x1="110.29" y1="148.82" x2="139.49" y2="129.11" xlink:href="#linear-gradient-7"/><linearGradient id="linear-gradient-12" x1="121.02" y1="152.4" x2="151.31" y2="143.33" xlink:href="#linear-gradient-8"/><linearGradient id="linear-gradient-13" x1="74.88" y1="156.18" x2="144.28" y2="140.62" xlink:href="#linear-gradient-8"/><linearGradient id="linear-gradient-14" x1="123.44" y1="115.76" x2="112.58" y2="136.46" xlink:href="#linear-gradient-8"/><linearGradient id="linear-gradient-15" x1="110.29" y1="120.07" x2="139.49" y2="100.36" xlink:href="#linear-gradient-7"/><linearGradient id="linear-gradient-16" x1="121.02" y1="123.65" x2="151.31" y2="114.58" xlink:href="#linear-gradient-8"/><linearGradient id="linear-gradient-17" x1="74.88" y1="127.43" x2="144.28" y2="111.87" xlink:href="#linear-gradient-8"/><linearGradient id="linear-gradient-18" x1="123.44" y1="87.01" x2="112.58" y2="107.71" xlink:href="#linear-gradient-8"/><linearGradient id="linear-gradient-19" x1="277.54" y1="236.22" x2="306.74" y2="216.51" gradientUnits="userSpaceOnUse"><stop offset="0" stop-color="#2af6ff"/><stop offset="0.02" stop-color="#29eef7"/><stop offset="0.13" stop-color="#1fb7be"/><stop offset="0.25" stop-color="#17868b"/><stop offset="0.37" stop-color="#105d60"/><stop offset="0.49" stop-color="#0a3b3e"/><stop offset="0.62" stop-color="#062123"/><stop offset="0.74" stop-color="#030f0f"/><stop offset="0.87" stop-color="#010404"/><stop offset="1"/></linearGradient><linearGradient id="linear-gradient-20" x1="288.27" y1="239.8" x2="318.56" y2="230.73" gradientUnits="userSpaceOnUse"><stop offset="0.04" stop-color="#138bbd"/><stop offset="0.23" stop-color="#169ac7"/><stop offset="0.59" stop-color="#1fc3df"/><stop offset="1" stop-color="#2af6ff"/></linearGradient><linearGradient id="linear-gradient-21" x1="242.13" y1="243.58" x2="311.53" y2="228.02" xlink:href="#linear-gradient-20"/><linearGradient id="linear-gradient-22" x1="290.69" y1="203.16" x2="279.83" y2="223.86" xlink:href="#linear-gradient-20"/><linearGradient id="linear-gradient-23" x1="277.54" y1="196.97" x2="306.74" y2="177.26" gradientUnits="userSpaceOnUse"><stop offset="0" stop-color="#c211a1"/><stop offset="0.01" stop-color="#bd119d"/><stop offset="0.15" stop-color="#8b0c73"/><stop offset="0.29" stop-color="#600850"/><stop offset="0.42" stop-color="#3e0533"/><stop offset="0.56" stop-color="#23031d"/><stop offset="0.7" stop-color="#0f010d"/><stop offset="0.85" stop-color="#040003"/><stop offset="1"/></linearGradient><linearGradient id="linear-gradient-24" x1="288.27" y1="200.55" x2="318.56" y2="191.48" gradientUnits="userSpaceOnUse"><stop offset="0.04" stop-color="#9f19ab"/><stop offset="0.24" stop-color="#ae25b1"/><stop offset="0.65" stop-color="#d744bf"/><stop offset="1" stop-color="#ff63ce"/></linearGradient><linearGradient id="linear-gradient-25" x1="242.13" y1="204.33" x2="311.53" y2="188.77" xlink:href="#linear-gradient-24"/><linearGradient id="linear-gradient-26" x1="290.69" y1="163.91" x2="279.83" y2="184.61" xlink:href="#linear-gradient-24"/><linearGradient id="linear-gradient-27" x1="277.54" y1="167.74" x2="306.74" y2="148.04" xlink:href="#linear-gradient-23"/><linearGradient id="linear-gradient-28" x1="288.27" y1="171.33" x2="318.56" y2="162.26" xlink:href="#linear-gradient-24"/><linearGradient id="linear-gradient-29" x1="242.13" y1="175.1" x2="311.53" y2="159.55" xlink:href="#linear-gradient-24"/><linearGradient id="linear-gradient-30" x1="290.69" y1="134.68" x2="279.83" y2="155.38" xlink:href="#linear-gradient-24"/><linearGradient id="linear-gradient-31" x1="277.54" y1="137.82" x2="306.74" y2="118.11" xlink:href="#linear-gradient-23"/><linearGradient id="linear-gradient-32" x1="288.27" y1="141.4" x2="318.56" y2="132.33" xlink:href="#linear-gradient-24"/><linearGradient id="linear-gradient-33" x1="242.13" y1="145.18" x2="311.53" y2="129.62" xlink:href="#linear-gradient-24"/><linearGradient id="linear-gradient-34" x1="290.69" y1="104.76" x2="279.83" y2="125.46" xlink:href="#linear-gradient-24"/><linearGradient id="linear-gradient-35" x1="-3433.15" y1="3025.43" x2="-3430.04" y2="2999.73" gradientTransform="matrix(0.87, 0.5, -1, 0.58, 6099.38, 272.08)" gradientUnits="userSpaceOnUse"><stop offset="0.03" stop-color="#d4d1d8"/><stop offset="1" stop-color="#eeebf2"/></linearGradient><linearGradient id="linear-gradient-36" x1="-3433.22" y1="3025.55" x2="-3430.46" y2="3002.71" xlink:href="#linear-gradient-35"/><linearGradient id="linear-gradient-37" x1="-3439.96" y1="3034.2" x2="-3433.45" y2="3010.9" xlink:href="#linear-gradient-35"/><linearGradient id="linear-gradient-38" x1="-3440.43" y1="3034.08" x2="-3434.36" y2="3012.37" xlink:href="#linear-gradient-35"/><linearGradient id="linear-gradient-39" x1="-3450.69" y1="3044.06" x2="-3433.3" y2="3014.46" xlink:href="#linear-gradient-35"/><linearGradient id="linear-gradient-40" x1="1289.37" y1="264.09" x2="1452.23" y2="264.09" gradientTransform="translate(-1274.21)" xlink:href="#linear-gradient"/><linearGradient id="linear-gradient-41" x1="54.48" y1="280.27" x2="163.66" y2="200.95" xlink:href="#linear-gradient-2"/><radialGradient id="radial-gradient-3" cx="5700.41" cy="280.99" r="61.47" gradientTransform="matrix(-1, 0, 0, 1, 5792.75, 0)" xlink:href="#linear-gradient-3"/><linearGradient id="linear-gradient-42" x1="5.11" y1="257.4" x2="146.35" y2="257.4" gradientUnits="userSpaceOnUse"><stop offset="0" stop-color="#861eb2"/><stop offset="0.43" stop-color="#5f27bd"/><stop offset="0.9" stop-color="#3d065f"/></linearGradient><radialGradient id="radial-gradient-4" cx="-268.43" cy="-1299.8" r="25.29" gradientTransform="matrix(0.53, -0.22, 0.25, 0.61, 570.98, 1047.4)" gradientUnits="userSpaceOnUse"><stop offset="0" stop-color="#972a74"/><stop offset="0.04" stop-color="#8a266a"/><stop offset="0.19" stop-color="#601b4a"/><stop offset="0.35" stop-color="#3d112f"/><stop offset="0.51" stop-color="#230a1b"/><stop offset="0.67" stop-color="#0f040c"/><stop offset="0.83" stop-color="#040103"/><stop offset="1"/></radialGradient><linearGradient id="linear-gradient-43" x1="118.13" y1="276.74" x2="142.33" y2="306.15" xlink:href="#linear-gradient-2"/><linearGradient id="linear-gradient-44" x1="120.45" y1="279.57" x2="157.02" y2="315.02" xlink:href="#linear-gradient-2"/><radialGradient id="radial-gradient-5" cx="7682.29" cy="287.47" r="7.87" gradientTransform="matrix(-1, 0, 0, 1, 7807.59, 0)" xlink:href="#linear-gradient-3"/><radialGradient id="radial-gradient-6" cx="7668.56" cy="277.15" r="3.63" gradientTransform="matrix(-1, 0, 0, 1, 7807.59, 0)" xlink:href="#linear-gradient-3"/><radialGradient id="radial-gradient-7" cx="7696.12" cy="293.15" r="3.63" gradientTransform="matrix(-1, 0, 0, 1, 7807.59, 0)" xlink:href="#linear-gradient-3"/><linearGradient id="linear-gradient-45" x1="7684.28" y1="290.29" x2="7680.4" y2="277.89" gradientTransform="matrix(-1, 0, 0, 1, 7807.59, 0)" xlink:href="#linear-gradient-2"/><linearGradient id="linear-gradient-46" x1="194.41" y1="141.34" x2="183.16" y2="101.59" gradientTransform="translate(88.72 -78.69) rotate(30.31)" gradientUnits="userSpaceOnUse"><stop offset="0.04" stop-color="#ffba78"/><stop offset="0.4" stop-color="#ffc987"/><stop offset="1" stop-color="#feeca8"/></linearGradient><linearGradient id="linear-gradient-47" x1="214.01" y1="212.66" x2="185.51" y2="126.91" xlink:href="#linear-gradient-20"/><radialGradient id="radial-gradient-8" cx="230.76" cy="127.76" r="44.73" gradientUnits="userSpaceOnUse"><stop offset="0" stop-color="#fa45c1"/><stop offset="0.21" stop-color="#cb389d"/><stop offset="0.67" stop-color="#571843"/><stop offset="1"/></radialGradient><linearGradient id="linear-gradient-48" x1="52.45" y1="274.18" x2="60.45" y2="239.68" xlink:href="#linear-gradient-8"/><linearGradient id="linear-gradient-49" x1="91.63" y1="270.32" x2="82.88" y2="243.32" xlink:href="#linear-gradient-8"/><radialGradient id="radial-gradient-9" cx="711.11" cy="5811.82" r="3.2" gradientTransform="translate(4858.57 -3141) rotate(61.68)" gradientUnits="userSpaceOnUse"><stop offset="0.1" stop-color="#8493ba"/><stop offset="0.21" stop-color="#606c90"/><stop offset="0.33" stop-color="#444d6e"/><stop offset="0.43" stop-color="#303756"/><stop offset="0.53" stop-color="#232a47"/><stop offset="0.62" stop-color="#1f2542"/><stop offset="0.71" stop-color="#242a49"/><stop offset="0.83" stop-color="#34395b"/><stop offset="0.98" stop-color="#4d5179"/><stop offset="0.98" stop-color="#4d517a"/></radialGradient><linearGradient id="linear-gradient-50" x1="705.66" y1="5803.37" x2="717.33" y2="5803.37" gradientTransform="translate(4858.57 -3141) rotate(61.68)" gradientUnits="userSpaceOnUse"><stop offset="0" stop-color="#7d62b8"/><stop offset="0.13" stop-color="#9039b1"/><stop offset="0.25" stop-color="#9f19ab"/><stop offset="0.29" stop-color="#89169c"/><stop offset="0.36" stop-color="#5e1080"/><stop offset="0.43" stop-color="#3c0b6a"/><stop offset="0.5" stop-color="#24085a"/><stop offset="0.56" stop-color="#150650"/><stop offset="0.62" stop-color="#10054d"/><stop offset="0.67" stop-color="#150754"/><stop offset="0.75" stop-color="#230e66"/><stop offset="0.84" stop-color="#391985"/><stop offset="0.93" stop-color="#5526ab"/><stop offset="0.96" stop-color="#4d1ba4"/><stop offset="1" stop-color="#4916a1"/></linearGradient><linearGradient id="linear-gradient-51" x1="705.2" y1="5782.15" x2="717.41" y2="5782.15" xlink:href="#linear-gradient-50"/><linearGradient id="linear-gradient-52" x1="2194.51" y1="5125.63" x2="2216.37" y2="5127.12" gradientTransform="translate(5249.59 -1987.46) rotate(90)" gradientUnits="userSpaceOnUse"><stop offset="0" stop-color="#d6dae6"/><stop offset="0.01" stop-color="#d4d8e6"/><stop offset="0.28" stop-color="#b4b8e3"/><stop offset="0.4" stop-color="#9a9fc8"/><stop offset="0.53" stop-color="#838ab0"/><stop offset="0.65" stop-color="#757da1"/><stop offset="0.76" stop-color="#70789c"/><stop offset="0.85" stop-color="#777ea2"/><stop offset="0.99" stop-color="#898eb3"/><stop offset="1" stop-color="#8b90b5"/></linearGradient><linearGradient id="linear-gradient-53" x1="705.25" y1="5738.94" x2="717.05" y2="5738.94" gradientTransform="translate(4858.57 -3141) rotate(61.68)" gradientUnits="userSpaceOnUse"><stop offset="0.01" stop-color="#c1a1d5"/><stop offset="0.05" stop-color="#c8abda"/><stop offset="0.11" stop-color="#dac6e6"/><stop offset="0.2" stop-color="#f7f2f9"/><stop offset="0.22" stop-color="#fff"/><stop offset="0.25" stop-color="#f9f5fb"/><stop offset="0.3" stop-color="#e9dbf2"/><stop offset="0.36" stop-color="#d1b4e3"/><stop offset="0.43" stop-color="#b395d6"/><stop offset="0.49" stop-color="#9c7dcb"/><stop offset="0.56" stop-color="#8e6ec5"/><stop offset="0.61" stop-color="#8969c3"/><stop offset="0.76" stop-color="#9471c6"/><stop offset="1" stop-color="#b086cc"/></linearGradient><linearGradient id="linear-gradient-54" x1="2172.74" y1="5080.97" x2="2190.44" y2="5082.17" gradientTransform="translate(5249.59 -1987.46) rotate(90)" xlink:href="#linear-gradient-53"/><radialGradient id="radial-gradient-10" cx="165.28" cy="193.91" r="3.72" gradientUnits="userSpaceOnUse"><stop offset="0" stop-color="#b4299a"/><stop offset="0.12" stop-color="#8a2076"/><stop offset="0.26" stop-color="#601652"/><stop offset="0.4" stop-color="#3e0e35"/><stop offset="0.55" stop-color="#23081e"/><stop offset="0.69" stop-color="#0f030d"/><stop offset="0.84" stop-color="#040103"/><stop offset="1"/></radialGradient><radialGradient id="radial-gradient-11" cx="-3.62" cy="4971.6" r="21.08" gradientTransform="matrix(0.74, 0.68, -0.26, 0.28, 1368.65, -1155.81)" gradientUnits="userSpaceOnUse"><stop offset="0"/><stop offset="1" stop-color="#fff"/></radialGradient><radialGradient id="radial-gradient-12" cx="-3.43" cy="4975.48" r="9.4" xlink:href="#radial-gradient-11"/><radialGradient id="radial-gradient-13" cx="1830.61" cy="-7084.19" r="12.83" gradientTransform="matrix(1.44, -0.76, 0.1, 0.18, -1820.4, 2881.71)" gradientUnits="userSpaceOnUse"><stop offset="0" stop-color="#fff"/><stop offset="0.13" stop-color="#ff63ce"/><stop offset="1"/></radialGradient><linearGradient id="linear-gradient-55" x1="98.74" y1="225.15" x2="104.56" y2="235.37" gradientTransform="translate(121.12 -20.22) rotate(28.56)" xlink:href="#linear-gradient-50"/><radialGradient id="radial-gradient-14" cx="102.42" cy="247.29" r="30.35" xlink:href="#radial-gradient-10"/><radialGradient id="radial-gradient-15" cx="-9796.78" cy="5259.9" r="7.68" gradientTransform="matrix(0.15, 0.19, -0.78, 0.62, 5697.5, -1146.26)" gradientUnits="userSpaceOnUse"><stop offset="0" stop-color="#742a97"/><stop offset="0.04" stop-color="#6a268a"/><stop offset="0.19" stop-color="#4a1b60"/><stop offset="0.35" stop-color="#2f113d"/><stop offset="0.51" stop-color="#1b0a23"/><stop offset="0.67" stop-color="#0c040f"/><stop offset="0.83" stop-color="#030104"/><stop offset="1"/></radialGradient><radialGradient id="radial-gradient-16" cx="-12844.76" cy="6815.51" r="7.68" gradientTransform="matrix(0.04, 0.14, -0.82, 0.25, 6224.67, 355.04)" xlink:href="#radial-gradient-15"/><linearGradient id="linear-gradient-56" x1="141.94" y1="72.33" x2="172.18" y2="37.06" gradientUnits="userSpaceOnUse"><stop offset="0" stop-color="#b086cc"/><stop offset="0.04" stop-color="#a37cbd"/><stop offset="0.17" stop-color="#785b8b"/><stop offset="0.3" stop-color="#533f60"/><stop offset="0.44" stop-color="#35283e"/><stop offset="0.57" stop-color="#1e1723"/><stop offset="0.71" stop-color="#0d0a0f"/><stop offset="0.85" stop-color="#030204"/><stop offset="1"/></linearGradient><linearGradient id="linear-gradient-57" x1="182.18" y1="88.86" x2="214.51" y2="73.2" gradientUnits="userSpaceOnUse"><stop offset="0" stop-color="#9f79c8"/><stop offset="0.14" stop-color="#a580cb"/><stop offset="0.33" stop-color="#b492d3"/><stop offset="0.55" stop-color="#cdb0e1"/><stop offset="0.58" stop-color="#d1b4e3"/><stop offset="0.76" stop-color="#dbc4e9"/><stop offset="1" stop-color="#ebdef3"/></linearGradient><linearGradient id="linear-gradient-58" x1="97.55" y1="93.72" x2="180.18" y2="38.16" xlink:href="#linear-gradient-57"/><linearGradient id="linear-gradient-59" x1="164.5" y1="19.6" x2="144.23" y2="49.2" xlink:href="#linear-gradient-57"/></defs><g class="cls-1"><g id="Layer_1" data-name="Layer 1"><path class="cls-2" d="M207.33,292.25,134.92,250.2C133,249.07,132,247.58,132,246v-5.47c0-1.91,1.45,1.4,4.17-.17l63.55-24.44c5-2.91,12.65-3.22,17-.71l48.66,28.52c1.46.84,2.51-2.73,2.89-1.6.13.38.05,5.39.06,5.78,0,2-1.37,4-4.17,5.64l-39.8,38C219.3,294.45,211.69,294.77,207.33,292.25Z"/><path class="cls-3" d="M207.33,286.88l-72.41-42c-4.36-2.52-3.82-6.92,1.22-9.83l63.55-24.44c5-2.91,12.65-3.22,17-.7l48.66,28.51c4.36,2.51,3.82,6.91-1.22,9.82l-39.8,38C219.3,289.08,211.69,289.4,207.33,286.88Z"/><path class="cls-4" d="M265.36,238.37,216.7,209.86c-4.36-2.52-12-2.21-17,.7l-32,12.32a7.48,7.48,0,0,0,1,.68l72.41,42.06a12.53,12.53,0,0,0,3.47,1.28l19.6-18.71C269.18,245.28,269.72,240.88,265.36,238.37Z"/><path class="cls-5" d="M264.14,247.28l-39.8,38c-5,2.91-12.65,3.23-17,.71l-72.41-42.05a5.23,5.23,0,0,1-2.91-3.87c-.23,1.78.72,3.52,2.91,4.78l72.41,42c4.36,2.52,12,2.2,17-.7l39.8-38c2.95-1.7,4.34-3.91,4.13-6C268.05,244,266.65,245.83,264.14,247.28Z"/><path class="cls-6" d="M301.93,287.11,124.1,184.36c-9.1-5.25-16.47-19.33-16.47-31.46V16.9C107.63,4.78,115-.79,124.1,4.45L301.93,107.21c9.09,5.25,16.46,19.33,16.46,31.45v136C318.39,286.79,311,292.36,301.93,287.11Z"/><path class="cls-7" d="M304.05,277.65,128.72,176.35c-7.32-4.65-11.84-13.94-11.84-23.45V16a2.92,2.92,0,0,1,4.39-2.52l.52.3L297.3,115.21c8.71,5,11.84,14,11.84,23.45V275.13a3.15,3.15,0,0,1-4.71,2.74Z"/><path class="cls-8" d="M297.3,115.21,121.79,13.79l-.52-.3A2.92,2.92,0,0,0,116.88,16V152.9c0,9.51,4.52,18.8,11.84,23.45l175.33,101.3.38.22a3.15,3.15,0,0,0,4.71-2.74V138.66C309.14,129.16,306,120.23,297.3,115.21Zm10,159.92a1.3,1.3,0,0,1-1.3,1.3,1.23,1.23,0,0,1-.64-.17L129.65,174.75c-6.61-4.2-10.92-12.79-10.92-21.85V16a1.08,1.08,0,0,1,1.07-1.07,1,1,0,0,1,.54.15l176,101.72c9,5.21,10.91,14.76,10.91,21.85Z"/><path class="cls-9" d="M306.59,104.73,128.76,2c-3.6-2.08-6.92-2.46-9.63-1.42-.35.14-4.94,2.57-5.26,2.75l0,0c2.81-1.37,6.37-1.12,10.25,1.12L301.93,107.21c9.09,5.25,16.46,19.33,16.46,31.45v136c0,7.56-2.87,12.58-7.24,14a2.72,2.72,0,0,0,1.44-.49c.21-.12,5.19-2.93,5.39-3.07,3.13-2.19,5.08-6.69,5.08-12.92v-136C323.06,124.06,315.69,110,306.59,104.73Z"/><path class="cls-10" d="M302.72,106.81,124.89,4.06c-3.73-2.15-7.16-2.46-9.92-1.27a12.19,12.19,0,0,1,7.94,1.86L300.74,107.41c9.09,5.25,16.47,19.33,16.47,31.45v136c0,7.15-2.58,12-6.55,13.71,5.08-.81,8.52-6,8.52-14.31v-136C319.18,126.15,311.81,112.06,302.72,106.81Z"/><polygon class="cls-11" points="140.94 159.36 120.94 147.72 98.87 160.3 98.87 182.27 118.8 193.78 118.8 193.8 118.81 193.79 118.82 193.8 118.82 193.78 140.94 181.33 140.94 159.36"/><g class="cls-12"><polygon class="cls-13" points="118.8 172 118.8 193.8 127.85 188.57 127.85 166.6 118.8 172"/><polygon class="cls-14" points="118.82 172 118.82 193.8 98.87 182.27 98.87 160.3 118.82 172"/><polygon class="cls-15" points="98.87 160.3 118.82 172 127.85 166.6 107.86 154.96 98.87 160.3"/></g><polygon class="cls-16" points="140.94 130.88 120.94 119.24 98.87 131.82 98.87 153.78 118.8 165.3 118.8 165.31 118.81 165.3 118.82 165.31 118.82 165.3 140.94 152.84 140.94 130.88"/><g class="cls-12"><polygon class="cls-17" points="118.8 143.52 118.8 165.31 127.85 160.08 127.85 138.12 118.8 143.52"/><polygon class="cls-18" points="118.82 143.52 118.82 165.31 98.87 153.78 98.87 131.82 118.82 143.52"/><polygon class="cls-19" points="98.87 131.82 118.82 143.52 127.85 138.12 107.86 126.48 98.87 131.82"/></g><polygon class="cls-20" points="140.94 102.13 120.94 90.49 98.87 103.07 98.87 125.03 118.8 136.55 118.8 136.56 118.81 136.55 118.82 136.56 118.82 136.55 140.94 124.09 140.94 102.13"/><g class="cls-12"><polygon class="cls-21" points="118.8 114.77 118.8 136.56 127.85 131.33 127.85 109.37 118.8 114.77"/><polygon class="cls-22" points="118.82 114.77 118.82 136.56 98.87 125.03 98.87 103.07 118.82 114.77"/><polygon class="cls-23" points="98.87 103.07 118.82 114.77 127.85 109.37 107.86 97.73 98.87 103.07"/></g><polygon class="cls-24" points="114.34 129.81 103.18 123.37 103.18 110.56 114.34 117 114.34 129.81"/><path class="cls-24" d="M115.42,152.29c0,4-2.78,5.54-6.22,3.55A13.71,13.71,0,0,1,103,145.1c0-3.94,2.79-5.53,6.23-3.55A13.73,13.73,0,0,1,115.42,152.29Z"/><polygon class="cls-24" points="105.36 182.2 101.85 173.21 105.36 168.26 112.37 172.31 115.88 181.31 112.37 186.25 105.36 182.2"/><polygon class="cls-25" points="308.19 218.28 288.19 206.64 266.12 219.22 266.12 241.19 286.05 252.7 286.05 252.71 286.06 252.71 286.07 252.71 286.07 252.7 308.19 240.24 308.19 218.28"/><g class="cls-12"><polygon class="cls-26" points="286.05 230.92 286.05 252.71 295.1 247.48 295.1 225.52 286.05 230.92"/><polygon class="cls-27" points="286.07 230.92 286.07 252.71 266.12 241.19 266.12 219.22 286.07 230.92"/><polygon class="cls-28" points="266.12 219.22 286.07 230.92 295.1 225.52 275.11 213.88 266.12 219.22"/></g><polygon class="cls-29" points="308.19 179.03 288.19 167.39 266.12 179.97 266.12 201.94 286.05 213.45 286.05 213.46 286.06 213.46 286.07 213.46 286.07 213.45 308.19 200.99 308.19 179.03"/><g class="cls-12"><polygon class="cls-30" points="286.05 191.67 286.05 213.46 295.1 208.23 295.1 186.27 286.05 191.67"/><polygon class="cls-31" points="286.07 191.67 286.07 213.46 266.12 201.94 266.12 179.97 286.07 191.67"/><polygon class="cls-32" points="266.12 179.97 286.07 191.67 295.1 186.27 275.11 174.63 266.12 179.97"/></g><polygon class="cls-33" points="308.19 149.8 288.19 138.16 266.12 150.74 266.12 172.71 286.05 184.22 286.05 184.24 286.06 184.23 286.07 184.24 286.07 184.22 308.19 171.77 308.19 149.8"/><g class="cls-12"><polygon class="cls-34" points="286.05 162.44 286.05 184.24 295.1 179.01 295.1 157.04 286.05 162.44"/><polygon class="cls-35" points="286.07 162.44 286.07 184.24 266.12 172.71 266.12 150.74 286.07 162.44"/><polygon class="cls-36" points="266.12 150.74 286.07 162.44 295.1 157.04 275.11 145.4 266.12 150.74"/></g><polygon class="cls-37" points="308.19 119.88 288.19 108.24 266.12 120.82 266.12 142.78 286.05 154.3 286.05 154.31 286.06 154.3 286.07 154.31 286.07 154.3 308.19 141.84 308.19 119.88"/><g class="cls-12"><polygon class="cls-38" points="286.05 132.52 286.05 154.31 295.1 149.08 295.1 127.12 286.05 132.52"/><polygon class="cls-39" points="286.07 132.52 286.07 154.31 266.12 142.78 266.12 120.82 286.07 132.52"/><polygon class="cls-40" points="266.12 120.82 286.07 132.52 295.1 127.12 275.11 115.48 266.12 120.82"/></g><path class="cls-24" d="M280.28,160.79l-10.5,6-1.3,5.73,5.6,1.68,10.5-6Zm-10.43,9.48.55-2.43,3.07,5.3-2.38-.72Zm1-2.89,6.86-3.91,3.25,5.62L274.08,173Z"/><path class="cls-24" d="M278.78,144.67l2.1-4,2.86-1.63-4.63-8-2.86,1.63-4.55-.22a.16.16,0,0,0-.18.14l-2.5,8.49a.61.61,0,0,0,.14.51c.13.16.29.24.4.19l.18-.08-.17.11a.39.39,0,0,0,0,.44.41.41,0,0,0,0,.09.57.57,0,0,0,.32.28l8.66,2.14A.17.17,0,0,0,278.78,144.67Zm-7.94-2.61,3.05-2.11c.43.47.95.7,1.31.5s.44-1.09,0-1.86-1.18-1.2-1.63-.94-.42.76-.22,1.37L270,140.57l2.14-7.26,4.12.2,3.91,6.75-1.89,3.63Z"/><path class="cls-24" d="M281,199.55l-1.71-3a5.47,5.47,0,0,1,2.53.08,1.39,1.39,0,0,0,1-.11c1.11-.64.95-2.9-.47-4.74a3.21,3.21,0,0,0-2.58-1.5,1.29,1.29,0,0,0-1.08.93,5.88,5.88,0,0,1-1.24,2.23l-1.69-2.93-1.68.95.77,1.34L270,195.61a2.24,2.24,0,0,0-1,1.85l-.13,1.51a.33.33,0,0,1-.07.21l-.64.88a.74.74,0,0,0,.08.77c.16.28.41.49.65.46l1-.13a.45.45,0,0,1,.22,0l1.51.7a2.26,2.26,0,0,0,2.07.06l4.89-2.79.77,1.33Zm-7.83,1.55a1.8,1.8,0,0,1-1.64,0l-1.51-.7a1,1,0,0,0-.52-.09l-.32,0,.26-.35a1.06,1.06,0,0,0,.17-.5l.12-1.51a1.75,1.75,0,0,1,.78-1.46l4.87-2.78,2.68,4.61Z"/><path class="cls-24" d="M282.13,244.62l-2.87-5a1.4,1.4,0,0,0-1.11-.81l-.85-1.45c1.27-1.18,1.14-4-.38-6.61-1.66-2.86-4.35-4.42-6-3.47s-1.66,4,0,6.9c1.52,2.62,3.9,4.14,5.57,3.65l.84,1.45a1.35,1.35,0,0,0,.14,1.36l2.87,4.95c.36.62.95,1,1.31.76l.49-.28C282.49,245.91,282.49,245.24,282.13,244.62Zm-6.23-8.69c-1.1.62-2.87-.4-4-2.29s-1.09-3.92,0-4.54,2.87.4,4,2.28S277,235.31,275.9,235.93Z"/><polygon class="cls-41" points="143.97 332.91 58.35 271.44 84.39 259.39 170.01 320.85 143.97 332.91"/><polygon class="cls-42" points="79.19 283.08 69.52 276.13 89.93 266.68 99.6 273.63 79.19 283.08"/><polygon class="cls-43" points="91.86 292.18 82.19 285.23 102.6 275.78 112.27 282.73 91.86 292.18"/><polygon class="cls-44" points="104.53 301.27 94.86 294.33 115.27 284.88 124.94 291.82 104.53 301.27"/><polygon class="cls-45" points="117.2 310.37 107.53 303.43 127.94 293.98 137.61 300.92 117.2 310.37"/><polygon class="cls-46" points="129.88 319.47 120.21 312.53 140.62 303.08 150.28 310.02 129.88 319.47"/><polygon class="cls-47" points="142.55 328.57 132.88 321.63 153.29 312.18 162.96 319.12 142.55 328.57"/><polygon class="cls-48" points="143.97 332.91 58.35 271.44 84.39 259.39 151.22 329.55 143.97 332.91"/><polygon class="cls-49" points="118.84 337.97 54.41 268.46 83.9 259.42 148.34 328.93 118.84 337.97"/><polygon class="cls-50" points="71.15 282.11 63.88 274.26 87 267.18 94.27 275.03 71.15 282.11"/><polygon class="cls-51" points="80.69 292.4 73.41 284.55 96.53 277.46 103.81 285.32 80.69 292.4"/><polygon class="cls-52" points="90.23 302.69 82.95 294.84 106.07 287.75 113.35 295.61 90.23 302.69"/><polygon class="cls-53" points="99.77 312.98 92.49 305.13 115.61 298.04 122.89 305.89 99.77 312.98"/><polygon class="cls-54" points="109.3 323.27 102.03 315.42 125.14 308.33 132.42 316.18 109.3 323.27"/><polygon class="cls-55" points="118.84 333.56 111.56 325.7 134.68 318.62 141.96 326.47 118.84 333.56"/><polygon class="cls-56" points="118.84 337.97 54.41 268.46 83.9 259.42 127.97 335.3 118.84 337.97"/><polygon class="cls-57" points="93.05 340.8 51.44 265.78 83.32 259.99 124.93 335.01 93.05 340.8"/><polygon class="cls-58" points="63.64 280.94 58.94 272.47 83.93 267.93 88.63 276.4 63.64 280.94"/><polygon class="cls-59" points="69.8 292.05 65.1 283.57 90.09 279.04 94.79 287.51 69.8 292.05"/><polygon class="cls-60" points="75.96 303.15 71.26 294.68 96.25 290.14 100.95 298.62 75.96 303.15"/><polygon class="cls-61" points="82.12 314.26 77.42 305.79 102.41 301.25 107.11 309.72 82.12 314.26"/><polygon class="cls-62" points="88.28 325.36 83.58 316.89 108.57 312.35 113.27 320.82 88.28 325.36"/><polygon class="cls-63" points="94.44 336.47 89.74 328 114.73 323.46 119.43 331.93 94.44 336.47"/><g class="cls-64"><path class="cls-65" d="M100.92,316.56a13.54,13.54,0,0,1-6.77-1.63L5,263.7a7.17,7.17,0,0,1-3.88-6.18c0-2.75,1.71-5.31,4.68-7l50.75-29.25a16.61,16.61,0,0,1,8.21-2.09,13.48,13.48,0,0,1,6.76,1.63L160.67,272a7.16,7.16,0,0,1,3.88,6.18c0,2.75-1.7,5.31-4.67,7l-50.75,29.25A16.61,16.61,0,0,1,100.92,316.56Z"/><path class="cls-66" d="M56.85,221.41a16.39,16.39,0,0,1,11.47-1.64,14.08,14.08,0,0,1,3.43,1.34l88.85,51.07a6.55,6.55,0,0,1,3.58,6.11,7.39,7.39,0,0,1-.37,1.8,10.07,10.07,0,0,1-4.47,4.94l-50.13,28.89a16.73,16.73,0,0,1-2,1,17.12,17.12,0,0,1-6,1.14,13.25,13.25,0,0,1-6.69-1.58L5.31,263.24a6.5,6.5,0,0,1-3.57-6.12A8,8,0,0,1,2,255.59a9.94,9.94,0,0,1,4.57-5.22Z"/><path class="cls-67" d="M57.13,221.57a16.06,16.06,0,0,1,8.18-2,15.16,15.16,0,0,1,3.25.46A15.33,15.33,0,0,1,72,221.44l88.57,50.91a6,6,0,0,1,3.28,6,8.21,8.21,0,0,1-.47,1.71,11.27,11.27,0,0,1-4.54,4.74l-49.5,28.54a19.71,19.71,0,0,1-2,1,17,17,0,0,1-6,1.18,12.92,12.92,0,0,1-6.6-1.53L5.59,262.78a5.93,5.93,0,0,1-3.25-6.06,8.25,8.25,0,0,1,.38-1.46c.54-1.71,2.72-3.89,4.67-5Z"/><path class="cls-68" d="M57.42,221.74a15.48,15.48,0,0,1,8.15-1.91,14.84,14.84,0,0,1,3.23.51,17.48,17.48,0,0,1,3.36,1.42l88.29,50.75a5.46,5.46,0,0,1,3,6,9.59,9.59,0,0,1-.57,1.63c-.56,1.41-2.94,3.59-4.6,4.54l-48.88,28.18a21.25,21.25,0,0,1-2,1,16.86,16.86,0,0,1-5.88,1.22A12.63,12.63,0,0,1,95,313.55L5.87,262.32a5.4,5.4,0,0,1-2.93-6,12.64,12.64,0,0,1,.47-1.39c.54-1.5,3-3.81,4.77-4.81Z"/><path class="cls-69" d="M57.7,221.9A14.66,14.66,0,0,1,69,220.62a21.23,21.23,0,0,1,3.32,1.46l88,50.59c2.43,1.41,3.32,3.63,2.67,5.9a12,12,0,0,1-.66,1.55c-.54,1.22-3.22,3.51-4.67,4.35l-48.26,27.81c-.41.24-1.48.79-1.94,1a16.34,16.34,0,0,1-5.78,1.26,12.45,12.45,0,0,1-6.45-1.42L6.15,261.87c-2.45-1.42-3.31-3.67-2.61-6,.14-.45.37-.87.56-1.32.52-1.29,3.35-3.74,4.86-4.61Z"/><path class="cls-70" d="M58,222.06a15,15,0,0,1,8.12-1.79,14.69,14.69,0,0,1,3.18.63,26,26,0,0,1,3.29,1.51l87.73,50.42c2.42,1.4,3.18,3.62,2.36,5.83a14.75,14.75,0,0,1-.76,1.47c-.5,1-3.49,3.43-4.73,4.15l-47.64,27.45c-.35.21-1.52.82-1.91,1a16.49,16.49,0,0,1-5.69,1.29,12.11,12.11,0,0,1-6.36-1.37L6.44,261.41C4,260,3.25,257.74,4.14,255.52a6,6,0,0,1,.65-1.25c.29-1.16,3.66-3.66,5-4.41Z"/><path class="cls-71" d="M58.26,222.22a14.59,14.59,0,0,1,8.11-1.73,15,15,0,0,1,3.15.69,32.44,32.44,0,0,1,3.25,1.55L160.22,273c2.42,1.39,3.06,3.6,2.06,5.75a6.41,6.41,0,0,1-.85,1.39c-.27.91-3.77,3.35-4.81,3.95l-47,27.09c-.29.17-1.55.85-1.88,1a16,16,0,0,1-5.6,1.33,11.85,11.85,0,0,1-6.28-1.32L6.72,261c-2.45-1.42-3.06-3.66-2-5.83a6.25,6.25,0,0,1,.74-1.18c.24-1,4-3.58,5.06-4.21Z"/><path class="cls-72" d="M58.55,222.39a14.24,14.24,0,0,1,8.08-1.68,14.4,14.4,0,0,1,3.12.75c.46.14,2.85,1.38,3.23,1.59l87.16,50.11c2.41,1.39,3,3.59,1.77,5.68a6.41,6.41,0,0,1-1,1.3c-.21.74-4,3.28-4.87,3.76l-46.39,26.73c-.23.14-1.58.88-1.84,1a16,16,0,0,1-5.51,1.37,11.59,11.59,0,0,1-6.21-1.27L7,260.49c-2.45-1.41-2.94-3.66-1.66-5.77a6.05,6.05,0,0,1,.83-1.11c.19-.78,4.29-3.51,5.15-4Z"/><path class="cls-73" d="M58.83,222.55A12.74,12.74,0,0,1,70,221.74c.34.11,2.91,1.48,3.19,1.64l86.89,49.94c2.4,1.39,2.83,3.59,1.46,5.61a6.2,6.2,0,0,1-1.05,1.22c-.16.55-4.32,3.2-4.94,3.56l-45.77,26.38c-.18.1-1.62.9-1.81,1a15.77,15.77,0,0,1-5.42,1.41,11.33,11.33,0,0,1-6.13-1.22L7.29,260c-2.45-1.41-2.83-3.67-1.35-5.71a6.3,6.3,0,0,1,.92-1c.14-.58,4.6-3.43,5.25-3.8Z"/><path class="cls-74" d="M59.11,222.71A12.46,12.46,0,0,1,70.23,222c.23.08,3,1.57,3.15,1.68L160,273.48c2.4,1.38,2.72,3.59,1.16,5.55a6.86,6.86,0,0,1-1.15,1.13c-.11.37-4.59,3.12-5,3.36l-45.14,26c-.12.07-1.65.93-1.78,1a15.26,15.26,0,0,1-5.33,1.45,10.92,10.92,0,0,1-6-1.17L7.57,259.57c-2.44-1.41-2.72-3.68-1-5.65a6.69,6.69,0,0,1,1-1c.09-.39,4.91-3.35,5.34-3.6Z"/><path class="cls-75" d="M59.4,222.87a13.31,13.31,0,0,1,8-1.49,13.89,13.89,0,0,1,3,.92c.12,0,3,1.67,3.12,1.72l86.33,49.63c2.38,1.37,2.61,3.59.85,5.47a7.35,7.35,0,0,1-1.24,1.05c-.06.18-4.87,3-5.08,3.16L109.93,309l-1.75,1a15.48,15.48,0,0,1-5.23,1.48,10.77,10.77,0,0,1-6-1.11L7.85,259.12c-2.44-1.41-2.61-3.7-.71-5.6a6.8,6.8,0,0,1,1.1-.9c0-.2,5.22-3.27,5.44-3.4Z"/><path d="M97.26,309.89,8.13,258.66c-2.82-1.64-2.47-4.49.8-6.37L59.68,223c3.26-1.89,8.2-2.1,11-.46l89.13,51.23c2.83,1.63,2.48,4.48-.79,6.37L108.3,309.43C105,311.32,100.09,311.52,97.26,309.89Z"/></g><path class="cls-76" d="M109.64,309.3l50.2-28.93c2-1.15,3-2.69,3-4.31,0-.14,0-3.25,0-3.39-.17-1.87-1.6-.84-4.26-2.38L70.67,219.6c-5.16-3-13-3.31-17.45-.72L3,247.81c-2,1.15-3-.88-3,.73,0,.15,0,3.85,0,4,.16,1.88,1.59,3.82,4.25,5.35l87.92,50.7C97.36,311.56,105.17,311.88,109.64,309.3Z"/><path class="cls-77" d="M109.64,305.9,159.84,277c4.48-2.58,3.92-7.09-1.25-10.07L70.67,216.2c-5.16-3-13-3.3-17.45-.72L3,244.41C-1.45,247-.89,251.5,4.27,254.48l87.92,50.7C97.36,308.16,105.17,308.48,109.64,305.9Z"/><path class="cls-78" d="M159.84,276.53l-50.2,28.93c-4.47,2.58-12.28,2.25-17.45-.73L4.27,254C1.55,252.47.11,250.48,0,248.56c-.11,2.05,1.33,4.23,4.26,5.92l87.92,50.7c5.17,3,13,3.3,17.45.72L159.84,277c2.12-1.22,3.11-2.88,3-4.6C162.77,273.93,161.78,275.41,159.84,276.53Z"/><path class="cls-79" d="M155.73,268.34,68.17,217.85c-3.79-2.19-9.53-2.42-12.81-.53L6.21,245.64c-3.28,1.9-2.87,5.21.92,7.4L94.7,303.53c3.79,2.19,9.52,2.42,12.8.53l49.15-28.32C159.93,273.84,159.52,270.53,155.73,268.34Z"/><path class="cls-80" d="M146.35,263.84,66.86,218a12.36,12.36,0,0,0-11.16,0L7.44,245.84c-3.09,1.78-3.11,4.67,0,6.45l79.47,45.82Z"/><path d="M140.64,291.14l-7.09,4.1h0a4.18,4.18,0,0,1,1.76-3.36l3.57-2.07c1-.56,1.76,0,1.76,1.33Z"/><path class="cls-81" d="M115.3,301.82c3.52,8.58.43,18-6.91,21s-16.14-1.49-19.67-10.07-.43-18,6.91-21S111.77,293.25,115.3,301.82Z"/><path class="cls-82" d="M9.44,252.21a.24.24,0,0,1-.21-.12.25.25,0,0,1,.09-.34l2.36-1.39a.26.26,0,0,1,.35.09.25.25,0,0,1-.09.34l-2.37,1.39A.28.28,0,0,1,9.44,252.21Z"/><path class="cls-82" d="M16.22,256.11A.24.24,0,0,1,16,256a.26.26,0,0,1,.09-.35l2.36-1.39a.26.26,0,0,1,.35.09.25.25,0,0,1-.09.34l-2.37,1.4A.28.28,0,0,1,16.22,256.11Z"/><path class="cls-82" d="M23,260a.24.24,0,0,1-.21-.12.25.25,0,0,1,.08-.34l2.37-1.39a.26.26,0,0,1,.35.09.25.25,0,0,1-.09.34L23.13,260A.31.31,0,0,1,23,260Z"/><path class="cls-82" d="M29.78,263.9a.26.26,0,0,1-.22-.12.26.26,0,0,1,.09-.35L32,262a.25.25,0,0,1,.34.09.26.26,0,0,1-.08.35l-2.37,1.39A.31.31,0,0,1,29.78,263.9Z"/><path class="cls-82" d="M36.56,267.8a.26.26,0,0,1-.22-.13.25.25,0,0,1,.09-.34l2.37-1.39a.25.25,0,0,1,.34.09.25.25,0,0,1-.08.34l-2.37,1.39A.33.33,0,0,1,36.56,267.8Z"/><path class="cls-82" d="M43.34,271.69a.25.25,0,0,1-.22-.12.26.26,0,0,1,.09-.35l2.37-1.39a.25.25,0,0,1,.34.09.26.26,0,0,1-.09.35l-2.36,1.39A.31.31,0,0,1,43.34,271.69Z"/><path class="cls-82" d="M50.12,275.59a.26.26,0,0,1-.22-.13.25.25,0,0,1,.09-.34l2.37-1.39a.25.25,0,1,1,.25.43l-2.36,1.39A.22.22,0,0,1,50.12,275.59Z"/><path class="cls-82" d="M56.9,279.48a.25.25,0,0,1-.22-.12.25.25,0,0,1,.09-.34l2.37-1.4a.25.25,0,0,1,.34.09.26.26,0,0,1-.09.35L57,279.45A.27.27,0,0,1,56.9,279.48Z"/><path class="cls-82" d="M63.68,283.38a.26.26,0,0,1-.22-.13.25.25,0,0,1,.09-.34l2.37-1.39a.25.25,0,0,1,.25.43l-2.37,1.39A.19.19,0,0,1,63.68,283.38Z"/><path class="cls-82" d="M70.46,287.27a.25.25,0,0,1-.22-.12.25.25,0,0,1,.09-.34l2.37-1.39a.25.25,0,0,1,.34.08.26.26,0,0,1-.09.35l-2.37,1.39Z"/><path class="cls-82" d="M77.24,291.17A.26.26,0,0,1,77,291a.25.25,0,0,1,.09-.34l2.37-1.39a.25.25,0,1,1,.25.43l-2.37,1.39A.19.19,0,0,1,77.24,291.17Z"/><path class="cls-82" d="M84,295.06a.25.25,0,0,1-.22-.12.25.25,0,0,1,.09-.34l2.37-1.39a.25.25,0,0,1,.25.43L84.14,295A.27.27,0,0,1,84,295.06Z"/><path d="M147.87,272.24h0a6.54,6.54,0,0,0-7-.26l-39.22,22.84a2.76,2.76,0,0,0-.17,4.65h0a7.2,7.2,0,0,0,7.68.29l38.52-22.44A3,3,0,0,0,147.87,272.24Z"/><path class="cls-83" d="M147.87,271.1h0a6.54,6.54,0,0,0-7-.26l-39.22,22.84a2.76,2.76,0,0,0-.17,4.65h0a7.18,7.18,0,0,0,7.68.28l38.52-22.43A3,3,0,0,0,147.87,271.1Z"/><path d="M135.44,284l-8-5.48a2.3,2.3,0,0,0-2.47-.09l-9.73,5.67a1,1,0,0,0-.06,1.6l8,5.48a2.28,2.28,0,0,0,2.46.09l9.74-5.67A.94.94,0,0,0,135.44,284Z"/><path class="cls-84" d="M135.44,283.42l-8-5.48a2.3,2.3,0,0,0-2.47-.09l-9.73,5.66a1,1,0,0,0-.06,1.61l8,5.48a2.3,2.3,0,0,0,2.46.09l9.74-5.67A.94.94,0,0,0,135.44,283.42Z"/><path class="cls-85" d="M115.16,284.56l8,5.48a2.28,2.28,0,0,0,2.46.09l9.74-5.66a1,1,0,0,0,.42-.54.93.93,0,0,1-.42,1.09l-9.74,5.67a2.3,2.3,0,0,1-2.46-.09l-8-5.48a1,1,0,0,1-.37-1.07A.93.93,0,0,0,115.16,284.56Z"/><polygon class="cls-86" points="143.04 280.01 143.04 278.83 135.53 273.95 135.01 274.23 142.42 279.14 142.42 280.36 143.04 280.01"/><polygon points="142.69 280.29 142.69 279.11 135.18 274.23 134.66 274.5 142.07 279.42 142.07 280.63 142.69 280.29"/><polygon class="cls-87" points="115.48 296 115.48 294.83 107.97 289.95 107.45 290.22 114.86 295.14 114.86 296.35 115.48 296"/><polygon points="115.13 296.28 115.13 295.11 107.62 290.22 107.1 290.5 114.51 295.42 114.51 296.63 115.13 296.28"/><path class="cls-88" d="M130,283.49l-3.41-2.35a1.6,1.6,0,0,0-1.71-.07l-4.3,2.51a.78.78,0,0,0,0,1.32l3.4,2.35a1.6,1.6,0,0,0,1.72.06l4.3-2.5A.79.79,0,0,0,130,283.49Z"/><path class="cls-89" d="M191.13,136.76c6.17,3.57,11.18.71,11.18-6.38s-5-15.72-11.18-19.29-11.19-.71-11.19,6.38S185,133.19,191.13,136.76Zm37.55-3.53c-10.2-5.89-17.46,37.88-28.84,31.31s-15.5-26.06-24.53-31.28c-6.24-3.6-13.38,22.11-18.44,26.05v.41l95.55,55.16v-1.07C244.57,199.84,236.51,137.75,228.68,133.23Zm20.54,2.4V137l-18.63-11v-1.72L226.76,122v1.69l-14.53-8.56v-1l-3.51-2v4l3.51,2v-1.84l13.9,8.19a5.68,5.68,0,0,0-1.78.25c-3.65,1.12-6.42,5.75-8.85,10.71l-1.65-1a.5.5,0,0,0-.5,0,.48.48,0,0,0-.25.43v4.4a.48.48,0,0,0,.25.43l3.82,2.21a.59.59,0,0,0,.25.07.52.52,0,0,0,.25-.07.48.48,0,0,0,.25-.43v-4.4a.48.48,0,0,0-.25-.43l-1.3-.75c2.24-4.57,5-9.24,8.28-10.26a4.85,4.85,0,0,1,2.11-.16v.88l3.83,2.21v-1.17c3,2.72,7.35,9.33,9.89,19.87l-1.13-.66a.5.5,0,0,0-.5,0,.48.48,0,0,0-.25.43v4.39a.5.5,0,0,0,.25.44l3.82,2.21a.57.57,0,0,0,.25.06.51.51,0,0,0,.25-.06.5.5,0,0,0,.25-.44v-4.39a.48.48,0,0,0-.25-.43l-1.49-.86c-2-8.7-5.42-15.57-8.67-19.47l16.21,9.54v1.54l3.51,2v-4Zm-32.3,1.82v3.24l-2.82-1.63v-3.24Zm25.5,12.17v3.24l-2.82-1.64V148Z"/><ellipse class="cls-90" cx="189.63" cy="124.43" rx="9.1" ry="15.77" transform="translate(-36.88 112.71) rotate(-30.31)"/><path class="cls-91" d="M155.37,160.22l95.55,55.16v-1.07c-7.85-14-15.91-76.06-23.74-80.58-10.2-5.89-17.46,37.88-28.84,31.31s-15.5-26.06-24.53-31.28c-6.24-3.6-13.38,22.11-18.44,26.05Z"/><path class="cls-92" d="M247.72,136.13v1.32l-18.63-11v-1.72l-3.83-2.22v1.69l-14.53-8.56v-1l-3.51-2v4l3.51,2v-1.84l13.9,8.19a5.68,5.68,0,0,0-1.78.25C219.2,126.39,216.43,131,214,136l-1.65-1a.5.5,0,0,0-.5,0,.48.48,0,0,0-.25.43v4.4a.48.48,0,0,0,.25.43l3.82,2.21a.59.59,0,0,0,.25.07.52.52,0,0,0,.25-.07.48.48,0,0,0,.25-.43v-4.4a.48.48,0,0,0-.25-.43l-1.3-.75c2.24-4.57,5-9.24,8.28-10.26a4.85,4.85,0,0,1,2.11-.16v.88l3.83,2.21V128c3,2.72,7.35,9.33,9.89,19.87l-1.13-.66a.5.5,0,0,0-.5,0,.48.48,0,0,0-.25.43V152a.5.5,0,0,0,.25.44l3.82,2.21a.57.57,0,0,0,.25.06.51.51,0,0,0,.25-.06.5.5,0,0,0,.25-.44v-4.39a.48.48,0,0,0-.25-.43l-1.49-.86c-2-8.7-5.42-15.57-8.67-19.47l16.21,9.54v1.54l3.51,2v-4Zm-32.3,5.06-2.82-1.63v-3.24l2.82,1.63Zm25.5,12.17-2.82-1.64v-3.23l2.82,1.63Z"/><path class="cls-93" d="M58.44,254.43a13.79,13.79,0,0,1-6.78-1.63c-1.91-1.1-3-2.6-3-4.2s1-3.08,2.92-4.16a13.55,13.55,0,0,1,6.7-1.61,13.79,13.79,0,0,1,6.78,1.63c1.91,1.1,3,2.59,3,4.2s-1,3.07-2.92,4.16A13.58,13.58,0,0,1,58.44,254.43Zm-.12-10.6a12.6,12.6,0,0,0-6.2,1.47c-1.56.9-2.42,2.07-2.42,3.3s.87,2.42,2.46,3.33a13.85,13.85,0,0,0,12.48,0c1.56-.9,2.42-2.07,2.42-3.3s-.87-2.42-2.46-3.34A12.82,12.82,0,0,0,58.32,243.83Z"/><path class="cls-94" d="M69.68,276.81l-.88-.3,0-.31c-.19-1.23-1.92-3.71-3.59-6.1-2.46-3.5-5-7.12-4.55-9.16a1.79,1.79,0,0,1,.89-1.19c2.44-1.41,6-1.36,9.87-1.3,4.2.06,8.53.12,11.7-1.7a1.87,1.87,0,0,0,1-1.24c.49-2.17-2.3-6.2-4.54-9.43a.5.5,0,1,1,.82-.57c2.48,3.57,5.28,7.62,4.69,10.22a2.83,2.83,0,0,1-1.43,1.88c-3.4,2-7.88,1.9-12.22,1.84-3.67-.06-7.15-.11-9.35,1.16a.82.82,0,0,0-.41.55c-.35,1.6,2.27,5.35,4.39,8.37,1.74,2.48,3.26,4.66,3.67,6.14l43.35-25a.49.49,0,0,1,.68.18.51.51,0,0,1-.18.69Z"/><path class="cls-95" d="M81.23,244c-.79.42-3.24,1-3.66.25s1.34-2.67,2.13-3.09A1.61,1.61,0,1,1,81.23,244Z"/><path class="cls-96" d="M95.13,241.06c4.15-2.18-1.4-12.89-5.95-10.26s-9.54,9.44-9.54,9.44h0a2.26,2.26,0,0,0-.09,2.77,2.15,2.15,0,0,0,2.36,1.45h0S91,243.25,95.13,241.06Z"/><path class="cls-97" d="M126,224l-5.69-10.56L89.1,230.78h0l0,0c-1.7.91-1.8,4-.23,6.93s4.22,4.54,5.92,3.62l0,0h0Z"/><path class="cls-98" d="M126,224c-1.7.91-4.35-.71-5.92-3.62s-1.47-6,.23-6.94,4.35.71,5.92,3.63S127.71,223.13,126,224Z"/><path class="cls-99" d="M170.3,199l-4.61-8.55-45.42,23.1h0l0,0c-1.69.91-1.8,4-.23,6.93s4.22,4.54,5.92,3.63l0,0h0Z"/><path class="cls-100" d="M170.28,199c-1.37.74-3.52-.57-4.79-2.93s-1.19-4.88.18-5.62,3.53.57,4.8,2.93S171.66,198.3,170.28,199Z"/><path class="cls-101" d="M165.69,196.07c-1.27-2.37-1.19-4.88.18-5.62l.1,0a1.42,1.42,0,0,0-.45.16c-1.38.74-1.46,3.25-.19,5.61s3.32,3.61,4.7,3C168.67,199.45,166.83,198.18,165.69,196.07Z"/><path class="cls-102" d="M128,271.33l-39.5-23.56a4.64,4.64,0,0,0-.47-.24,65.65,65.65,0,0,0-9.12-3.87h0c-.63-.21-1,0-.79.72a3.46,3.46,0,0,0,1.37,2h0s5.84,4.83,9.62,7.34a3.8,3.8,0,0,0,.64.46l0,0h0L129.43,278Z"/><path class="cls-103" d="M100.71,256.4,83,245.83l-.21-.11A30.53,30.53,0,0,0,78.69,244h0c-.28-.09-.14.87.26,1.23h0s2.62,2.17,4.32,3.29a1.7,1.7,0,0,0,.28.21h0l17.79,10.68Z"/><path class="cls-104" d="M163.07,194.36c.66,1.24-9.39,7.84-19.26,13s-18.38,8.37-19,7.12,6.81-6.45,16.68-11.63S162.42,193.11,163.07,194.36Z"/><rect class="cls-105" x="87.23" y="224.42" width="32.54" height="3.5" rx="1.25" transform="translate(-95.53 76.99) rotate(-28.56)"/><rect class="cls-106" x="90.75" y="226.55" width="19.06" height="2.59" rx="0.92" transform="translate(-96.72 75.66) rotate(-28.56)"/><path class="cls-107" d="M108.65,223.3a1.23,1.23,0,0,0-.48-.48,1.81,1.81,0,0,1,.18.21,1.3,1.3,0,0,1-.52,1.76l-14.46,7.87a1.3,1.3,0,0,1-1.28,0,1.27,1.27,0,0,0,1.58.3l14.46-7.87A1.29,1.29,0,0,0,108.65,223.3Z"/><path class="cls-108" d="M162.42,192.5,89.48,231.2a4.47,4.47,0,0,0-.51.38c-4.38,2.84-9.33,8.66-9.33,8.66h0a2.26,2.26,0,0,0-.09,2.77,2.15,2.15,0,0,0,2.36,1.45h0s7.58-1,12-2.86a2.2,2.2,0,0,0,.79-.24l0,0h0L167,200.85Z"/><path class="cls-109" d="M92.08,233.48c3.7-2.91,2-5.33-2.07-2s-9.54,8.71-9.54,8.71h0c-.63.6-.93,1.07-.73,1.33s.52.16,1.46-.41h0S88.39,236.38,92.08,233.48Z"/><path class="cls-110" d="M93.78,240.87c3.86-1.15,3.51-2.88-.79-1.57S82.57,243,82.57,243h0c-.7.26-1.1.49-1,.68s.33.18,1.24,0h0S89.93,242,93.78,240.87Z"/><polygon class="cls-111" points="213.94 56.29 129.72 7.49 99.08 25.69 99.08 54.4 183.24 103.08 183.24 103.09 183.25 103.08 183.26 103.09 183.26 103.08 213.94 84.99 213.94 56.29"/><g class="cls-12"><polygon class="cls-112" points="183.24 74.54 183.24 103.09 191.51 98.31 191.51 69.61 183.24 74.54"/><polygon class="cls-113" points="183.26 74.54 183.26 103.09 99.08 54.4 99.08 25.69 183.26 74.54"/><polygon class="cls-114" points="99.08 25.69 183.26 74.54 191.51 69.61 107.29 20.81 99.08 25.69"/></g><polygon class="cls-42" points="114.54 58.62 104.84 53.02 104.84 34.03 114.54 39.63 114.54 58.62"/><polygon class="cls-43" points="127.25 65.95 117.55 60.35 117.55 41.37 127.25 46.97 127.25 65.95"/><polygon class="cls-44" points="139.96 73.29 130.26 67.69 130.26 48.71 139.96 54.31 139.96 73.29"/><polygon class="cls-45" points="152.67 80.63 142.97 75.03 142.97 56.05 152.67 61.65 152.67 80.63"/><polygon class="cls-46" points="165.38 87.97 155.68 82.37 155.68 63.38 165.38 68.98 165.38 87.97"/><polygon class="cls-47" points="178.09 95.31 168.39 89.71 168.39 70.72 178.09 76.32 178.09 95.31"/></g></g></svg>