<svg id="Layer_1" data-name="Layer 1" xmlns="http://www.w3.org/2000/svg" viewBox="0 0 236.53 230.62"><defs><style>.cls-1{fill:#00e5ff;}</style></defs><path class="cls-1" d="M161.2,184c6.07,7.7,13.36,16.4,13.36,16.4,44.76-1.41,62-30.78,62-30.78,0-65.2-29.16-118.06-29.16-118.06-29.16-21.87-56.91-21.26-56.91-21.26l-2.83,3.24C182.06,44,198.05,59.22,198.05,59.22a164.77,164.77,0,0,0-61-19.44,171.39,171.39,0,0,0-40.91.4,19.22,19.22,0,0,0-3.44.41c-7.09.6-24.3,3.24-46,12.75-7.49,3.45-12,5.88-12,5.88s16.81-16,53.26-26.53l-2-2.43s-27.75-.61-56.91,21.26c0,0-29.16,52.86-29.16,118.06,0,0,17,29.37,61.77,30.78,0,0,7.49-9.11,13.56-16.8-25.72-7.7-35.44-23.9-35.44-23.9s2,1.42,5.67,3.44a2.79,2.79,0,0,0,.81.61c.61.41,1.22.61,1.83,1A117.32,117.32,0,0,0,63,171.61a170.22,170.22,0,0,0,29.77,8.71,142.09,142.09,0,0,0,52.45.2,133.29,133.29,0,0,0,29.36-8.71,115.52,115.52,0,0,0,23.29-11.95S187.73,176.47,161.2,184ZM80.4,150.75c-11.34,0-20.66-10.13-20.66-22.48s9.11-22.48,20.66-22.48,20.85,10.13,20.65,22.48C101.05,140.62,91.94,150.75,80.4,150.75Zm73.91,0c-11.34,0-20.65-10.13-20.65-22.48s9.11-22.48,20.65-22.48S175,115.92,175,128.27,165.85,150.75,154.31,150.75Z"/></svg>