<svg xmlns="http://www.w3.org/2000/svg" xmlns:xlink="http://www.w3.org/1999/xlink" viewBox="0 0 172.51 157.05"><defs><style>.cls-1{isolation:isolate;}.cls-2{fill:url(#New_Gradient_Swatch_copy_3);}.cls-3{fill:url(#New_Gradient_Swatch_copy_13);}.cls-11,.cls-15,.cls-25,.cls-27,.cls-28,.cls-4,.cls-5,.cls-9{mix-blend-mode:multiply;}.cls-4{fill:url(#radial-gradient);}.cls-11,.cls-15,.cls-27,.cls-28,.cls-5{opacity:0.5;}.cls-5{fill:url(#linear-gradient);}.cls-6{fill:url(#radial-gradient-2);}.cls-7{fill:url(#radial-gradient-3);}.cls-8{fill:#e6e7e8;}.cls-10{fill:url(#radial-gradient-4);}.cls-11{fill:url(#linear-gradient-2);}.cls-12{fill:url(#radial-gradient-5);}.cls-13{fill:url(#radial-gradient-6);}.cls-14{fill:url(#New_Gradient_Swatch_copy_3-2);}.cls-15{fill:url(#linear-gradient-3);}.cls-16{fill:url(#radial-gradient-7);}.cls-17{fill:#311b61;}.cls-18{fill:#3f237d;}.cls-19{fill:#522ea3;}.cls-20{fill:url(#radial-gradient-8);}.cls-21{fill:#6b24d6;}.cls-22,.cls-26,.cls-33{mix-blend-mode:screen;}.cls-22{fill:url(#White_Black_Radial);}.cls-23{fill:url(#New_Gradient_Swatch_copy_29);}.cls-24{fill:url(#linear-gradient-4);}.cls-25{opacity:0.8;fill:url(#linear-gradient-5);}.cls-26{opacity:0.6;fill:url(#linear-gradient-6);}.cls-27{fill:url(#linear-gradient-7);}.cls-28{fill:url(#linear-gradient-8);}.cls-29{fill:url(#linear-gradient-9);}.cls-30{fill:url(#linear-gradient-10);}.cls-31,.cls-38,.cls-39,.cls-42,.cls-43{mix-blend-mode:color-dodge;}.cls-31{fill:url(#radial-gradient-9);}.cls-32{fill:url(#linear-gradient-11);}.cls-33{fill:url(#White_Black_Radial-2);}.cls-34{fill:url(#linear-gradient-12);}.cls-35{fill:url(#linear-gradient-13);}.cls-36{fill:url(#linear-gradient-14);}.cls-37{fill:url(#linear-gradient-15);}.cls-38{fill:url(#radial-gradient-10);}.cls-39{fill:url(#radial-gradient-11);}.cls-40{fill:url(#linear-gradient-16);}.cls-41{fill:url(#linear-gradient-17);}.cls-42{fill:url(#radial-gradient-12);}.cls-43{fill:url(#radial-gradient-13);}.cls-44{opacity:0.9;}.cls-45{fill:url(#linear-gradient-18);}.cls-46{fill:url(#linear-gradient-19);}.cls-47{fill:url(#linear-gradient-20);}.cls-48{fill:#fff;}.cls-49{fill:url(#linear-gradient-21);}.cls-50{fill:url(#linear-gradient-22);}.cls-51{fill:url(#linear-gradient-23);}.cls-52{fill:url(#linear-gradient-24);}.cls-53{fill:url(#linear-gradient-25);}.cls-54{fill:url(#linear-gradient-26);}</style><radialGradient id="New_Gradient_Swatch_copy_3" cx="139.73" cy="96.04" r="49.2" gradientUnits="userSpaceOnUse"><stop offset="0" stop-color="#2af6ff"/><stop offset="1" stop-color="#138bbd"/></radialGradient><linearGradient id="New_Gradient_Swatch_copy_13" x1="131.3" y1="140.6" x2="128.16" y2="95.71" gradientUnits="userSpaceOnUse"><stop offset="0.04" stop-color="#6b24d6"/><stop offset="0.29" stop-color="#7733dc"/><stop offset="0.79" stop-color="#975ced"/><stop offset="1" stop-color="#a56ef4"/></linearGradient><radialGradient id="radial-gradient" cx="258.94" cy="-939.47" r="17.91" gradientTransform="matrix(1.15, 0.28, -0.18, 0.76, -335.04, 734.02)" gradientUnits="userSpaceOnUse"><stop offset="0.19" stop-color="#5f5c5d"/><stop offset="1" stop-color="#fff"/></radialGradient><linearGradient id="linear-gradient" x1="113.83" y1="110.18" x2="126.84" y2="110.18" gradientUnits="userSpaceOnUse"><stop offset="0" stop-color="#fff"/><stop offset="1" stop-color="#bcbec0"/></linearGradient><radialGradient id="radial-gradient-2" cx="130.64" cy="99.82" r="37.4" gradientUnits="userSpaceOnUse"><stop offset="0" stop-color="#fff"/><stop offset="0.73" stop-color="#d4d1d8"/><stop offset="0.98" stop-color="#c2c0cc"/></radialGradient><radialGradient id="radial-gradient-3" cx="147.48" cy="109.39" r="43.96" xlink:href="#radial-gradient-2"/><radialGradient id="radial-gradient-4" cx="133.17" cy="87.21" r="97.05" gradientUnits="userSpaceOnUse"><stop offset="0.38" stop-color="#fff"/><stop offset="0.46" stop-color="#f9f8fb"/><stop offset="0.58" stop-color="#e8e3f1"/><stop offset="0.73" stop-color="#cbc2e1"/><stop offset="0.89" stop-color="#a593ca"/><stop offset="1" stop-color="#8770b8"/></radialGradient><linearGradient id="linear-gradient-2" x1="106.21" y1="122.62" x2="106.97" y2="84.17" xlink:href="#linear-gradient"/><radialGradient id="radial-gradient-5" cx="133.17" cy="87.21" r="97.04" xlink:href="#radial-gradient-4"/><radialGradient id="radial-gradient-6" cx="133.17" cy="87.18" r="97.09" gradientUnits="userSpaceOnUse"><stop offset="0.38" stop-color="#fff"/><stop offset="0.47" stop-color="#f4f2f9"/><stop offset="0.63" stop-color="#d8d0e8"/><stop offset="0.85" stop-color="#a9c"/><stop offset="1" stop-color="#8770b8"/></radialGradient><radialGradient id="New_Gradient_Swatch_copy_3-2" cx="132.85" cy="95.06" r="44.62" xlink:href="#New_Gradient_Swatch_copy_3"/><linearGradient id="linear-gradient-3" x1="129.83" y1="118.23" x2="158.37" y2="118.23" xlink:href="#linear-gradient"/><radialGradient id="radial-gradient-7" cx="145.53" cy="99.51" r="60.79" xlink:href="#radial-gradient-2"/><radialGradient id="radial-gradient-8" cx="128.2" cy="87.22" r="96.69" xlink:href="#radial-gradient-2"/><radialGradient id="White_Black_Radial" cx="130.5" cy="98.19" r="9" gradientUnits="userSpaceOnUse"><stop offset="0" stop-color="#fff"/><stop offset="1"/></radialGradient><radialGradient id="New_Gradient_Swatch_copy_29" cx="128.57" cy="63.45" r="26.8" gradientUnits="userSpaceOnUse"><stop offset="0.03" stop-color="#fedfcb"/><stop offset="1" stop-color="#f9b69e"/></radialGradient><linearGradient id="linear-gradient-4" x1="141.83" y1="84" x2="130.57" y2="19.79" gradientUnits="userSpaceOnUse"><stop offset="0.04" stop-color="#25054d"/><stop offset="0.16" stop-color="#2d085c"/><stop offset="0.4" stop-color="#420f85"/><stop offset="0.43" stop-color="#45108a"/><stop offset="1" stop-color="#a56ef4"/></linearGradient><linearGradient id="linear-gradient-5" x1="135.63" y1="92.86" x2="125.42" y2="82.79" gradientUnits="userSpaceOnUse"><stop offset="0" stop-color="#fff"/><stop offset="1" stop-color="#dbac9b"/></linearGradient><linearGradient id="linear-gradient-6" x1="114.91" y1="54.98" x2="125.94" y2="65.43" xlink:href="#White_Black_Radial"/><linearGradient id="linear-gradient-7" x1="148.45" y1="66.39" x2="152.96" y2="64.26" xlink:href="#linear-gradient"/><linearGradient id="linear-gradient-8" x1="129.19" y1="65.96" x2="124.89" y2="41.46" xlink:href="#linear-gradient"/><linearGradient id="linear-gradient-9" x1="29.85" y1="80.2" x2="29.86" y2="80.2" gradientUnits="userSpaceOnUse"><stop offset="0" stop-color="#ffbb96"/><stop offset="0.23" stop-color="#fffbc9"/><stop offset="0.54" stop-color="#f9b673"/><stop offset="0.64" stop-color="#f9b876"/><stop offset="0.72" stop-color="#fabe81"/><stop offset="0.81" stop-color="#fcc993"/><stop offset="0.86" stop-color="#fed2a3"/><stop offset="0.97" stop-color="#ffc28c"/></linearGradient><linearGradient id="linear-gradient-10" x1="49.37" y1="80.2" x2="49.37" y2="80.2" xlink:href="#linear-gradient-9"/><radialGradient id="radial-gradient-9" cx="15061.23" cy="-9805.1" r="13.85" gradientTransform="matrix(0.05, -0.14, 0.29, 0.1, 2116.94, 3177.79)" gradientUnits="userSpaceOnUse"><stop offset="0" stop-color="#f49587"/><stop offset="0.12" stop-color="#bd7368"/><stop offset="0.24" stop-color="#8b554d"/><stop offset="0.36" stop-color="#603b35"/><stop offset="0.48" stop-color="#3e2622"/><stop offset="0.61" stop-color="#231513"/><stop offset="0.74" stop-color="#0f0908"/><stop offset="0.86" stop-color="#040202"/><stop offset="1"/></radialGradient><linearGradient id="linear-gradient-11" x1="29.95" y1="81.87" x2="49.16" y2="81.87" gradientUnits="userSpaceOnUse"><stop offset="0" stop-color="#e3e3d8"/><stop offset="0.23" stop-color="#fff"/><stop offset="0.54" stop-color="#d4d1c5"/><stop offset="0.7" stop-color="#d7d4c8"/><stop offset="0.83" stop-color="#e0ded3"/><stop offset="0.87" stop-color="#e3e2d7"/><stop offset="1" stop-color="#cccaba"/><stop offset="1" stop-color="#cbc9b9"/></linearGradient><radialGradient id="White_Black_Radial-2" cx="35.42" cy="81.05" r="12.27" xlink:href="#White_Black_Radial"/><linearGradient id="linear-gradient-12" x1="57.65" y1="58.73" x2="38.56" y2="77.94" gradientUnits="userSpaceOnUse"><stop offset="0.04" stop-color="#d4d1d8"/><stop offset="0.42" stop-color="#e2e0e5"/><stop offset="1" stop-color="#fff"/></linearGradient><linearGradient id="linear-gradient-13" x1="31.7" y1="77.22" x2="46.75" y2="77.22" xlink:href="#linear-gradient-11"/><linearGradient id="linear-gradient-14" x1="15.54" y1="63.07" x2="20.02" y2="70.82" gradientUnits="userSpaceOnUse"><stop offset="0" stop-color="#c211a1"/><stop offset="0.05" stop-color="#c718a5"/><stop offset="0.11" stop-color="#d72db0"/><stop offset="0.2" stop-color="#ef4ec2"/><stop offset="0.24" stop-color="#ff63ce"/><stop offset="0.32" stop-color="#eb48bf"/><stop offset="0.45" stop-color="#c211a1"/><stop offset="0.54" stop-color="#a919ab"/><stop offset="0.64" stop-color="#ac1bab"/><stop offset="0.73" stop-color="#b723ab"/><stop offset="0.82" stop-color="#c92faa"/><stop offset="0.88" stop-color="#dc3daa"/><stop offset="0.95" stop-color="#cd24a5"/><stop offset="1" stop-color="#c211a1"/></linearGradient><linearGradient id="linear-gradient-15" x1="5.6" y1="69.67" x2="10.12" y2="77.49" gradientUnits="userSpaceOnUse"><stop offset="0" stop-color="#e3e3d8"/><stop offset="0.18" stop-color="#fff"/><stop offset="0.54" stop-color="#d4d1c5"/><stop offset="0.7" stop-color="#d7d4c8"/><stop offset="0.83" stop-color="#e0ded3"/><stop offset="0.87" stop-color="#e3e2d7"/><stop offset="1" stop-color="#cccaba"/><stop offset="1" stop-color="#cbc9b9"/></linearGradient><radialGradient id="radial-gradient-10" cx="44093.07" cy="897.31" r="20.2" gradientTransform="matrix(-0.04, -0.08, 0.26, -0.15, 1695.29, 3591.42)" xlink:href="#radial-gradient-9"/><radialGradient id="radial-gradient-11" cx="2.15" cy="73.82" r="3.48" gradientTransform="matrix(1, 0, 0, 1, 0, 0)" xlink:href="#radial-gradient-9"/><linearGradient id="linear-gradient-16" x1="4145.37" y1="53.9" x2="4149.84" y2="61.65" gradientTransform="matrix(-1, 0, 0, 1, 4184.67, 0)" xlink:href="#linear-gradient-15"/><linearGradient id="linear-gradient-17" x1="4135.43" y1="60.5" x2="4139.94" y2="68.32" gradientTransform="matrix(-1, 0, 0, 1, 4184.67, 0)" xlink:href="#linear-gradient-14"/><radialGradient id="radial-gradient-12" cx="21181.92" cy="12783.47" r="20.2" gradientTransform="matrix(0.04, -0.08, -0.26, -0.15, 2489.38, 3591.42)" xlink:href="#radial-gradient-9"/><radialGradient id="radial-gradient-13" cx="4131.98" cy="64.64" r="3.48" gradientTransform="matrix(-1, 0, 0, 1, 4184.67, 0)" xlink:href="#radial-gradient-9"/><linearGradient id="linear-gradient-18" x1="84.33" y1="99.38" x2="119.72" y2="88.79" gradientUnits="userSpaceOnUse"><stop offset="0.04" stop-color="#9f19ab"/><stop offset="0.24" stop-color="#ae25b1"/><stop offset="0.65" stop-color="#d744bf"/><stop offset="1" stop-color="#ff63ce"/></linearGradient><linearGradient id="linear-gradient-19" x1="30.43" y1="103.79" x2="111.5" y2="85.62" xlink:href="#linear-gradient-18"/><linearGradient id="linear-gradient-20" x1="87.16" y1="56.57" x2="74.47" y2="80.76" xlink:href="#linear-gradient-18"/><linearGradient id="linear-gradient-21" x1="84.33" y1="65.24" x2="119.72" y2="54.65" xlink:href="#linear-gradient-18"/><linearGradient id="linear-gradient-22" x1="30.43" y1="69.65" x2="111.5" y2="51.48" xlink:href="#linear-gradient-18"/><linearGradient id="linear-gradient-23" x1="87.16" y1="22.43" x2="74.47" y2="46.62" xlink:href="#linear-gradient-18"/><linearGradient id="linear-gradient-24" x1="84.33" y1="30.29" x2="119.72" y2="19.69" xlink:href="#linear-gradient-18"/><linearGradient id="linear-gradient-25" x1="30.43" y1="34.69" x2="111.5" y2="16.52" xlink:href="#linear-gradient-18"/><linearGradient id="linear-gradient-26" x1="87.16" y1="-12.53" x2="74.47" y2="11.66" xlink:href="#linear-gradient-18"/></defs><g class="cls-1"><g id="_1" data-name=" 1"><path class="cls-2" d="M138.73,86.22c-10.57-6.14-22-5.69-30.27-1s-9.25,38.82-5.38,41.48,34.78,19.7,40,22.82c6.06,3.61,28.76-.92,28.76-7.22,0-3.76,1-33.49-7.22-40.37C159.62,97.73,149.37,92.4,138.73,86.22Z"/><polygon class="cls-3" points="130.57 95.84 125.76 102.04 127.39 108.73 123.64 138.74 129.12 141.87 130.66 110.19 136.28 104.08 134.33 96.33 130.57 95.84"/><path class="cls-4" d="M155.61,102.47c-1.81,7.49-12.47,11.34-23.83,8.61s-19.1-11-17.3-18.51S127,81.23,138.3,84,157.41,95,155.61,102.47Z"/><path class="cls-5" d="M121,111.91c-1.18-16.07,4.08-25.77,5.8-30a29.92,29.92,0,0,0-8.94-.35,56.16,56.16,0,0,0-3.55,28.59,149.22,149.22,0,0,0,6.75,27.06l3,1.72C122.44,132.43,121.68,120.72,121,111.91Z"/><path class="cls-6" d="M120.2,111.53c-1.21-16.62,3.85-24.83,5.37-28.78,2.72.08,0-1.39,2.8-.7-8.08-2-15.48-1.1-20.82,2.74s-7.2,12.79-7.51,22.48c-.27,8.25.51,17.57,2.13,19,2.5,2.21,10.68,6.26,21.07,12.31C121.61,132.06,120.85,120.34,120.2,111.53Z"/><path class="cls-7" d="M165.39,102c-3.93-3.31-11.85-7.36-19.9-11.91,2.47,1.4,2.57,2.41,4.8,3.71-1.76,5.55-5.37,9.22-9.82,16.61-5.23,8.68-9.83,25-11,31.8,6.36,3.7,11.77,6.83,13.63,7.95,7.91,4.73,29.37-1.53,29.37-7.83C172.46,138.57,173.57,108.89,165.39,102Z"/><path class="cls-8" d="M129.38,142.17l-4.79-2.79Z"/><g class="cls-9"><path class="cls-10" d="M120.2,111.53c-1.21-16.62,3.85-24.83,5.37-28.78,2.72.08,0-1.39,2.8-.7-8.08-2-15.48-1.1-20.82,2.74s-7.2,12.79-7.51,22.48c-.27,8.25.51,17.57,2.13,19,2.5,2.21,10.68,6.26,21.07,12.31C121.61,132.06,120.85,120.34,120.2,111.53Z"/><path class="cls-11" d="M105.26,104.61c.54-8,1.93-15.63,4.83-21.13-3.94,4.28-5.73,11.92-6.42,20.16s-.38,17.57,1.16,19.08c.2.2.46.42.74.65A101.43,101.43,0,0,1,105.26,104.61Z"/><path class="cls-12" d="M165.39,102c-3.93-3.31-11.85-7.36-19.9-11.91,2.47,1.4,2.57,2.41,4.8,3.71-1.76,5.55-5.37,9.22-9.82,16.61-5.23,8.68-9.83,25-11,31.8,6.36,3.7,11.77,6.83,13.63,7.95,7.91,4.73,29.37-1.53,29.37-7.83C172.46,138.57,173.57,108.89,165.39,102Z"/><path class="cls-13" d="M129.38,142.17l-4.79-2.79Z"/></g><path class="cls-14" d="M127.09,84.37c-3,1-5.5,5.88-5.16,11.86.4,7.19,2.63,9.62,2.63,9.62l6.59-9.62,3.91,12.25s6-1.63,9.86-5.46,7.3-7.5,5.27-10.73C147.76,88.42,131,83.08,127.09,84.37Z"/><path class="cls-15" d="M150.78,92.71c-1.9,5.28-5.66,11.15-9.93,18.23-5.23,8.68-9.83,25-11,31.8l1.75,1a109.82,109.82,0,0,1,9-21.15,179,179,0,0,1,17.83-25.34C156.18,96,153.31,94.11,150.78,92.71Z"/><path class="cls-16" d="M150.4,92.17c-1.9,5.29-5.66,11.16-9.93,18.24-5.23,8.68-9.83,25-11,31.8l1.74,1a110.11,110.11,0,0,1,9-21.16A177.37,177.37,0,0,1,158,96.74C155.8,95.46,152.93,93.58,150.4,92.17Z"/><path class="cls-17" d="M144.94,126.32H142.4c0-9,2.83-18.46,8.41-27.95,2.57-4.38,2.57-4.38-10.16-11.89l-.53-.31c-13.63-8-21.93-6.39-24.89-2.53s-2.84,20.21-2.6,26.26l-2.54.1c-.09-2.32-.8-22.79,3.12-27.9,3.77-4.92,13.16-7,28.21,1.88l.52.31c12.93,7.63,14.92,8.8,11.06,15.37C147.65,108.76,144.94,117.73,144.94,126.32Z"/><path class="cls-18" d="M142.94,125.15c.16-8.68,2.95-17.7,8.3-26.8,3-5,2.46-5.33-10.43-12.94l-.53-.31c-6.47-3.82-12.44-5.84-17.28-5.84-3.81,0-6.86,1.24-8.6,3.51-3.21,4.19-2.89,22.06-2.78,26l-1,0c-.29-8.44,0-22.78,3-26.64,2-2.54,5.28-3.94,9.37-3.94,5.09,0,11.09,2,17.84,6l.53.31c13.26,7.83,14.18,8.56,10.79,14.34-5.26,8.94-8,17.78-8.16,26.28Z"/><path class="cls-19" d="M143.23,124.61c.22-8.5,3-17.32,8.23-26.22,3.16-5.37,2.38-5.83-10.56-13.47l-.53-.31c-6.53-3.85-12.57-5.89-17.48-5.89-3.93,0-7.09,1.3-8.9,3.66-3.15,4.1-3,20.35-2.87,25.85h-.26c-.25-8.11.09-22.32,2.93-26,1.87-2.44,5.09-3.78,9.07-3.78,5,0,11,2,17.64,6l.53.31c13.42,7.92,13.82,8.44,10.65,13.81-5.21,8.87-8,17.65-8.2,26.1Z"/><path class="cls-20" d="M120.2,111.53c-1.17-16.07,4.08-25.77,5.8-30a29.91,29.91,0,0,0-8.94-.35,56.3,56.3,0,0,0-3.54,28.59,149.08,149.08,0,0,0,6.74,27.06l3,1.72C121.61,132.06,120.85,120.34,120.2,111.53Z"/><path class="cls-17" d="M108,109c0-2.1,1.48-2.94,3.31-1.88a7.26,7.26,0,0,1,3.31,5.7c0,2.1-1.48,2.94-3.31,1.89A7.29,7.29,0,0,1,108,109Z"/><path class="cls-8" d="M162.81,101.24c-4.71,1.07-10.59,5.93-11.55,15-.89,8.36-.46,28.42-.46,28.42s-3.15-26.38.15-34.65c3.55-8.87,9.88-9.88,9.88-9.88Z"/><path class="cls-21" d="M151,155.46h-1.9V137A13.36,13.36,0,0,0,143,126.58c-1.44-.83-2.75-1-3.68-.46s-1.42,1.72-1.42,3.36v18.44H136V129.48c0-2.35.85-4.13,2.38-5s3.52-.73,5.58.46A15.24,15.24,0,0,1,151,137Z"/><path class="cls-21" d="M137,149.5a1.58,1.58,0,0,1-1.58-1.58v-1.1a1.59,1.59,0,0,1,3.17,0v1.1A1.59,1.59,0,0,1,137,149.5Z"/><path class="cls-21" d="M150,157.05a1.59,1.59,0,0,1-1.59-1.59v-1.09a1.59,1.59,0,1,1,3.18,0v1.09A1.59,1.59,0,0,1,150,157.05Z"/><path class="cls-17" d="M150,138.29a1.27,1.27,0,0,1-1.27-1.27,13.19,13.19,0,0,0-5.9-10.16c-1.32-.77-2.55-.94-3.36-.47s-1.26,1.59-1.26,3.09a1.28,1.28,0,0,1-2.55,0c0-2.47.9-4.34,2.54-5.29s3.74-.78,5.9.47A15.58,15.58,0,0,1,151.3,137,1.27,1.27,0,0,1,150,138.29Z"/><path class="cls-18" d="M149.71,137.43a.51.51,0,0,1-.51-.51,14,14,0,0,0-6.28-10.83,5.49,5.49,0,0,0-2.67-.83,2.87,2.87,0,0,0-1.45.37c-1,.6-1.64,2-1.64,3.74a.51.51,0,0,1-1,0c0-2.18.76-3.82,2.15-4.62a3.82,3.82,0,0,1,2-.51,6.46,6.46,0,0,1,3.18,1,14.75,14.75,0,0,1,6.79,11.71A.51.51,0,0,1,149.71,137.43Z"/><path class="cls-19" d="M149.71,137a.12.12,0,0,1-.13-.12,14.49,14.49,0,0,0-6.46-11.16,6,6,0,0,0-2.87-.88,3.2,3.2,0,0,0-1.64.42c-1.17.67-1.83,2.16-1.83,4.08a.13.13,0,0,1-.26,0c0-2,.7-3.57,2-4.3a3.54,3.54,0,0,1,1.77-.46,6,6,0,0,1,3,.92,14.34,14.34,0,0,1,6.6,11.38A.12.12,0,0,1,149.71,137Z"/><path class="cls-17" d="M137,149.5a1.58,1.58,0,0,1-1.58-1.58v-1.1a1.59,1.59,0,0,1,3.17,0v1.1A1.59,1.59,0,0,1,137,149.5Z"/><path class="cls-18" d="M136.7,148.3a.7.7,0,0,1-.7-.7v-1.09a.7.7,0,1,1,1.4,0v1.09A.7.7,0,0,1,136.7,148.3Z"/><path class="cls-19" d="M136.44,147.6a.18.18,0,0,1-.19-.19v-1.09a.19.19,0,0,1,.19-.19.2.2,0,0,1,.19.19v1.09A.19.19,0,0,1,136.44,147.6Z"/><path class="cls-17" d="M150,157.05a1.59,1.59,0,0,1-1.59-1.59v-1.09a1.59,1.59,0,1,1,3.18,0v1.09A1.59,1.59,0,0,1,150,157.05Z"/><path class="cls-18" d="M149.77,155.84a.7.7,0,0,1-.7-.7v-1.09a.7.7,0,1,1,1.39,0v1.09A.69.69,0,0,1,149.77,155.84Z"/><path class="cls-19" d="M149.5,155.14a.18.18,0,0,1-.19-.18v-1.1a.19.19,0,0,1,.38,0V155A.18.18,0,0,1,149.5,155.14Z"/><path class="cls-18" d="M112.92,110.88c0,1.27-.91,1.79-2,1.15a4.44,4.44,0,0,1-2-3.48c0-1.28.9-1.8,2-1.15A4.45,4.45,0,0,1,112.92,110.88Z"/><path class="cls-19" d="M112.52,109.9c0,1.28-.9,1.8-2,1.15a4.42,4.42,0,0,1-2-3.47c0-1.28.9-1.8,2-1.16A4.47,4.47,0,0,1,112.52,109.9Z"/><polygon class="cls-22" points="135.06 108.48 131.15 96.23 124.56 105.85 123.98 104.31 131.12 95.49 135.91 108.11 135.06 108.48"/><path class="cls-23" d="M114.51,51.35C113,58,113.26,77.94,118.28,82.2c4,3.36,7.53,1.14,7.77,6s-1.81,5.35,1.18,7.5,19.41.56,19-4.68c-.37-4.92-1.47-6.68.81-11.25s8.89-11.9,7.91-18.43S120,27.78,114.51,51.35Z"/><path class="cls-24" d="M111.9,50.49c-2.63-1-3-8.23,10.32-17.13,10.24-6.84,30.33-5.48,36.27,8.27,6.19,14.3.55,22.18-4.14,32.51-2.83,6.23-7.88,7.14-7.88,7.14s2.1-6.33,3.92-8.64c2.66-3.38,4.59-7.85,2.54-10.43-1.14-1.44-2.94-2.22-5.43.27-4.14,4.14-8.48-9.41-18.88-11.54C119.85,49.15,114.53,51.5,111.9,50.49Z"/><path class="cls-25" d="M128.9,85.81a12.39,12.39,0,0,1-4.25-.57c.81.49,1.32,1.33,1.4,3,.25,4.89-1.81,5.35,1.18,7.5,1,.74,3.87,1.16,7.06,1.15,4.64-4.69,4.28-12.43,4.28-12.43A75.73,75.73,0,0,1,128.9,85.81Z"/><path class="cls-26" d="M115.24,51.85s-1.42,13.88.61,19.45S129.73,63.91,131,58.64,127.4,48.61,115.24,51.85Z"/><path class="cls-27" d="M149.51,68.82s3.57-3.72,2.28-5.62-3.5,1-3.5,1Z"/><path class="cls-28" d="M130.06,49.15c-5.43-1.29-15.64.61-19.53-1.28.13,1.4.65,2.35,1.37,2.62,2.63,1,7.95-1.34,16.72.45,7.68,1.57,12.06,9.37,15.49,11.67C143.39,61.06,135.66,50.47,130.06,49.15Z"/><g class="cls-9"><path class="cls-29" d="M29.85,79.85v.7s0-.68,0-.7Z"/><path class="cls-30" d="M49.37,80.55v-.7h0Z"/></g><path class="cls-31" d="M34.92,80.15c2.2.75,3.67,2.23,3.3,3.32s-2.44,1.36-4.64.61-3.67-2.23-3.3-3.32S32.73,79.4,34.92,80.15Z"/><path class="cls-32" d="M49.37,77.15H29.85v3.69h0s0,0,0,.07c0,3.14,4.37,5.68,9.76,5.68s9.76-2.54,9.76-5.68v-.07h0Z"/><path class="cls-33" d="M39.61,82.41c-5.27,0-9.56-2.44-9.74-5.49,0,.07,0,.13,0,.2,0,3.13,4.37,5.68,9.76,5.68s9.76-2.55,9.76-5.68a1.36,1.36,0,0,0,0-.2C49.17,80,44.89,82.41,39.61,82.41Z"/><path class="cls-34" d="M39.61,71.19a13.79,13.79,0,0,0-7,1.75.67.67,0,0,1-.19.41,1.6,1.6,0,0,1-.76.26,4.31,4.31,0,0,0-1.78,3.26c0,3.14,4.37,5.69,9.76,5.69s9.76-2.55,9.76-5.69S45,71.19,39.61,71.19Z"/><path class="cls-35" d="M32.6,72.77l14.14,8a.36.36,0,0,1,.15.44h0a.79.79,0,0,1-1,.47l-.26-.11-14-7.9a1.68,1.68,0,0,0,.77-.27A.87.87,0,0,0,32.6,72.77Z"/><path class="cls-36" d="M25.18,65.92a4.85,4.85,0,0,0-7.11-4.27c-.1,0-8,4.63-8,4.64-.61.36.39.37.39,1.45a7.61,7.61,0,0,0,3.46,6c.94.55.54,1.34,1.17,1,0,0,7.78-4.61,7.86-4.67A4.84,4.84,0,0,0,25.18,65.92Z"/><path class="cls-37" d="M12.31,66.62a2.46,2.46,0,0,0-2.41-.27S1.94,71,2,71.12a4.83,4.83,0,0,0,2.87,8.72A4.76,4.76,0,0,0,7,79.35s7.81-4.57,7.83-4.58a2.44,2.44,0,0,0,1-2.19A7.61,7.61,0,0,0,12.31,66.62Z"/><path class="cls-38" d="M12.9,65.41c2.94-1.66,5.71-2.31,6.2-1.46s-1.51,2.9-4.45,4.57S8.93,70.83,8.45,70,10,67.07,12.9,65.41Z"/><path class="cls-39" d="M6.07,74.38a2.84,2.84,0,1,1-2.84-2.84A2.84,2.84,0,0,1,6.07,74.38Z"/><path class="cls-40" d="M29.66,56.75a4.83,4.83,0,0,1,7.11-4.27c.1,0,8,4.63,8,4.64.62.36-.38.37-.38,1.45a7.61,7.61,0,0,1-3.46,6c-1,.55-.55,1.34-1.17,1,0,0-7.79-4.61-7.86-4.67A4.84,4.84,0,0,1,29.66,56.75Z"/><path class="cls-41" d="M42.53,57.45A2.45,2.45,0,0,1,45,57.18s7.95,4.69,7.93,4.76A4.84,4.84,0,0,1,50,70.67a4.81,4.81,0,0,1-2.14-.5s-7.8-4.56-7.82-4.57a2.44,2.44,0,0,1-1-2.2A7.61,7.61,0,0,1,42.53,57.45Z"/><path class="cls-42" d="M42,56.24c-2.94-1.66-5.72-2.32-6.2-1.46s1.5,2.9,4.44,4.56,5.72,2.32,6.21,1.46S44.89,57.9,42,56.24Z"/><path class="cls-43" d="M48.78,65.21a2.84,2.84,0,1,0,2.84-2.84A2.84,2.84,0,0,0,48.78,65.21Z"/><g class="cls-44"><polygon class="cls-45" points="81.73 89 81.73 114.46 92.31 108.35 92.31 82.69 81.73 89"/><polygon class="cls-46" points="81.76 89 81.76 114.46 58.45 101 58.45 75.34 81.76 89"/><polygon class="cls-47" points="58.45 75.34 81.76 89 92.31 82.69 68.95 69.1 58.45 75.34"/></g><path class="cls-48" d="M74.7,100.87c0,2.89-2,4-4.56,2.6a10.06,10.06,0,0,1-4.56-7.87c0-2.89,4.56-8.71,4.56-8.71S74.7,98,74.7,100.87Z"/><g class="cls-44"><polygon class="cls-49" points="81.73 54.86 81.73 80.32 92.31 74.21 92.31 48.55 81.73 54.86"/><polygon class="cls-50" points="81.76 54.86 81.76 80.32 58.45 66.85 58.45 41.2 81.76 54.86"/><polygon class="cls-51" points="58.45 41.2 81.76 54.86 92.31 48.55 68.95 34.96 58.45 41.2"/></g><path class="cls-48" d="M73.64,56.16c-1.45-.84-2.71-.56-3.34.54A8.35,8.35,0,0,0,67,52.3c-2.08-1.2-3.77-.11-3.77,2.43,0,4.66,7.11,14.52,7.11,14.52s7.11-1.65,7.11-6.3A8.59,8.59,0,0,0,73.64,56.16Z"/><g class="cls-44"><polygon class="cls-52" points="81.73 19.91 81.73 45.36 92.31 39.26 92.31 13.6 81.73 19.91"/><polygon class="cls-53" points="81.76 19.91 81.76 45.36 58.45 31.9 58.45 6.24 81.76 19.91"/><polygon class="cls-54" points="58.45 6.24 81.76 19.91 92.31 13.6 68.95 0 58.45 6.24"/></g><polygon class="cls-48" points="77.19 27.33 72.6 24.67 72.6 19.4 67.72 16.58 67.72 21.86 63.13 19.2 63.13 24.8 67.72 27.45 67.72 32.73 72.6 35.54 72.6 30.27 77.19 32.92 77.19 27.33"/></g></g></svg>