<svg id="Layer_1" data-name="Layer 1" xmlns="http://www.w3.org/2000/svg" viewBox="0 0 236.53 230.62"><defs><style>.cls-1{fill:#00e5ff;}</style></defs><path class="cls-1" d="M202.29.29h-168a31,31,0,0,0-31,31v168a31,31,0,0,0,31,31h82.88l.14-82.2H95.91a5,5,0,0,1-5-5l-.11-26.5a5,5,0,0,1,5-5.06h21.32V85.94c0-29.71,18.15-45.89,44.65-45.89h21.76a5,5,0,0,1,5,5V67.44a5,5,0,0,1-5,5H170.18c-14.41,0-17.21,6.85-17.21,16.9v22.17h31.68a5,5,0,0,1,5,5.63l-3.14,26.5a5,5,0,0,1-5,4.45H153.12l-.15,82.2h49.32a31,31,0,0,0,31-31v-168a31,31,0,0,0-31-31Zm0,0"/></svg>