<svg id="Layer_1" data-name="Layer 1" xmlns="http://www.w3.org/2000/svg" viewBox="0 0 236.53 230.62"><defs><style>.cls-1{fill:#00e5ff;}</style></defs><path class="cls-1" d="M216.27.29H20.21a16.78,16.78,0,0,0-17,16.58V213.73a16.8,16.8,0,0,0,17,16.6H216.27a16.82,16.82,0,0,0,17-16.6V16.87A16.81,16.81,0,0,0,216.27.29Zm-144.79,196H37.33V86.53H71.48ZM54.42,71.53A19.79,19.79,0,1,1,74.19,51.74,19.78,19.78,0,0,1,54.42,71.53ZM199.28,196.31H165.16V142.92c0-12.73-.22-29.1-17.73-29.1C129.68,113.82,127,127.69,127,142v54.3H92.89V86.53h32.7v15h.47c4.55-8.63,15.68-17.73,32.28-17.73,34.55,0,40.94,22.73,40.94,52.29Z"/></svg>