<svg id="Layer_1" data-name="Layer 1" xmlns="http://www.w3.org/2000/svg" xmlns:xlink="http://www.w3.org/1999/xlink" viewBox="0 0 537.22 617.9"><defs><style>.cls-1{fill:none;}.cls-1,.cls-4{stroke:#00e5ff;stroke-miterlimit:10;stroke-width:10px;}.cls-2{isolation:isolate;}.cls-3{clip-path:url(#clip-path);}.cls-4{fill:#00e5ff;}.cls-5{clip-path:url(#clip-path-2);}.cls-6{clip-path:url(#clip-path-3);}</style><clipPath id="clip-path" transform="translate(-12.47 -13.2)"><polygon class="cls-1" points="270.04 622.46 17.47 477.59 17.47 185 270.04 329.87 270.04 622.46"/></clipPath><clipPath id="clip-path-2" transform="translate(-12.47 -13.2)"><polygon class="cls-1" points="28.51 165.27 280.26 18.97 533.65 165.27 281.9 311.57 28.51 165.27"/></clipPath><clipPath id="clip-path-3" transform="translate(-12.47 -13.2)"><polygon class="cls-1" points="292.12 622.46 544.69 477.59 544.69 185 292.12 329.87 292.12 622.46"/></clipPath></defs><g class="cls-2"><g class="cls-3"><path class="cls-4" d="M263.27,610.73l-239-137.1V196.73l239,137.1v276.9M17.47,185V477.59L270,622.46V329.87L17.47,185" transform="translate(-12.47 -13.2)"/></g><polygon class="cls-1" points="257.57 609.27 5 464.4 5 171.8 257.57 316.67 257.57 609.27"/></g><g class="cls-2"><g class="cls-5"><path class="cls-4" d="M42.06,165.27,280.3,26.82,520.1,165.27,281.86,303.72,42.06,165.27m491.59,0L280.26,19,28.51,165.27,281.9,311.57l251.75-146.3" transform="translate(-12.47 -13.2)"/></g><polygon class="cls-1" points="16.04 152.08 267.79 5.78 521.18 152.07 269.44 298.38 16.04 152.08"/></g><g class="cls-2"><g class="cls-6"><path class="cls-4" d="M298.89,610.73V333.83l239-137.1v276.9l-239,137.1M544.69,185,292.12,329.87V622.46L544.69,477.59V185" transform="translate(-12.47 -13.2)"/></g><polygon class="cls-1" points="279.65 609.27 532.22 464.4 532.22 171.8 279.65 316.67 279.65 609.27"/></g></svg>