<svg id="Layer_1" data-name="Layer 1" xmlns="http://www.w3.org/2000/svg" viewBox="0 0 236.53 230.62"><defs><style>.cls-1{fill:#00e5ff;}</style></defs><path class="cls-1" d="M236.53,42a96.93,96.93,0,0,1-27.87,7.64A48.67,48.67,0,0,0,230,22.75a97.12,97.12,0,0,1-30.82,11.77,48.57,48.57,0,0,0-82.69,44.26,137.74,137.74,0,0,1-100-50.7,48.59,48.59,0,0,0,15,64.79,48.33,48.33,0,0,1-22-6.07c0,.2,0,.4,0,.61A48.56,48.56,0,0,0,48.43,135a48.7,48.7,0,0,1-21.92.83,48.58,48.58,0,0,0,45.33,33.7A97.32,97.32,0,0,1,11.58,190.3,98.39,98.39,0,0,1,0,189.62a137.35,137.35,0,0,0,74.39,21.8c89.26,0,138.07-73.94,138.07-138.07,0-2.1-.05-4.2-.14-6.28A98.68,98.68,0,0,0,236.53,42Z"/></svg>