<svg id="Layer_1" data-name="Layer 1" xmlns="http://www.w3.org/2000/svg" viewBox="0 0 236.53 230.62"><defs><style>.cls-1{fill:#00e5ff;}</style></defs><path class="cls-1" d="M231.56,58.06a29.94,29.94,0,0,0-21-21.1c-18.41-5-92.33-5-92.33-5S44.35,32,25.8,37a29.7,29.7,0,0,0-21,21.1C0,76.61,0,115.31,0,115.31S0,154,5,172.56a29.94,29.94,0,0,0,21,21.1c18.41,5,92.32,5,92.32,5s73.92,0,92.47-5a29.7,29.7,0,0,0,21-21.1c4.84-18.55,4.84-57.25,4.84-57.25S236.53,76.61,231.56,58.06ZM94.07,150.52V80.1l61.82,35.21Z"/></svg>